<?xml version="1.0" encoding="us-ascii" standalone="no"?><svg xmlns="http://www.w3.org/2000/svg" xmlns:xlink="http://www.w3.org/1999/xlink" contentStyleType="text/css" height="1286px" preserveAspectRatio="none" style="width:3415px;height:1286px;background:#FFFFFF;" version="1.1" viewBox="0 0 3415 1286" width="3415px" zoomAndPan="magnify"><defs/><g><!--cluster Shared Ingestion Infrastructure--><g id="cluster_Shared Ingestion Infrastructure"><rect fill="none" height="402" rx="2.5" ry="2.5" style="stroke:#000000;stroke-width:1.5;" width="767" x="1213" y="878"/><text fill="#000000" font-family="sans-serif" font-size="14" font-weight="bold" lengthAdjust="spacing" textLength="221" x="1486" y="894.5332">Shared Ingestion Infrastructure</text></g><!--cluster Price History--><g id="cluster_Price History"><rect fill="none" height="651" rx="2.5" ry="2.5" style="stroke:#000000;stroke-width:1.5;" width="531" x="7" y="203"/><text fill="#000000" font-family="sans-serif" font-size="14" font-weight="bold" lengthAdjust="spacing" textLength="89" x="228" y="219.5332">Price History</text></g><!--cluster Corporate Calendar and Fundamentals--><g id="cluster_Corporate Calendar and Fundamentals"><rect fill="none" height="669" rx="2.5" ry="2.5" style="stroke:#000000;stroke-width:1.5;" width="730" x="612" y="185"/><text fill="#000000" font-family="sans-serif" font-size="14" font-weight="bold" lengthAdjust="spacing" textLength="271" x="841.5" y="201.5332">Corporate Calendar and Fundamentals</text></g><!--cluster Live Price Streaming--><g id="cluster_Live Price Streaming"><rect fill="none" height="401.5" rx="2.5" ry="2.5" style="stroke:#000000;stroke-width:1.5;" width="1488" x="1366" y="417"/><text fill="#000000" font-family="sans-serif" font-size="14" font-weight="bold" lengthAdjust="spacing" textLength="145" x="2037.5" y="433.5332">Live Price Streaming</text></g><!--cluster Benchmark Indices--><g id="cluster_Benchmark Indices"><rect fill="none" height="820.5" rx="2.5" ry="2.5" style="stroke:#000000;stroke-width:1.5;" width="531" x="2878" y="7"/><text fill="#000000" font-family="sans-serif" font-size="14" font-weight="bold" lengthAdjust="spacing" textLength="134" x="3076.5" y="23.5332">Benchmark Indices</text></g><!--class TickerUniverseRepository--><g id="elem_TickerUniverseRepository"><rect codeLine="5" fill="#F1F1F1" height="153.6563" id="TickerUniverseRepository" rx="2.5" ry="2.5" style="stroke:#181818;stroke-width:0.5;" width="437" x="1229.5" y="914"/><ellipse cx="1362.75" cy="930" fill="#ADD1B2" rx="11" ry="11" style="stroke:#181818;stroke-width:1.0;"/><path d="M1365.5156,925.875 Q1365.6719,925.6563 1365.8594,925.5469 Q1366.0469,925.4375 1366.2656,925.4375 Q1366.6406,925.4375 1366.875,925.6953 Q1367.1094,925.9531 1367.1094,926.5625 L1367.1094,928.0156 Q1367.1094,928.625 1366.875,928.8906 Q1366.6406,929.1563 1366.2656,929.1563 Q1365.9219,929.1563 1365.7188,928.9531 Q1365.5156,928.7656 1365.4063,928.25 Q1365.3594,927.8906 1365.1719,927.7031 Q1364.8438,927.3281 1364.2344,927.1094 Q1363.625,926.8906 1363,926.8906 Q1362.2344,926.8906 1361.6016,927.2188 Q1360.9688,927.5469 1360.4766,928.2969 Q1359.9844,929.0469 1359.9844,930.0781 L1359.9844,931.1719 Q1359.9844,932.4063 1360.875,933.2266 Q1361.7656,934.0469 1363.3594,934.0469 Q1364.2969,934.0469 1364.9531,933.7969 Q1365.3438,933.6406 1365.7656,933.2031 Q1366.0313,932.9375 1366.1797,932.8594 Q1366.3281,932.7813 1366.5313,932.7813 Q1366.8594,932.7813 1367.1172,933.0391 Q1367.375,933.2969 1367.375,933.6406 Q1367.375,933.9844 1367.0313,934.3906 Q1366.5313,934.9688 1365.7344,935.2969 Q1364.6563,935.75 1363.3594,935.75 Q1361.8438,935.75 1360.6406,935.125 Q1359.6563,934.625 1358.9688,933.5547 Q1358.2813,932.4844 1358.2813,931.2031 L1358.2813,930.0469 Q1358.2813,928.7188 1358.8984,927.5703 Q1359.5156,926.4219 1360.6094,925.8047 Q1361.7031,925.1875 1362.9375,925.1875 Q1363.6719,925.1875 1364.3203,925.3516 Q1364.9688,925.5156 1365.5156,925.875 Z " fill="#000000"/><text fill="#000000" font-family="sans-serif" font-size="14" lengthAdjust="spacing" textLength="162" x="1383.25" y="935.7285">TickerUniverseRepository</text><line style="stroke:#181818;stroke-width:0.5;" x1="1230.5" x2="1665.5" y1="946" y2="946"/><text fill="#000000" font-family="sans-serif" font-size="14" lengthAdjust="spacing" textLength="36" x="1235.5" y="964.5332">-conn</text><line style="stroke:#181818;stroke-width:0.5;" x1="1230.5" x2="1665.5" y1="971.6094" y2="971.6094"/><text fill="#000000" font-family="sans-serif" font-size="14" lengthAdjust="spacing" textLength="190" x="1235.5" y="990.1426">+portfolio_asset_ids() : list[str]</text><text fill="#000000" font-family="sans-serif" font-size="14" lengthAdjust="spacing" textLength="192" x="1235.5" y="1007.752">+watchlist_asset_ids() : list[str]</text><text fill="#000000" font-family="sans-serif" font-size="14" lengthAdjust="spacing" textLength="317" x="1235.5" y="1025.3613">+active_asset_ids(include_watchlist: bool) : list[str]</text><text fill="#000000" font-family="sans-serif" font-size="14" lengthAdjust="spacing" textLength="425" x="1235.5" y="1042.9707">+live_subscriptions(include_watchlist: bool) : list[TickerSubscription]</text><text fill="#000000" font-family="sans-serif" font-size="14" lengthAdjust="spacing" textLength="282" x="1235.5" y="1060.5801">+sync_portfolio_tickers_from_positions() : int</text></g><!--class RateLimitPolicy--><g id="elem_RateLimitPolicy"><rect codeLine="14" fill="#F1F1F1" height="136.0469" id="RateLimitPolicy" rx="2.5" ry="2.5" style="stroke:#181818;stroke-width:0.5;" width="210" x="1538" y="1128"/><ellipse cx="1590.75" cy="1144" fill="#ADD1B2" rx="11" ry="11" style="stroke:#181818;stroke-width:1.0;"/><path d="M1593.5156,1139.875 Q1593.6719,1139.6563 1593.8594,1139.5469 Q1594.0469,1139.4375 1594.2656,1139.4375 Q1594.6406,1139.4375 1594.875,1139.6953 Q1595.1094,1139.9531 1595.1094,1140.5625 L1595.1094,1142.0156 Q1595.1094,1142.625 1594.875,1142.8906 Q1594.6406,1143.1563 1594.2656,1143.1563 Q1593.9219,1143.1563 1593.7188,1142.9531 Q1593.5156,1142.7656 1593.4063,1142.25 Q1593.3594,1141.8906 1593.1719,1141.7031 Q1592.8438,1141.3281 1592.2344,1141.1094 Q1591.625,1140.8906 1591,1140.8906 Q1590.2344,1140.8906 1589.6016,1141.2188 Q1588.9688,1141.5469 1588.4766,1142.2969 Q1587.9844,1143.0469 1587.9844,1144.0781 L1587.9844,1145.1719 Q1587.9844,1146.4063 1588.875,1147.2266 Q1589.7656,1148.0469 1591.3594,1148.0469 Q1592.2969,1148.0469 1592.9531,1147.7969 Q1593.3438,1147.6406 1593.7656,1147.2031 Q1594.0313,1146.9375 1594.1797,1146.8594 Q1594.3281,1146.7813 1594.5313,1146.7813 Q1594.8594,1146.7813 1595.1172,1147.0391 Q1595.375,1147.2969 1595.375,1147.6406 Q1595.375,1147.9844 1595.0313,1148.3906 Q1594.5313,1148.9688 1593.7344,1149.2969 Q1592.6563,1149.75 1591.3594,1149.75 Q1589.8438,1149.75 1588.6406,1149.125 Q1587.6563,1148.625 1586.9688,1147.5547 Q1586.2813,1146.4844 1586.2813,1145.2031 L1586.2813,1144.0469 Q1586.2813,1142.7188 1586.8984,1141.5703 Q1587.5156,1140.4219 1588.6094,1139.8047 Q1589.7031,1139.1875 1590.9375,1139.1875 Q1591.6719,1139.1875 1592.3203,1139.3516 Q1592.9688,1139.5156 1593.5156,1139.875 Z " fill="#000000"/><text fill="#000000" font-family="sans-serif" font-size="14" lengthAdjust="spacing" textLength="96" x="1611.25" y="1149.7285">RateLimitPolicy</text><line style="stroke:#181818;stroke-width:0.5;" x1="1539" x2="1747" y1="1160" y2="1160"/><text fill="#000000" font-family="sans-serif" font-size="14" lengthAdjust="spacing" textLength="88" x="1544" y="1178.5332">+provider : str</text><text fill="#000000" font-family="sans-serif" font-size="14" lengthAdjust="spacing" textLength="63" x="1544" y="1196.1426">+calls : int</text><text fill="#000000" font-family="sans-serif" font-size="14" lengthAdjust="spacing" textLength="148" x="1544" y="1213.752">+period_seconds : float</text><text fill="#000000" font-family="sans-serif" font-size="14" lengthAdjust="spacing" textLength="184" x="1544" y="1231.3613">+min_interval_seconds : float</text><text fill="#000000" font-family="sans-serif" font-size="14" lengthAdjust="spacing" textLength="198" x="1544" y="1248.9707">+max_calls_per_run : int | None</text><line style="stroke:#181818;stroke-width:0.5;" x1="1539" x2="1747" y1="1256.0469" y2="1256.0469"/></g><!--class InMemoryRateLimiter--><g id="elem_InMemoryRateLimiter"><rect codeLine="22" fill="#F1F1F1" height="65.6094" id="InMemoryRateLimiter" rx="2.5" ry="2.5" style="stroke:#181818;stroke-width:0.5;" width="262" x="1702" y="958"/><ellipse cx="1762.25" cy="974" fill="#ADD1B2" rx="11" ry="11" style="stroke:#181818;stroke-width:1.0;"/><path d="M1765.0156,969.875 Q1765.1719,969.6563 1765.3594,969.5469 Q1765.5469,969.4375 1765.7656,969.4375 Q1766.1406,969.4375 1766.375,969.6953 Q1766.6094,969.9531 1766.6094,970.5625 L1766.6094,972.0156 Q1766.6094,972.625 1766.375,972.8906 Q1766.1406,973.1563 1765.7656,973.1563 Q1765.4219,973.1563 1765.2188,972.9531 Q1765.0156,972.7656 1764.9063,972.25 Q1764.8594,971.8906 1764.6719,971.7031 Q1764.3438,971.3281 1763.7344,971.1094 Q1763.125,970.8906 1762.5,970.8906 Q1761.7344,970.8906 1761.1016,971.2188 Q1760.4688,971.5469 1759.9766,972.2969 Q1759.4844,973.0469 1759.4844,974.0781 L1759.4844,975.1719 Q1759.4844,976.4063 1760.375,977.2266 Q1761.2656,978.0469 1762.8594,978.0469 Q1763.7969,978.0469 1764.4531,977.7969 Q1764.8438,977.6406 1765.2656,977.2031 Q1765.5313,976.9375 1765.6797,976.8594 Q1765.8281,976.7813 1766.0313,976.7813 Q1766.3594,976.7813 1766.6172,977.0391 Q1766.875,977.2969 1766.875,977.6406 Q1766.875,977.9844 1766.5313,978.3906 Q1766.0313,978.9688 1765.2344,979.2969 Q1764.1563,979.75 1762.8594,979.75 Q1761.3438,979.75 1760.1406,979.125 Q1759.1563,978.625 1758.4688,977.5547 Q1757.7813,976.4844 1757.7813,975.2031 L1757.7813,974.0469 Q1757.7813,972.7188 1758.3984,971.5703 Q1759.0156,970.4219 1760.1094,969.8047 Q1761.2031,969.1875 1762.4375,969.1875 Q1763.1719,969.1875 1763.8203,969.3516 Q1764.4688,969.5156 1765.0156,969.875 Z " fill="#000000"/><text fill="#000000" font-family="sans-serif" font-size="14" lengthAdjust="spacing" textLength="133" x="1782.75" y="979.7285">InMemoryRateLimiter</text><line style="stroke:#181818;stroke-width:0.5;" x1="1703" x2="1963" y1="990" y2="990"/><line style="stroke:#181818;stroke-width:0.5;" x1="1703" x2="1963" y1="998" y2="998"/><text fill="#000000" font-family="sans-serif" font-size="14" lengthAdjust="spacing" textLength="250" x="1708" y="1016.5332">+acquire(policy: RateLimitPolicy) : None</text></g><!--class RateLimitExceeded--><g id="elem_RateLimitExceeded"><rect codeLine="26" fill="#F1F1F1" height="48" id="RateLimitExceeded" rx="2.5" ry="2.5" style="stroke:#181818;stroke-width:0.5;" width="153" x="1783.5" y="1172"/><ellipse cx="1798.5" cy="1188" fill="#ADD1B2" rx="11" ry="11" style="stroke:#181818;stroke-width:1.0;"/><path d="M1801.2656,1183.875 Q1801.4219,1183.6563 1801.6094,1183.5469 Q1801.7969,1183.4375 1802.0156,1183.4375 Q1802.3906,1183.4375 1802.625,1183.6953 Q1802.8594,1183.9531 1802.8594,1184.5625 L1802.8594,1186.0156 Q1802.8594,1186.625 1802.625,1186.8906 Q1802.3906,1187.1563 1802.0156,1187.1563 Q1801.6719,1187.1563 1801.4688,1186.9531 Q1801.2656,1186.7656 1801.1563,1186.25 Q1801.1094,1185.8906 1800.9219,1185.7031 Q1800.5938,1185.3281 1799.9844,1185.1094 Q1799.375,1184.8906 1798.75,1184.8906 Q1797.9844,1184.8906 1797.3516,1185.2188 Q1796.7188,1185.5469 1796.2266,1186.2969 Q1795.7344,1187.0469 1795.7344,1188.0781 L1795.7344,1189.1719 Q1795.7344,1190.4063 1796.625,1191.2266 Q1797.5156,1192.0469 1799.1094,1192.0469 Q1800.0469,1192.0469 1800.7031,1191.7969 Q1801.0938,1191.6406 1801.5156,1191.2031 Q1801.7813,1190.9375 1801.9297,1190.8594 Q1802.0781,1190.7813 1802.2813,1190.7813 Q1802.6094,1190.7813 1802.8672,1191.0391 Q1803.125,1191.2969 1803.125,1191.6406 Q1803.125,1191.9844 1802.7813,1192.3906 Q1802.2813,1192.9688 1801.4844,1193.2969 Q1800.4063,1193.75 1799.1094,1193.75 Q1797.5938,1193.75 1796.3906,1193.125 Q1795.4063,1192.625 1794.7188,1191.5547 Q1794.0313,1190.4844 1794.0313,1189.2031 L1794.0313,1188.0469 Q1794.0313,1186.7188 1794.6484,1185.5703 Q1795.2656,1184.4219 1796.3594,1183.8047 Q1797.4531,1183.1875 1798.6875,1183.1875 Q1799.4219,1183.1875 1800.0703,1183.3516 Q1800.7188,1183.5156 1801.2656,1183.875 Z " fill="#000000"/><text fill="#000000" font-family="sans-serif" font-size="14" lengthAdjust="spacing" textLength="121" x="1812.5" y="1193.7285">RateLimitExceeded</text><line style="stroke:#181818;stroke-width:0.5;" x1="1784.5" x2="1935.5" y1="1204" y2="1204"/><line style="stroke:#181818;stroke-width:0.5;" x1="1784.5" x2="1935.5" y1="1212" y2="1212"/></g><!--class PriceHistoryIngestionService--><g id="elem_PriceHistoryIngestionService"><rect codeLine="30" fill="#F1F1F1" height="118.4375" id="PriceHistoryIngestionService" rx="2.5" ry="2.5" style="stroke:#181818;stroke-width:0.5;" width="258" x="264" y="239"/><ellipse cx="300.15" cy="255" fill="#ADD1B2" rx="11" ry="11" style="stroke:#181818;stroke-width:1.0;"/><path d="M302.9156,250.875 Q303.0719,250.6563 303.2594,250.5469 Q303.4469,250.4375 303.6656,250.4375 Q304.0406,250.4375 304.275,250.6953 Q304.5094,250.9531 304.5094,251.5625 L304.5094,253.0156 Q304.5094,253.625 304.275,253.8906 Q304.0406,254.1563 303.6656,254.1563 Q303.3219,254.1563 303.1188,253.9531 Q302.9156,253.7656 302.8063,253.25 Q302.7594,252.8906 302.5719,252.7031 Q302.2438,252.3281 301.6344,252.1094 Q301.025,251.8906 300.4,251.8906 Q299.6344,251.8906 299.0016,252.2188 Q298.3688,252.5469 297.8766,253.2969 Q297.3844,254.0469 297.3844,255.0781 L297.3844,256.1719 Q297.3844,257.4063 298.275,258.2266 Q299.1656,259.0469 300.7594,259.0469 Q301.6969,259.0469 302.3531,258.7969 Q302.7438,258.6406 303.1656,258.2031 Q303.4313,257.9375 303.5797,257.8594 Q303.7281,257.7813 303.9313,257.7813 Q304.2594,257.7813 304.5172,258.0391 Q304.775,258.2969 304.775,258.6406 Q304.775,258.9844 304.4313,259.3906 Q303.9313,259.9688 303.1344,260.2969 Q302.0563,260.75 300.7594,260.75 Q299.2438,260.75 298.0406,260.125 Q297.0563,259.625 296.3688,258.5547 Q295.6813,257.4844 295.6813,256.2031 L295.6813,255.0469 Q295.6813,253.7188 296.2984,252.5703 Q296.9156,251.4219 298.0094,250.8047 Q299.1031,250.1875 300.3375,250.1875 Q301.0719,250.1875 301.7203,250.3516 Q302.3688,250.5156 302.9156,250.875 Z " fill="#000000"/><text fill="#000000" font-family="sans-serif" font-size="14" lengthAdjust="spacing" textLength="179" x="318.85" y="260.7285">PriceHistoryIngestionService</text><line style="stroke:#181818;stroke-width:0.5;" x1="265" x2="521" y1="271" y2="271"/><text fill="#000000" font-family="sans-serif" font-size="14" lengthAdjust="spacing" textLength="246" x="270" y="289.5332">-repo : PriceHistoryIngestionRepository</text><text fill="#000000" font-family="sans-serif" font-size="14" lengthAdjust="spacing" textLength="195" x="270" y="307.1426">-provider : YahooPriceProvider</text><line style="stroke:#181818;stroke-width:0.5;" x1="265" x2="521" y1="314.2188" y2="314.2188"/><text fill="#000000" font-family="sans-serif" font-size="14" lengthAdjust="spacing" textLength="160" x="270" y="332.752">+schedule_backfill_jobs()</text><text fill="#000000" font-family="sans-serif" font-size="14" lengthAdjust="spacing" textLength="207" x="270" y="350.3613">+process_jobs(max_jobs:int) : int</text></g><!--class PriceHistoryBackfillWorker--><g id="elem_PriceHistoryBackfillWorker"><rect codeLine="37" fill="#F1F1F1" height="100.8281" id="PriceHistoryBackfillWorker" rx="2.5" ry="2.5" style="stroke:#181818;stroke-width:0.5;" width="258" x="112" y="461.5"/><ellipse cx="154.45" cy="477.5" fill="#ADD1B2" rx="11" ry="11" style="stroke:#181818;stroke-width:1.0;"/><path d="M157.2156,473.375 Q157.3719,473.1563 157.5594,473.0469 Q157.7469,472.9375 157.9656,472.9375 Q158.3406,472.9375 158.575,473.1953 Q158.8094,473.4531 158.8094,474.0625 L158.8094,475.5156 Q158.8094,476.125 158.575,476.3906 Q158.3406,476.6563 157.9656,476.6563 Q157.6219,476.6563 157.4188,476.4531 Q157.2156,476.2656 157.1063,475.75 Q157.0594,475.3906 156.8719,475.2031 Q156.5438,474.8281 155.9344,474.6094 Q155.325,474.3906 154.7,474.3906 Q153.9344,474.3906 153.3016,474.7188 Q152.6688,475.0469 152.1766,475.7969 Q151.6844,476.5469 151.6844,477.5781 L151.6844,478.6719 Q151.6844,479.9063 152.575,480.7266 Q153.4656,481.5469 155.0594,481.5469 Q155.9969,481.5469 156.6531,481.2969 Q157.0438,481.1406 157.4656,480.7031 Q157.7313,480.4375 157.8797,480.3594 Q158.0281,480.2813 158.2313,480.2813 Q158.5594,480.2813 158.8172,480.5391 Q159.075,480.7969 159.075,481.1406 Q159.075,481.4844 158.7313,481.8906 Q158.2313,482.4688 157.4344,482.7969 Q156.3563,483.25 155.0594,483.25 Q153.5438,483.25 152.3406,482.625 Q151.3563,482.125 150.6688,481.0547 Q149.9813,479.9844 149.9813,478.7031 L149.9813,477.5469 Q149.9813,476.2188 150.5984,475.0703 Q151.2156,473.9219 152.3094,473.3047 Q153.4031,472.6875 154.6375,472.6875 Q155.3719,472.6875 156.0203,472.8516 Q156.6688,473.0156 157.2156,473.375 Z " fill="#000000"/><text fill="#000000" font-family="sans-serif" font-size="14" lengthAdjust="spacing" textLength="165" x="174.55" y="483.2285">PriceHistoryBackfillWorker</text><line style="stroke:#181818;stroke-width:0.5;" x1="113" x2="369" y1="493.5" y2="493.5"/><text fill="#000000" font-family="sans-serif" font-size="14" lengthAdjust="spacing" textLength="246" x="118" y="512.0332">-repo : PriceHistoryIngestionRepository</text><text fill="#000000" font-family="sans-serif" font-size="14" lengthAdjust="spacing" textLength="195" x="118" y="529.6426">-provider : YahooPriceProvider</text><line style="stroke:#181818;stroke-width:0.5;" x1="113" x2="369" y1="536.7188" y2="536.7188"/><text fill="#000000" font-family="sans-serif" font-size="14" lengthAdjust="spacing" textLength="117" x="118" y="555.252">+run_once() : bool</text></g><!--class PriceHistoryIngestionRepository--><g id="elem_PriceHistoryIngestionRepository"><rect codeLine="43" fill="#F1F1F1" height="188.875" id="PriceHistoryIngestionRepository" rx="2.5" ry="2.5" style="stroke:#181818;stroke-width:0.5;" width="232" x="290" y="649"/><ellipse cx="305" cy="665" fill="#ADD1B2" rx="11" ry="11" style="stroke:#181818;stroke-width:1.0;"/><path d="M307.7656,660.875 Q307.9219,660.6563 308.1094,660.5469 Q308.2969,660.4375 308.5156,660.4375 Q308.8906,660.4375 309.125,660.6953 Q309.3594,660.9531 309.3594,661.5625 L309.3594,663.0156 Q309.3594,663.625 309.125,663.8906 Q308.8906,664.1563 308.5156,664.1563 Q308.1719,664.1563 307.9688,663.9531 Q307.7656,663.7656 307.6563,663.25 Q307.6094,662.8906 307.4219,662.7031 Q307.0938,662.3281 306.4844,662.1094 Q305.875,661.8906 305.25,661.8906 Q304.4844,661.8906 303.8516,662.2188 Q303.2188,662.5469 302.7266,663.2969 Q302.2344,664.0469 302.2344,665.0781 L302.2344,666.1719 Q302.2344,667.4063 303.125,668.2266 Q304.0156,669.0469 305.6094,669.0469 Q306.5469,669.0469 307.2031,668.7969 Q307.5938,668.6406 308.0156,668.2031 Q308.2813,667.9375 308.4297,667.8594 Q308.5781,667.7813 308.7813,667.7813 Q309.1094,667.7813 309.3672,668.0391 Q309.625,668.2969 309.625,668.6406 Q309.625,668.9844 309.2813,669.3906 Q308.7813,669.9688 307.9844,670.2969 Q306.9063,670.75 305.6094,670.75 Q304.0938,670.75 302.8906,670.125 Q301.9063,669.625 301.2188,668.5547 Q300.5313,667.4844 300.5313,666.2031 L300.5313,665.0469 Q300.5313,663.7188 301.1484,662.5703 Q301.7656,661.4219 302.8594,660.8047 Q303.9531,660.1875 305.1875,660.1875 Q305.9219,660.1875 306.5703,660.3516 Q307.2188,660.5156 307.7656,660.875 Z " fill="#000000"/><text fill="#000000" font-family="sans-serif" font-size="14" lengthAdjust="spacing" textLength="200" x="319" y="670.7285">PriceHistoryIngestionRepository</text><line style="stroke:#181818;stroke-width:0.5;" x1="291" x2="521" y1="681" y2="681"/><text fill="#000000" font-family="sans-serif" font-size="14" lengthAdjust="spacing" textLength="36" x="296" y="699.5332">-conn</text><line style="stroke:#181818;stroke-width:0.5;" x1="291" x2="521" y1="706.6094" y2="706.6094"/><text fill="#000000" font-family="sans-serif" font-size="14" lengthAdjust="spacing" textLength="101" x="296" y="725.1426">+enqueue_job()</text><text fill="#000000" font-family="sans-serif" font-size="14" lengthAdjust="spacing" textLength="170" x="296" y="742.752">+claim_next_pending_job()</text><text fill="#000000" font-family="sans-serif" font-size="14" lengthAdjust="spacing" textLength="116" x="296" y="760.3613">+mark_job_done()</text><text fill="#000000" font-family="sans-serif" font-size="14" lengthAdjust="spacing" textLength="118" x="296" y="777.9707">+mark_job_failed()</text><text fill="#000000" font-family="sans-serif" font-size="14" lengthAdjust="spacing" textLength="171" x="296" y="795.5801">+upsert_price_daily_rows()</text><text fill="#000000" font-family="sans-serif" font-size="14" lengthAdjust="spacing" textLength="156" x="296" y="813.1895">+upsert_dividend_rows()</text><text fill="#000000" font-family="sans-serif" font-size="14" lengthAdjust="spacing" textLength="128" x="296" y="830.7988">+upsert_split_rows()</text></g><!--class YahooPriceProvider--><g id="elem_YahooPriceProvider"><rect codeLine="54" fill="#F1F1F1" height="136.0469" id="YahooPriceProvider" rx="2.5" ry="2.5" style="stroke:#181818;stroke-width:0.5;" width="232" x="23" y="675.5"/><ellipse cx="71.75" cy="691.5" fill="#ADD1B2" rx="11" ry="11" style="stroke:#181818;stroke-width:1.0;"/><path d="M74.5156,687.375 Q74.6719,687.1563 74.8594,687.0469 Q75.0469,686.9375 75.2656,686.9375 Q75.6406,686.9375 75.875,687.1953 Q76.1094,687.4531 76.1094,688.0625 L76.1094,689.5156 Q76.1094,690.125 75.875,690.3906 Q75.6406,690.6563 75.2656,690.6563 Q74.9219,690.6563 74.7188,690.4531 Q74.5156,690.2656 74.4063,689.75 Q74.3594,689.3906 74.1719,689.2031 Q73.8438,688.8281 73.2344,688.6094 Q72.625,688.3906 72,688.3906 Q71.2344,688.3906 70.6016,688.7188 Q69.9688,689.0469 69.4766,689.7969 Q68.9844,690.5469 68.9844,691.5781 L68.9844,692.6719 Q68.9844,693.9063 69.875,694.7266 Q70.7656,695.5469 72.3594,695.5469 Q73.2969,695.5469 73.9531,695.2969 Q74.3438,695.1406 74.7656,694.7031 Q75.0313,694.4375 75.1797,694.3594 Q75.3281,694.2813 75.5313,694.2813 Q75.8594,694.2813 76.1172,694.5391 Q76.375,694.7969 76.375,695.1406 Q76.375,695.4844 76.0313,695.8906 Q75.5313,696.4688 74.7344,696.7969 Q73.6563,697.25 72.3594,697.25 Q70.8438,697.25 69.6406,696.625 Q68.6563,696.125 67.9688,695.0547 Q67.2813,693.9844 67.2813,692.7031 L67.2813,691.5469 Q67.2813,690.2188 67.8984,689.0703 Q68.5156,687.9219 69.6094,687.3047 Q70.7031,686.6875 71.9375,686.6875 Q72.6719,686.6875 73.3203,686.8516 Q73.9688,687.0156 74.5156,687.375 Z " fill="#000000"/><text fill="#000000" font-family="sans-serif" font-size="14" lengthAdjust="spacing" textLength="126" x="92.25" y="697.2285">YahooPriceProvider</text><line style="stroke:#181818;stroke-width:0.5;" x1="24" x2="254" y1="707.5" y2="707.5"/><text fill="#000000" font-family="sans-serif" font-size="14" lengthAdjust="spacing" textLength="220" x="29" y="726.0332">-rate_limiter : InMemoryRateLimiter</text><text fill="#000000" font-family="sans-serif" font-size="14" lengthAdjust="spacing" textLength="214" x="29" y="743.6426">-rate_limit_policy : RateLimitPolicy</text><line style="stroke:#181818;stroke-width:0.5;" x1="24" x2="254" y1="750.7188" y2="750.7188"/><text fill="#000000" font-family="sans-serif" font-size="14" lengthAdjust="spacing" textLength="125" x="29" y="769.252">+fetch_price_daily()</text><text fill="#000000" font-family="sans-serif" font-size="14" lengthAdjust="spacing" textLength="117" x="29" y="786.8613">+fetch_dividends()</text><text fill="#000000" font-family="sans-serif" font-size="14" lengthAdjust="spacing" textLength="89" x="29" y="804.4707">+fetch_splits()</text></g><!--class CorporateCalendarIngestionService--><g id="elem_CorporateCalendarIngestionService"><rect codeLine="64" fill="#F1F1F1" height="153.6563" id="CorporateCalendarIngestionService" rx="2.5" ry="2.5" style="stroke:#181818;stroke-width:0.5;" width="357" x="631.5" y="221"/><ellipse cx="692.75" cy="237" fill="#ADD1B2" rx="11" ry="11" style="stroke:#181818;stroke-width:1.0;"/><path d="M695.5156,232.875 Q695.6719,232.6563 695.8594,232.5469 Q696.0469,232.4375 696.2656,232.4375 Q696.6406,232.4375 696.875,232.6953 Q697.1094,232.9531 697.1094,233.5625 L697.1094,235.0156 Q697.1094,235.625 696.875,235.8906 Q696.6406,236.1563 696.2656,236.1563 Q695.9219,236.1563 695.7188,235.9531 Q695.5156,235.7656 695.4063,235.25 Q695.3594,234.8906 695.1719,234.7031 Q694.8438,234.3281 694.2344,234.1094 Q693.625,233.8906 693,233.8906 Q692.2344,233.8906 691.6016,234.2188 Q690.9688,234.5469 690.4766,235.2969 Q689.9844,236.0469 689.9844,237.0781 L689.9844,238.1719 Q689.9844,239.4063 690.875,240.2266 Q691.7656,241.0469 693.3594,241.0469 Q694.2969,241.0469 694.9531,240.7969 Q695.3438,240.6406 695.7656,240.2031 Q696.0313,239.9375 696.1797,239.8594 Q696.3281,239.7813 696.5313,239.7813 Q696.8594,239.7813 697.1172,240.0391 Q697.375,240.2969 697.375,240.6406 Q697.375,240.9844 697.0313,241.3906 Q696.5313,241.9688 695.7344,242.2969 Q694.6563,242.75 693.3594,242.75 Q691.8438,242.75 690.6406,242.125 Q689.6563,241.625 688.9688,240.5547 Q688.2813,239.4844 688.2813,238.2031 L688.2813,237.0469 Q688.2813,235.7188 688.8984,234.5703 Q689.5156,233.4219 690.6094,232.8047 Q691.7031,232.1875 692.9375,232.1875 Q693.6719,232.1875 694.3203,232.3516 Q694.9688,232.5156 695.5156,232.875 Z " fill="#000000"/><text fill="#000000" font-family="sans-serif" font-size="14" lengthAdjust="spacing" textLength="226" x="713.25" y="242.7285">CorporateCalendarIngestionService</text><line style="stroke:#181818;stroke-width:0.5;" x1="632.5" x2="987.5" y1="253" y2="253"/><text fill="#000000" font-family="sans-serif" font-size="14" lengthAdjust="spacing" textLength="272" x="637.5" y="271.5332">-provider : FmpCorporateCalendarProvider</text><line style="stroke:#181818;stroke-width:0.5;" x1="632.5" x2="987.5" y1="278.6094" y2="278.6094"/><text fill="#000000" font-family="sans-serif" font-size="14" lengthAdjust="spacing" textLength="162" x="637.5" y="297.1426">+schedule_refresh_jobs()</text><text fill="#000000" font-family="sans-serif" font-size="14" lengthAdjust="spacing" textLength="307" x="637.5" y="314.752">+schedule_fundamental_updates_after_events()</text><text fill="#000000" font-family="sans-serif" font-size="14" lengthAdjust="spacing" textLength="345" x="637.5" y="332.3613">+schedule_due_fundamental_subscription_refreshes()</text><text fill="#000000" font-family="sans-serif" font-size="14" lengthAdjust="spacing" textLength="335" x="637.5" y="349.9707">+schedule_due_fundamental_subscription_backfills()</text><text fill="#000000" font-family="sans-serif" font-size="14" lengthAdjust="spacing" textLength="207" x="637.5" y="367.5801">+process_jobs(max_jobs:int) : int</text></g><!--class CorporateCalendarScheduler--><g id="elem_CorporateCalendarScheduler"><rect codeLine="73" fill="#F1F1F1" height="153.6563" id="CorporateCalendarScheduler" rx="2.5" ry="2.5" style="stroke:#181818;stroke-width:0.5;" width="357" x="968.5" y="435"/><ellipse cx="1049.75" cy="451" fill="#ADD1B2" rx="11" ry="11" style="stroke:#181818;stroke-width:1.0;"/><path d="M1052.5156,446.875 Q1052.6719,446.6563 1052.8594,446.5469 Q1053.0469,446.4375 1053.2656,446.4375 Q1053.6406,446.4375 1053.875,446.6953 Q1054.1094,446.9531 1054.1094,447.5625 L1054.1094,449.0156 Q1054.1094,449.625 1053.875,449.8906 Q1053.6406,450.1563 1053.2656,450.1563 Q1052.9219,450.1563 1052.7188,449.9531 Q1052.5156,449.7656 1052.4063,449.25 Q1052.3594,448.8906 1052.1719,448.7031 Q1051.8438,448.3281 1051.2344,448.1094 Q1050.625,447.8906 1050,447.8906 Q1049.2344,447.8906 1048.6016,448.2188 Q1047.9688,448.5469 1047.4766,449.2969 Q1046.9844,450.0469 1046.9844,451.0781 L1046.9844,452.1719 Q1046.9844,453.4063 1047.875,454.2266 Q1048.7656,455.0469 1050.3594,455.0469 Q1051.2969,455.0469 1051.9531,454.7969 Q1052.3438,454.6406 1052.7656,454.2031 Q1053.0313,453.9375 1053.1797,453.8594 Q1053.3281,453.7813 1053.5313,453.7813 Q1053.8594,453.7813 1054.1172,454.0391 Q1054.375,454.2969 1054.375,454.6406 Q1054.375,454.9844 1054.0313,455.3906 Q1053.5313,455.9688 1052.7344,456.2969 Q1051.6563,456.75 1050.3594,456.75 Q1048.8438,456.75 1047.6406,456.125 Q1046.6563,455.625 1045.9688,454.5547 Q1045.2813,453.4844 1045.2813,452.2031 L1045.2813,451.0469 Q1045.2813,449.7188 1045.8984,448.5703 Q1046.5156,447.4219 1047.6094,446.8047 Q1048.7031,446.1875 1049.9375,446.1875 Q1050.6719,446.1875 1051.3203,446.3516 Q1051.9688,446.5156 1052.5156,446.875 Z " fill="#000000"/><text fill="#000000" font-family="sans-serif" font-size="14" lengthAdjust="spacing" textLength="186" x="1070.25" y="456.7285">CorporateCalendarScheduler</text><line style="stroke:#181818;stroke-width:0.5;" x1="969.5" x2="1324.5" y1="467" y2="467"/><text fill="#000000" font-family="sans-serif" font-size="14" lengthAdjust="spacing" textLength="293" x="974.5" y="485.5332">-repo : CorporateCalendarIngestionRepository</text><text fill="#000000" font-family="sans-serif" font-size="14" lengthAdjust="spacing" textLength="275" x="974.5" y="503.1426">-ticker_universe : TickerUniverseRepository</text><line style="stroke:#181818;stroke-width:0.5;" x1="969.5" x2="1324.5" y1="510.2188" y2="510.2188"/><text fill="#000000" font-family="sans-serif" font-size="14" lengthAdjust="spacing" textLength="191" x="974.5" y="528.752">+schedule_calendar_refresh()</text><text fill="#000000" font-family="sans-serif" font-size="14" lengthAdjust="spacing" textLength="307" x="974.5" y="546.3613">+schedule_fundamental_updates_after_events()</text><text fill="#000000" font-family="sans-serif" font-size="14" lengthAdjust="spacing" textLength="345" x="974.5" y="563.9707">+schedule_due_fundamental_subscription_refreshes()</text><text fill="#000000" font-family="sans-serif" font-size="14" lengthAdjust="spacing" textLength="335" x="974.5" y="581.5801">+schedule_due_fundamental_subscription_backfills()</text></g><!--class CorporateCalendarWorker--><g id="elem_CorporateCalendarWorker"><rect codeLine="82" fill="#F1F1F1" height="100.8281" id="CorporateCalendarWorker" rx="2.5" ry="2.5" style="stroke:#181818;stroke-width:0.5;" width="305" x="628.5" y="461.5"/><ellipse cx="692.75" cy="477.5" fill="#ADD1B2" rx="11" ry="11" style="stroke:#181818;stroke-width:1.0;"/><path d="M695.5156,473.375 Q695.6719,473.1563 695.8594,473.0469 Q696.0469,472.9375 696.2656,472.9375 Q696.6406,472.9375 696.875,473.1953 Q697.1094,473.4531 697.1094,474.0625 L697.1094,475.5156 Q697.1094,476.125 696.875,476.3906 Q696.6406,476.6563 696.2656,476.6563 Q695.9219,476.6563 695.7188,476.4531 Q695.5156,476.2656 695.4063,475.75 Q695.3594,475.3906 695.1719,475.2031 Q694.8438,474.8281 694.2344,474.6094 Q693.625,474.3906 693,474.3906 Q692.2344,474.3906 691.6016,474.7188 Q690.9688,475.0469 690.4766,475.7969 Q689.9844,476.5469 689.9844,477.5781 L689.9844,478.6719 Q689.9844,479.9063 690.875,480.7266 Q691.7656,481.5469 693.3594,481.5469 Q694.2969,481.5469 694.9531,481.2969 Q695.3438,481.1406 695.7656,480.7031 Q696.0313,480.4375 696.1797,480.3594 Q696.3281,480.2813 696.5313,480.2813 Q696.8594,480.2813 697.1172,480.5391 Q697.375,480.7969 697.375,481.1406 Q697.375,481.4844 697.0313,481.8906 Q696.5313,482.4688 695.7344,482.7969 Q694.6563,483.25 693.3594,483.25 Q691.8438,483.25 690.6406,482.625 Q689.6563,482.125 688.9688,481.0547 Q688.2813,479.9844 688.2813,478.7031 L688.2813,477.5469 Q688.2813,476.2188 688.8984,475.0703 Q689.5156,473.9219 690.6094,473.3047 Q691.7031,472.6875 692.9375,472.6875 Q693.6719,472.6875 694.3203,472.8516 Q694.9688,473.0156 695.5156,473.375 Z " fill="#000000"/><text fill="#000000" font-family="sans-serif" font-size="14" lengthAdjust="spacing" textLength="168" x="713.25" y="483.2285">CorporateCalendarWorker</text><line style="stroke:#181818;stroke-width:0.5;" x1="629.5" x2="932.5" y1="493.5" y2="493.5"/><text fill="#000000" font-family="sans-serif" font-size="14" lengthAdjust="spacing" textLength="293" x="634.5" y="512.0332">-repo : CorporateCalendarIngestionRepository</text><text fill="#000000" font-family="sans-serif" font-size="14" lengthAdjust="spacing" textLength="272" x="634.5" y="529.6426">-provider : FmpCorporateCalendarProvider</text><line style="stroke:#181818;stroke-width:0.5;" x1="629.5" x2="932.5" y1="536.7188" y2="536.7188"/><text fill="#000000" font-family="sans-serif" font-size="14" lengthAdjust="spacing" textLength="117" x="634.5" y="555.252">+run_once() : bool</text></g><!--class CorporateCalendarIngestionRepository--><g id="elem_CorporateCalendarIngestionRepository"><rect codeLine="88" fill="#F1F1F1" height="188.875" id="CorporateCalendarIngestionRepository" rx="2.5" ry="2.5" style="stroke:#181818;stroke-width:0.5;" width="361" x="914.5" y="649"/><ellipse cx="967.25" cy="665" fill="#ADD1B2" rx="11" ry="11" style="stroke:#181818;stroke-width:1.0;"/><path d="M970.0156,660.875 Q970.1719,660.6563 970.3594,660.5469 Q970.5469,660.4375 970.7656,660.4375 Q971.1406,660.4375 971.375,660.6953 Q971.6094,660.9531 971.6094,661.5625 L971.6094,663.0156 Q971.6094,663.625 971.375,663.8906 Q971.1406,664.1563 970.7656,664.1563 Q970.4219,664.1563 970.2188,663.9531 Q970.0156,663.7656 969.9063,663.25 Q969.8594,662.8906 969.6719,662.7031 Q969.3438,662.3281 968.7344,662.1094 Q968.125,661.8906 967.5,661.8906 Q966.7344,661.8906 966.1016,662.2188 Q965.4688,662.5469 964.9766,663.2969 Q964.4844,664.0469 964.4844,665.0781 L964.4844,666.1719 Q964.4844,667.4063 965.375,668.2266 Q966.2656,669.0469 967.8594,669.0469 Q968.7969,669.0469 969.4531,668.7969 Q969.8438,668.6406 970.2656,668.2031 Q970.5313,667.9375 970.6797,667.8594 Q970.8281,667.7813 971.0313,667.7813 Q971.3594,667.7813 971.6172,668.0391 Q971.875,668.2969 971.875,668.6406 Q971.875,668.9844 971.5313,669.3906 Q971.0313,669.9688 970.2344,670.2969 Q969.1563,670.75 967.8594,670.75 Q966.3438,670.75 965.1406,670.125 Q964.1563,669.625 963.4688,668.5547 Q962.7813,667.4844 962.7813,666.2031 L962.7813,665.0469 Q962.7813,663.7188 963.3984,662.5703 Q964.0156,661.4219 965.1094,660.8047 Q966.2031,660.1875 967.4375,660.1875 Q968.1719,660.1875 968.8203,660.3516 Q969.4688,660.5156 970.0156,660.875 Z " fill="#000000"/><text fill="#000000" font-family="sans-serif" font-size="14" lengthAdjust="spacing" textLength="247" x="987.75" y="670.7285">CorporateCalendarIngestionRepository</text><line style="stroke:#181818;stroke-width:0.5;" x1="915.5" x2="1274.5" y1="681" y2="681"/><text fill="#000000" font-family="sans-serif" font-size="14" lengthAdjust="spacing" textLength="36" x="920.5" y="699.5332">-conn</text><line style="stroke:#181818;stroke-width:0.5;" x1="915.5" x2="1274.5" y1="706.6094" y2="706.6094"/><text fill="#000000" font-family="sans-serif" font-size="14" lengthAdjust="spacing" textLength="101" x="920.5" y="725.1426">+enqueue_job()</text><text fill="#000000" font-family="sans-serif" font-size="14" lengthAdjust="spacing" textLength="170" x="920.5" y="742.752">+claim_next_pending_job()</text><text fill="#000000" font-family="sans-serif" font-size="14" lengthAdjust="spacing" textLength="221" x="920.5" y="760.3613">+upsert_earnings_calendar_rows()</text><text fill="#000000" font-family="sans-serif" font-size="14" lengthAdjust="spacing" textLength="225" x="920.5" y="777.9707">+upsert_financial_statement_rows()</text><text fill="#000000" font-family="sans-serif" font-size="14" lengthAdjust="spacing" textLength="349" x="920.5" y="795.5801">+mark_fundamental_subscription_refresh_succeeded()</text><text fill="#000000" font-family="sans-serif" font-size="14" lengthAdjust="spacing" textLength="342" x="920.5" y="813.1895">+mark_fundamental_subscription_backfill_requested()</text><text fill="#000000" font-family="sans-serif" font-size="14" lengthAdjust="spacing" textLength="347" x="920.5" y="830.7988">+mark_fundamental_subscription_backfill_succeeded()</text></g><!--class FmpCorporateCalendarProvider--><g id="elem_FmpCorporateCalendarProvider"><rect codeLine="99" fill="#F1F1F1" height="136.0469" id="FmpCorporateCalendarProvider" rx="2.5" ry="2.5" style="stroke:#181818;stroke-width:0.5;" width="235" x="644.5" y="675.5"/><ellipse cx="659.5" cy="691.5" fill="#ADD1B2" rx="11" ry="11" style="stroke:#181818;stroke-width:1.0;"/><path d="M662.2656,687.375 Q662.4219,687.1563 662.6094,687.0469 Q662.7969,686.9375 663.0156,686.9375 Q663.3906,686.9375 663.625,687.1953 Q663.8594,687.4531 663.8594,688.0625 L663.8594,689.5156 Q663.8594,690.125 663.625,690.3906 Q663.3906,690.6563 663.0156,690.6563 Q662.6719,690.6563 662.4688,690.4531 Q662.2656,690.2656 662.1563,689.75 Q662.1094,689.3906 661.9219,689.2031 Q661.5938,688.8281 660.9844,688.6094 Q660.375,688.3906 659.75,688.3906 Q658.9844,688.3906 658.3516,688.7188 Q657.7188,689.0469 657.2266,689.7969 Q656.7344,690.5469 656.7344,691.5781 L656.7344,692.6719 Q656.7344,693.9063 657.625,694.7266 Q658.5156,695.5469 660.1094,695.5469 Q661.0469,695.5469 661.7031,695.2969 Q662.0938,695.1406 662.5156,694.7031 Q662.7813,694.4375 662.9297,694.3594 Q663.0781,694.2813 663.2813,694.2813 Q663.6094,694.2813 663.8672,694.5391 Q664.125,694.7969 664.125,695.1406 Q664.125,695.4844 663.7813,695.8906 Q663.2813,696.4688 662.4844,696.7969 Q661.4063,697.25 660.1094,697.25 Q658.5938,697.25 657.3906,696.625 Q656.4063,696.125 655.7188,695.0547 Q655.0313,693.9844 655.0313,692.7031 L655.0313,691.5469 Q655.0313,690.2188 655.6484,689.0703 Q656.2656,687.9219 657.3594,687.3047 Q658.4531,686.6875 659.6875,686.6875 Q660.4219,686.6875 661.0703,686.8516 Q661.7188,687.0156 662.2656,687.375 Z " fill="#000000"/><text fill="#000000" font-family="sans-serif" font-size="14" lengthAdjust="spacing" textLength="203" x="673.5" y="697.2285">FmpCorporateCalendarProvider</text><line style="stroke:#181818;stroke-width:0.5;" x1="645.5" x2="878.5" y1="707.5" y2="707.5"/><text fill="#000000" font-family="sans-serif" font-size="14" lengthAdjust="spacing" textLength="220" x="650.5" y="726.0332">-rate_limiter : InMemoryRateLimiter</text><text fill="#000000" font-family="sans-serif" font-size="14" lengthAdjust="spacing" textLength="214" x="650.5" y="743.6426">-rate_limit_policy : RateLimitPolicy</text><line style="stroke:#181818;stroke-width:0.5;" x1="645.5" x2="878.5" y1="750.7188" y2="750.7188"/><text fill="#000000" font-family="sans-serif" font-size="14" lengthAdjust="spacing" textLength="175" x="650.5" y="769.252">+fetch_earnings_calendar()</text><text fill="#000000" font-family="sans-serif" font-size="14" lengthAdjust="spacing" textLength="189" x="650.5" y="786.8613">+fetch_earnings_for_symbol()</text><text fill="#000000" font-family="sans-serif" font-size="14" lengthAdjust="spacing" textLength="190" x="650.5" y="804.4707">+fetch_quarterly_statements()</text></g><!--class FundamentalSubscriptionService--><g id="elem_FundamentalSubscriptionService"><rect codeLine="107" fill="#F1F1F1" height="118.4375" id="FundamentalSubscriptionService" rx="2.5" ry="2.5" style="stroke:#181818;stroke-width:0.5;" width="240" x="1027" y="239"/><ellipse cx="1042" cy="255" fill="#ADD1B2" rx="11" ry="11" style="stroke:#181818;stroke-width:1.0;"/><path d="M1044.7656,250.875 Q1044.9219,250.6563 1045.1094,250.5469 Q1045.2969,250.4375 1045.5156,250.4375 Q1045.8906,250.4375 1046.125,250.6953 Q1046.3594,250.9531 1046.3594,251.5625 L1046.3594,253.0156 Q1046.3594,253.625 1046.125,253.8906 Q1045.8906,254.1563 1045.5156,254.1563 Q1045.1719,254.1563 1044.9688,253.9531 Q1044.7656,253.7656 1044.6563,253.25 Q1044.6094,252.8906 1044.4219,252.7031 Q1044.0938,252.3281 1043.4844,252.1094 Q1042.875,251.8906 1042.25,251.8906 Q1041.4844,251.8906 1040.8516,252.2188 Q1040.2188,252.5469 1039.7266,253.2969 Q1039.2344,254.0469 1039.2344,255.0781 L1039.2344,256.1719 Q1039.2344,257.4063 1040.125,258.2266 Q1041.0156,259.0469 1042.6094,259.0469 Q1043.5469,259.0469 1044.2031,258.7969 Q1044.5938,258.6406 1045.0156,258.2031 Q1045.2813,257.9375 1045.4297,257.8594 Q1045.5781,257.7813 1045.7813,257.7813 Q1046.1094,257.7813 1046.3672,258.0391 Q1046.625,258.2969 1046.625,258.6406 Q1046.625,258.9844 1046.2813,259.3906 Q1045.7813,259.9688 1044.9844,260.2969 Q1043.9063,260.75 1042.6094,260.75 Q1041.0938,260.75 1039.8906,260.125 Q1038.9063,259.625 1038.2188,258.5547 Q1037.5313,257.4844 1037.5313,256.2031 L1037.5313,255.0469 Q1037.5313,253.7188 1038.1484,252.5703 Q1038.7656,251.4219 1039.8594,250.8047 Q1040.9531,250.1875 1042.1875,250.1875 Q1042.9219,250.1875 1043.5703,250.3516 Q1044.2188,250.5156 1044.7656,250.875 Z " fill="#000000"/><text fill="#000000" font-family="sans-serif" font-size="14" lengthAdjust="spacing" textLength="208" x="1056" y="260.7285">FundamentalSubscriptionService</text><line style="stroke:#181818;stroke-width:0.5;" x1="1028" x2="1266" y1="271" y2="271"/><text fill="#000000" font-family="sans-serif" font-size="14" lengthAdjust="spacing" textLength="36" x="1033" y="289.5332">-conn</text><line style="stroke:#181818;stroke-width:0.5;" x1="1028" x2="1266" y1="296.6094" y2="296.6094"/><text fill="#000000" font-family="sans-serif" font-size="14" lengthAdjust="spacing" textLength="132" x="1033" y="315.1426">+subscribe(asset_id)</text><text fill="#000000" font-family="sans-serif" font-size="14" lengthAdjust="spacing" textLength="148" x="1033" y="332.752">+unsubscribe(asset_id)</text><text fill="#000000" font-family="sans-serif" font-size="14" lengthAdjust="spacing" textLength="126" x="1033" y="350.3613">+list_subscriptions()</text></g><!--class LivePriceWorker--><g id="elem_LivePriceWorker"><rect codeLine="116" fill="#F1F1F1" height="118.4375" id="LivePriceWorker" rx="2.5" ry="2.5" style="stroke:#181818;stroke-width:0.5;" width="357" x="1924.5" y="453"/><ellipse cx="2046.75" cy="469" fill="#ADD1B2" rx="11" ry="11" style="stroke:#181818;stroke-width:1.0;"/><path d="M2049.5156,464.875 Q2049.6719,464.6563 2049.8594,464.5469 Q2050.0469,464.4375 2050.2656,464.4375 Q2050.6406,464.4375 2050.875,464.6953 Q2051.1094,464.9531 2051.1094,465.5625 L2051.1094,467.0156 Q2051.1094,467.625 2050.875,467.8906 Q2050.6406,468.1563 2050.2656,468.1563 Q2049.9219,468.1563 2049.7188,467.9531 Q2049.5156,467.7656 2049.4063,467.25 Q2049.3594,466.8906 2049.1719,466.7031 Q2048.8438,466.3281 2048.2344,466.1094 Q2047.625,465.8906 2047,465.8906 Q2046.2344,465.8906 2045.6016,466.2188 Q2044.9688,466.5469 2044.4766,467.2969 Q2043.9844,468.0469 2043.9844,469.0781 L2043.9844,470.1719 Q2043.9844,471.4063 2044.875,472.2266 Q2045.7656,473.0469 2047.3594,473.0469 Q2048.2969,473.0469 2048.9531,472.7969 Q2049.3438,472.6406 2049.7656,472.2031 Q2050.0313,471.9375 2050.1797,471.8594 Q2050.3281,471.7813 2050.5313,471.7813 Q2050.8594,471.7813 2051.1172,472.0391 Q2051.375,472.2969 2051.375,472.6406 Q2051.375,472.9844 2051.0313,473.3906 Q2050.5313,473.9688 2049.7344,474.2969 Q2048.6563,474.75 2047.3594,474.75 Q2045.8438,474.75 2044.6406,474.125 Q2043.6563,473.625 2042.9688,472.5547 Q2042.2813,471.4844 2042.2813,470.2031 L2042.2813,469.0469 Q2042.2813,467.7188 2042.8984,466.5703 Q2043.5156,465.4219 2044.6094,464.8047 Q2045.7031,464.1875 2046.9375,464.1875 Q2047.6719,464.1875 2048.3203,464.3516 Q2048.9688,464.5156 2049.5156,464.875 Z " fill="#000000"/><text fill="#000000" font-family="sans-serif" font-size="14" lengthAdjust="spacing" textLength="104" x="2067.25" y="474.7285">LivePriceWorker</text><line style="stroke:#181818;stroke-width:0.5;" x1="1925.5" x2="2280.5" y1="485" y2="485"/><text fill="#000000" font-family="sans-serif" font-size="14" lengthAdjust="spacing" textLength="260" x="1930.5" y="503.5332">-resolver : LivePriceSubscriptionResolver</text><text fill="#000000" font-family="sans-serif" font-size="14" lengthAdjust="spacing" textLength="172" x="1930.5" y="521.1426">-repo : LivePriceRepository</text><text fill="#000000" font-family="sans-serif" font-size="14" lengthAdjust="spacing" textLength="223" x="1930.5" y="538.752">-classifier : MarketSessionClassifier</text><line style="stroke:#181818;stroke-width:0.5;" x1="1925.5" x2="2280.5" y1="545.8281" y2="545.8281"/><text fill="#000000" font-family="sans-serif" font-size="14" lengthAdjust="spacing" textLength="345" x="1930.5" y="564.3613">+run_once(include_watchlist, enable_extended_hours)</text></g><!--class LivePriceSubscriptionResolver--><g id="elem_LivePriceSubscriptionResolver"><rect codeLine="123" fill="#F1F1F1" height="83.2188" id="LivePriceSubscriptionResolver" rx="2.5" ry="2.5" style="stroke:#181818;stroke-width:0.5;" width="371" x="1382.5" y="702"/><ellipse cx="1467.75" cy="718" fill="#ADD1B2" rx="11" ry="11" style="stroke:#181818;stroke-width:1.0;"/><path d="M1470.5156,713.875 Q1470.6719,713.6563 1470.8594,713.5469 Q1471.0469,713.4375 1471.2656,713.4375 Q1471.6406,713.4375 1471.875,713.6953 Q1472.1094,713.9531 1472.1094,714.5625 L1472.1094,716.0156 Q1472.1094,716.625 1471.875,716.8906 Q1471.6406,717.1563 1471.2656,717.1563 Q1470.9219,717.1563 1470.7188,716.9531 Q1470.5156,716.7656 1470.4063,716.25 Q1470.3594,715.8906 1470.1719,715.7031 Q1469.8438,715.3281 1469.2344,715.1094 Q1468.625,714.8906 1468,714.8906 Q1467.2344,714.8906 1466.6016,715.2188 Q1465.9688,715.5469 1465.4766,716.2969 Q1464.9844,717.0469 1464.9844,718.0781 L1464.9844,719.1719 Q1464.9844,720.4063 1465.875,721.2266 Q1466.7656,722.0469 1468.3594,722.0469 Q1469.2969,722.0469 1469.9531,721.7969 Q1470.3438,721.6406 1470.7656,721.2031 Q1471.0313,720.9375 1471.1797,720.8594 Q1471.3281,720.7813 1471.5313,720.7813 Q1471.8594,720.7813 1472.1172,721.0391 Q1472.375,721.2969 1472.375,721.6406 Q1472.375,721.9844 1472.0313,722.3906 Q1471.5313,722.9688 1470.7344,723.2969 Q1469.6563,723.75 1468.3594,723.75 Q1466.8438,723.75 1465.6406,723.125 Q1464.6563,722.625 1463.9688,721.5547 Q1463.2813,720.4844 1463.2813,719.2031 L1463.2813,718.0469 Q1463.2813,716.7188 1463.8984,715.5703 Q1464.5156,714.4219 1465.6094,713.8047 Q1466.7031,713.1875 1467.9375,713.1875 Q1468.6719,713.1875 1469.3203,713.3516 Q1469.9688,713.5156 1470.5156,713.875 Z " fill="#000000"/><text fill="#000000" font-family="sans-serif" font-size="14" lengthAdjust="spacing" textLength="192" x="1488.25" y="723.7285">LivePriceSubscriptionResolver</text><line style="stroke:#181818;stroke-width:0.5;" x1="1383.5" x2="1752.5" y1="734" y2="734"/><text fill="#000000" font-family="sans-serif" font-size="14" lengthAdjust="spacing" textLength="275" x="1388.5" y="752.5332">-ticker_universe : TickerUniverseRepository</text><line style="stroke:#181818;stroke-width:0.5;" x1="1383.5" x2="1752.5" y1="759.6094" y2="759.6094"/><text fill="#000000" font-family="sans-serif" font-size="14" lengthAdjust="spacing" textLength="359" x="1388.5" y="778.1426">+resolve(include_watchlist: bool) : list[TickerSubscription]</text></g><!--class MarketSessionClassifier--><g id="elem_MarketSessionClassifier"><rect codeLine="128" fill="#F1F1F1" height="83.2188" id="MarketSessionClassifier" rx="2.5" ry="2.5" style="stroke:#181818;stroke-width:0.5;" width="183" x="1788.5" y="702"/><ellipse cx="1803.5" cy="718" fill="#ADD1B2" rx="11" ry="11" style="stroke:#181818;stroke-width:1.0;"/><path d="M1806.2656,713.875 Q1806.4219,713.6563 1806.6094,713.5469 Q1806.7969,713.4375 1807.0156,713.4375 Q1807.3906,713.4375 1807.625,713.6953 Q1807.8594,713.9531 1807.8594,714.5625 L1807.8594,716.0156 Q1807.8594,716.625 1807.625,716.8906 Q1807.3906,717.1563 1807.0156,717.1563 Q1806.6719,717.1563 1806.4688,716.9531 Q1806.2656,716.7656 1806.1563,716.25 Q1806.1094,715.8906 1805.9219,715.7031 Q1805.5938,715.3281 1804.9844,715.1094 Q1804.375,714.8906 1803.75,714.8906 Q1802.9844,714.8906 1802.3516,715.2188 Q1801.7188,715.5469 1801.2266,716.2969 Q1800.7344,717.0469 1800.7344,718.0781 L1800.7344,719.1719 Q1800.7344,720.4063 1801.625,721.2266 Q1802.5156,722.0469 1804.1094,722.0469 Q1805.0469,722.0469 1805.7031,721.7969 Q1806.0938,721.6406 1806.5156,721.2031 Q1806.7813,720.9375 1806.9297,720.8594 Q1807.0781,720.7813 1807.2813,720.7813 Q1807.6094,720.7813 1807.8672,721.0391 Q1808.125,721.2969 1808.125,721.6406 Q1808.125,721.9844 1807.7813,722.3906 Q1807.2813,722.9688 1806.4844,723.2969 Q1805.4063,723.75 1804.1094,723.75 Q1802.5938,723.75 1801.3906,723.125 Q1800.4063,722.625 1799.7188,721.5547 Q1799.0313,720.4844 1799.0313,719.2031 L1799.0313,718.0469 Q1799.0313,716.7188 1799.6484,715.5703 Q1800.2656,714.4219 1801.3594,713.8047 Q1802.4531,713.1875 1803.6875,713.1875 Q1804.4219,713.1875 1805.0703,713.3516 Q1805.7188,713.5156 1806.2656,713.875 Z " fill="#000000"/><text fill="#000000" font-family="sans-serif" font-size="14" lengthAdjust="spacing" textLength="151" x="1817.5" y="723.7285">MarketSessionClassifier</text><line style="stroke:#181818;stroke-width:0.5;" x1="1789.5" x2="1970.5" y1="734" y2="734"/><text fill="#000000" font-family="sans-serif" font-size="14" lengthAdjust="spacing" textLength="36" x="1794.5" y="752.5332">-conn</text><line style="stroke:#181818;stroke-width:0.5;" x1="1789.5" x2="1970.5" y1="759.6094" y2="759.6094"/><text fill="#000000" font-family="sans-serif" font-size="14" lengthAdjust="spacing" textLength="144" x="1794.5" y="778.1426">+classify(now_utc) : str</text></g><!--class FinnhubWebSocketClient--><g id="elem_FinnhubWebSocketClient"><rect codeLine="133" fill="#F1F1F1" height="83.2188" id="FinnhubWebSocketClient" rx="2.5" ry="2.5" style="stroke:#181818;stroke-width:0.5;" width="192" x="2007" y="702"/><ellipse cx="2022" cy="718" fill="#ADD1B2" rx="11" ry="11" style="stroke:#181818;stroke-width:1.0;"/><path d="M2024.7656,713.875 Q2024.9219,713.6563 2025.1094,713.5469 Q2025.2969,713.4375 2025.5156,713.4375 Q2025.8906,713.4375 2026.125,713.6953 Q2026.3594,713.9531 2026.3594,714.5625 L2026.3594,716.0156 Q2026.3594,716.625 2026.125,716.8906 Q2025.8906,717.1563 2025.5156,717.1563 Q2025.1719,717.1563 2024.9688,716.9531 Q2024.7656,716.7656 2024.6563,716.25 Q2024.6094,715.8906 2024.4219,715.7031 Q2024.0938,715.3281 2023.4844,715.1094 Q2022.875,714.8906 2022.25,714.8906 Q2021.4844,714.8906 2020.8516,715.2188 Q2020.2188,715.5469 2019.7266,716.2969 Q2019.2344,717.0469 2019.2344,718.0781 L2019.2344,719.1719 Q2019.2344,720.4063 2020.125,721.2266 Q2021.0156,722.0469 2022.6094,722.0469 Q2023.5469,722.0469 2024.2031,721.7969 Q2024.5938,721.6406 2025.0156,721.2031 Q2025.2813,720.9375 2025.4297,720.8594 Q2025.5781,720.7813 2025.7813,720.7813 Q2026.1094,720.7813 2026.3672,721.0391 Q2026.625,721.2969 2026.625,721.6406 Q2026.625,721.9844 2026.2813,722.3906 Q2025.7813,722.9688 2024.9844,723.2969 Q2023.9063,723.75 2022.6094,723.75 Q2021.0938,723.75 2019.8906,723.125 Q2018.9063,722.625 2018.2188,721.5547 Q2017.5313,720.4844 2017.5313,719.2031 L2017.5313,718.0469 Q2017.5313,716.7188 2018.1484,715.5703 Q2018.7656,714.4219 2019.8594,713.8047 Q2020.9531,713.1875 2022.1875,713.1875 Q2022.9219,713.1875 2023.5703,713.3516 Q2024.2188,713.5156 2024.7656,713.875 Z " fill="#000000"/><text fill="#000000" font-family="sans-serif" font-size="14" lengthAdjust="spacing" textLength="160" x="2036" y="723.7285">FinnhubWebSocketClient</text><line style="stroke:#181818;stroke-width:0.5;" x1="2008" x2="2198" y1="734" y2="734"/><text fill="#000000" font-family="sans-serif" font-size="14" lengthAdjust="spacing" textLength="116" x="2013" y="752.5332">-max_symbols : int</text><line style="stroke:#181818;stroke-width:0.5;" x1="2008" x2="2198" y1="759.6094" y2="759.6094"/><text fill="#000000" font-family="sans-serif" font-size="14" lengthAdjust="spacing" textLength="165" x="2013" y="778.1426">+stream(symbols, on_tick)</text></g><!--class FmpExtendedHoursClient--><g id="elem_FmpExtendedHoursClient"><rect codeLine="138" fill="#F1F1F1" height="118.4375" id="FmpExtendedHoursClient" rx="2.5" ry="2.5" style="stroke:#181818;stroke-width:0.5;" width="393" x="2234.5" y="684.5"/><ellipse cx="2346.75" cy="700.5" fill="#ADD1B2" rx="11" ry="11" style="stroke:#181818;stroke-width:1.0;"/><path d="M2349.5156,696.375 Q2349.6719,696.1563 2349.8594,696.0469 Q2350.0469,695.9375 2350.2656,695.9375 Q2350.6406,695.9375 2350.875,696.1953 Q2351.1094,696.4531 2351.1094,697.0625 L2351.1094,698.5156 Q2351.1094,699.125 2350.875,699.3906 Q2350.6406,699.6563 2350.2656,699.6563 Q2349.9219,699.6563 2349.7188,699.4531 Q2349.5156,699.2656 2349.4063,698.75 Q2349.3594,698.3906 2349.1719,698.2031 Q2348.8438,697.8281 2348.2344,697.6094 Q2347.625,697.3906 2347,697.3906 Q2346.2344,697.3906 2345.6016,697.7188 Q2344.9688,698.0469 2344.4766,698.7969 Q2343.9844,699.5469 2343.9844,700.5781 L2343.9844,701.6719 Q2343.9844,702.9063 2344.875,703.7266 Q2345.7656,704.5469 2347.3594,704.5469 Q2348.2969,704.5469 2348.9531,704.2969 Q2349.3438,704.1406 2349.7656,703.7031 Q2350.0313,703.4375 2350.1797,703.3594 Q2350.3281,703.2813 2350.5313,703.2813 Q2350.8594,703.2813 2351.1172,703.5391 Q2351.375,703.7969 2351.375,704.1406 Q2351.375,704.4844 2351.0313,704.8906 Q2350.5313,705.4688 2349.7344,705.7969 Q2348.6563,706.25 2347.3594,706.25 Q2345.8438,706.25 2344.6406,705.625 Q2343.6563,705.125 2342.9688,704.0547 Q2342.2813,702.9844 2342.2813,701.7031 L2342.2813,700.5469 Q2342.2813,699.2188 2342.8984,698.0703 Q2343.5156,696.9219 2344.6094,696.3047 Q2345.7031,695.6875 2346.9375,695.6875 Q2347.6719,695.6875 2348.3203,695.8516 Q2348.9688,696.0156 2349.5156,696.375 Z " fill="#000000"/><text fill="#000000" font-family="sans-serif" font-size="14" lengthAdjust="spacing" textLength="160" x="2367.25" y="706.2285">FmpExtendedHoursClient</text><line style="stroke:#181818;stroke-width:0.5;" x1="2235.5" x2="2626.5" y1="716.5" y2="716.5"/><text fill="#000000" font-family="sans-serif" font-size="14" lengthAdjust="spacing" textLength="220" x="2240.5" y="735.0332">-rate_limiter : InMemoryRateLimiter</text><text fill="#000000" font-family="sans-serif" font-size="14" lengthAdjust="spacing" textLength="214" x="2240.5" y="752.6426">-rate_limit_policy : RateLimitPolicy</text><text fill="#000000" font-family="sans-serif" font-size="14" lengthAdjust="spacing" textLength="201" x="2240.5" y="770.252">-max_symbols_per_request : int</text><line style="stroke:#181818;stroke-width:0.5;" x1="2235.5" x2="2626.5" y1="777.3281" y2="777.3281"/><text fill="#000000" font-family="sans-serif" font-size="14" lengthAdjust="spacing" textLength="381" x="2240.5" y="795.8613">+fetch_batch_aftermarket_quotes(symbols, market_session)</text></g><!--class LivePriceRepository--><g id="elem_LivePriceRepository"><rect codeLine="145" fill="#F1F1F1" height="118.4375" id="LivePriceRepository" rx="2.5" ry="2.5" style="stroke:#181818;stroke-width:0.5;" width="175" x="2662.5" y="684.5"/><ellipse cx="2685.15" cy="700.5" fill="#ADD1B2" rx="11" ry="11" style="stroke:#181818;stroke-width:1.0;"/><path d="M2687.9156,696.375 Q2688.0719,696.1563 2688.2594,696.0469 Q2688.4469,695.9375 2688.6656,695.9375 Q2689.0406,695.9375 2689.275,696.1953 Q2689.5094,696.4531 2689.5094,697.0625 L2689.5094,698.5156 Q2689.5094,699.125 2689.275,699.3906 Q2689.0406,699.6563 2688.6656,699.6563 Q2688.3219,699.6563 2688.1188,699.4531 Q2687.9156,699.2656 2687.8063,698.75 Q2687.7594,698.3906 2687.5719,698.2031 Q2687.2438,697.8281 2686.6344,697.6094 Q2686.025,697.3906 2685.4,697.3906 Q2684.6344,697.3906 2684.0016,697.7188 Q2683.3688,698.0469 2682.8766,698.7969 Q2682.3844,699.5469 2682.3844,700.5781 L2682.3844,701.6719 Q2682.3844,702.9063 2683.275,703.7266 Q2684.1656,704.5469 2685.7594,704.5469 Q2686.6969,704.5469 2687.3531,704.2969 Q2687.7438,704.1406 2688.1656,703.7031 Q2688.4313,703.4375 2688.5797,703.3594 Q2688.7281,703.2813 2688.9313,703.2813 Q2689.2594,703.2813 2689.5172,703.5391 Q2689.775,703.7969 2689.775,704.1406 Q2689.775,704.4844 2689.4313,704.8906 Q2688.9313,705.4688 2688.1344,705.7969 Q2687.0563,706.25 2685.7594,706.25 Q2684.2438,706.25 2683.0406,705.625 Q2682.0563,705.125 2681.3688,704.0547 Q2680.6813,702.9844 2680.6813,701.7031 L2680.6813,700.5469 Q2680.6813,699.2188 2681.2984,698.0703 Q2681.9156,696.9219 2683.0094,696.3047 Q2684.1031,695.6875 2685.3375,695.6875 Q2686.0719,695.6875 2686.7203,695.8516 Q2687.3688,696.0156 2687.9156,696.375 Z " fill="#000000"/><text fill="#000000" font-family="sans-serif" font-size="14" lengthAdjust="spacing" textLength="126" x="2700.85" y="706.2285">LivePriceRepository</text><line style="stroke:#181818;stroke-width:0.5;" x1="2663.5" x2="2836.5" y1="716.5" y2="716.5"/><text fill="#000000" font-family="sans-serif" font-size="14" lengthAdjust="spacing" textLength="36" x="2668.5" y="735.0332">-conn</text><line style="stroke:#181818;stroke-width:0.5;" x1="2663.5" x2="2836.5" y1="742.1094" y2="742.1094"/><text fill="#000000" font-family="sans-serif" font-size="14" lengthAdjust="spacing" textLength="77" x="2668.5" y="760.6426">+save_tick()</text><text fill="#000000" font-family="sans-serif" font-size="14" lengthAdjust="spacing" textLength="163" x="2668.5" y="778.252">+mark_provider_healthy()</text><text fill="#000000" font-family="sans-serif" font-size="14" lengthAdjust="spacing" textLength="148" x="2668.5" y="795.8613">+mark_provider_error()</text></g><!--class IndexProvider--><g id="elem_IndexProvider"><rect codeLine="154" fill="#F1F1F1" height="100.8281" id="IndexProvider" rx="2.5" ry="2.5" style="stroke:#181818;stroke-width:0.5;" width="155" x="3065.5" y="461.5"/><ellipse cx="3097.15" cy="477.5" fill="#B4A7E5" rx="11" ry="11" style="stroke:#181818;stroke-width:1.0;"/><path d="M3098.1031,474.1406 L3098.1031,480.7969 L3099.8219,480.7969 Q3100.4313,480.7969 3100.6969,481.0313 Q3100.9625,481.2656 3100.9625,481.6563 Q3100.9625,482.0313 3100.6969,482.2656 Q3100.4313,482.5 3099.8219,482.5 L3094.6813,482.5 Q3094.0719,482.5 3093.8063,482.2656 Q3093.5406,482.0313 3093.5406,481.6406 Q3093.5406,481.2656 3093.8063,481.0313 Q3094.0719,480.7969 3094.6813,480.7969 L3096.4,480.7969 L3096.4,474.1406 L3094.6813,474.1406 Q3094.0719,474.1406 3093.8063,473.9063 Q3093.5406,473.6719 3093.5406,473.2813 Q3093.5406,472.9063 3093.8063,472.6719 Q3094.0719,472.4375 3094.6813,472.4375 L3099.8219,472.4375 Q3100.4313,472.4375 3100.6969,472.6719 Q3100.9625,472.9063 3100.9625,473.2813 Q3100.9625,473.6719 3100.6969,473.9063 Q3100.4313,474.1406 3099.8219,474.1406 L3098.1031,474.1406 Z " fill="#000000"/><text fill="#000000" font-family="sans-serif" font-size="14" font-style="italic" lengthAdjust="spacing" textLength="86" x="3114.85" y="483.2285">IndexProvider</text><line style="stroke:#181818;stroke-width:0.5;" x1="3066.5" x2="3219.5" y1="493.5" y2="493.5"/><line style="stroke:#181818;stroke-width:0.5;" x1="3066.5" x2="3219.5" y1="501.5" y2="501.5"/><text fill="#000000" font-family="sans-serif" font-size="14" lengthAdjust="spacing" textLength="121" x="3071.5" y="520.0332">+get_daily_prices()</text><text fill="#000000" font-family="sans-serif" font-size="14" lengthAdjust="spacing" textLength="143" x="3071.5" y="537.6426">+get_intraday_prices()</text><text fill="#000000" font-family="sans-serif" font-size="14" lengthAdjust="spacing" textLength="122" x="3071.5" y="555.252">+get_constituents()</text></g><!--class BenchmarkIndexIngestionService--><g id="elem_BenchmarkIndexIngestionService"><rect codeLine="160" fill="#F1F1F1" height="153.6563" id="BenchmarkIndexIngestionService" rx="2.5" ry="2.5" style="stroke:#181818;stroke-width:0.5;" width="276" x="3005" y="221"/><ellipse cx="3036.2" cy="237" fill="#ADD1B2" rx="11" ry="11" style="stroke:#181818;stroke-width:1.0;"/><path d="M3038.9656,232.875 Q3039.1219,232.6563 3039.3094,232.5469 Q3039.4969,232.4375 3039.7156,232.4375 Q3040.0906,232.4375 3040.325,232.6953 Q3040.5594,232.9531 3040.5594,233.5625 L3040.5594,235.0156 Q3040.5594,235.625 3040.325,235.8906 Q3040.0906,236.1563 3039.7156,236.1563 Q3039.3719,236.1563 3039.1688,235.9531 Q3038.9656,235.7656 3038.8563,235.25 Q3038.8094,234.8906 3038.6219,234.7031 Q3038.2938,234.3281 3037.6844,234.1094 Q3037.075,233.8906 3036.45,233.8906 Q3035.6844,233.8906 3035.0516,234.2188 Q3034.4188,234.5469 3033.9266,235.2969 Q3033.4344,236.0469 3033.4344,237.0781 L3033.4344,238.1719 Q3033.4344,239.4063 3034.325,240.2266 Q3035.2156,241.0469 3036.8094,241.0469 Q3037.7469,241.0469 3038.4031,240.7969 Q3038.7938,240.6406 3039.2156,240.2031 Q3039.4813,239.9375 3039.6297,239.8594 Q3039.7781,239.7813 3039.9813,239.7813 Q3040.3094,239.7813 3040.5672,240.0391 Q3040.825,240.2969 3040.825,240.6406 Q3040.825,240.9844 3040.4813,241.3906 Q3039.9813,241.9688 3039.1844,242.2969 Q3038.1063,242.75 3036.8094,242.75 Q3035.2938,242.75 3034.0906,242.125 Q3033.1063,241.625 3032.4188,240.5547 Q3031.7313,239.4844 3031.7313,238.2031 L3031.7313,237.0469 Q3031.7313,235.7188 3032.3484,234.5703 Q3032.9656,233.4219 3034.0594,232.8047 Q3035.1531,232.1875 3036.3875,232.1875 Q3037.1219,232.1875 3037.7703,232.3516 Q3038.4188,232.5156 3038.9656,232.875 Z " fill="#000000"/><text fill="#000000" font-family="sans-serif" font-size="14" lengthAdjust="spacing" textLength="208" x="3053.8" y="242.7285">BenchmarkIndexIngestionService</text><line style="stroke:#181818;stroke-width:0.5;" x1="3006" x2="3280" y1="253" y2="253"/><text fill="#000000" font-family="sans-serif" font-size="14" lengthAdjust="spacing" textLength="264" x="3011" y="271.5332">-provider_registry : dict[str, IndexProvider]</text><line style="stroke:#181818;stroke-width:0.5;" x1="3006" x2="3280" y1="278.6094" y2="278.6094"/><text fill="#000000" font-family="sans-serif" font-size="14" lengthAdjust="spacing" textLength="140" x="3011" y="297.1426">+seed_all_universes()</text><text fill="#000000" font-family="sans-serif" font-size="14" lengthAdjust="spacing" textLength="146" x="3011" y="314.752">+refresh_daily_prices()</text><text fill="#000000" font-family="sans-serif" font-size="14" lengthAdjust="spacing" textLength="168" x="3011" y="332.3613">+refresh_intraday_prices()</text><text fill="#000000" font-family="sans-serif" font-size="14" lengthAdjust="spacing" textLength="146" x="3011" y="349.9707">+refresh_composition()</text><text fill="#000000" font-family="sans-serif" font-size="14" lengthAdjust="spacing" textLength="162" x="3011" y="367.5801">+compute_daily_metrics()</text></g><!--class BenchmarkIndexScheduler--><g id="elem_BenchmarkIndexScheduler"><rect codeLine="169" fill="#F1F1F1" height="118.4375" id="BenchmarkIndexScheduler" rx="2.5" ry="2.5" style="stroke:#181818;stroke-width:0.5;" width="282" x="3002" y="43"/><ellipse cx="3054.75" cy="59" fill="#ADD1B2" rx="11" ry="11" style="stroke:#181818;stroke-width:1.0;"/><path d="M3057.5156,54.875 Q3057.6719,54.6563 3057.8594,54.5469 Q3058.0469,54.4375 3058.2656,54.4375 Q3058.6406,54.4375 3058.875,54.6953 Q3059.1094,54.9531 3059.1094,55.5625 L3059.1094,57.0156 Q3059.1094,57.625 3058.875,57.8906 Q3058.6406,58.1563 3058.2656,58.1563 Q3057.9219,58.1563 3057.7188,57.9531 Q3057.5156,57.7656 3057.4063,57.25 Q3057.3594,56.8906 3057.1719,56.7031 Q3056.8438,56.3281 3056.2344,56.1094 Q3055.625,55.8906 3055,55.8906 Q3054.2344,55.8906 3053.6016,56.2188 Q3052.9688,56.5469 3052.4766,57.2969 Q3051.9844,58.0469 3051.9844,59.0781 L3051.9844,60.1719 Q3051.9844,61.4063 3052.875,62.2266 Q3053.7656,63.0469 3055.3594,63.0469 Q3056.2969,63.0469 3056.9531,62.7969 Q3057.3438,62.6406 3057.7656,62.2031 Q3058.0313,61.9375 3058.1797,61.8594 Q3058.3281,61.7813 3058.5313,61.7813 Q3058.8594,61.7813 3059.1172,62.0391 Q3059.375,62.2969 3059.375,62.6406 Q3059.375,62.9844 3059.0313,63.3906 Q3058.5313,63.9688 3057.7344,64.2969 Q3056.6563,64.75 3055.3594,64.75 Q3053.8438,64.75 3052.6406,64.125 Q3051.6563,63.625 3050.9688,62.5547 Q3050.2813,61.4844 3050.2813,60.2031 L3050.2813,59.0469 Q3050.2813,57.7188 3050.8984,56.5703 Q3051.5156,55.4219 3052.6094,54.8047 Q3053.7031,54.1875 3054.9375,54.1875 Q3055.6719,54.1875 3056.3203,54.3516 Q3056.9688,54.5156 3057.5156,54.875 Z " fill="#000000"/><text fill="#000000" font-family="sans-serif" font-size="14" lengthAdjust="spacing" textLength="168" x="3075.25" y="64.7285">BenchmarkIndexScheduler</text><line style="stroke:#181818;stroke-width:0.5;" x1="3003" x2="3283" y1="75" y2="75"/><text fill="#000000" font-family="sans-serif" font-size="14" lengthAdjust="spacing" textLength="270" x="3008" y="93.5332">-service : BenchmarkIndexIngestionService</text><line style="stroke:#181818;stroke-width:0.5;" x1="3003" x2="3283" y1="100.6094" y2="100.6094"/><text fill="#000000" font-family="sans-serif" font-size="14" lengthAdjust="spacing" textLength="165" x="3008" y="119.1426">+run_core_daily_refresh()</text><text fill="#000000" font-family="sans-serif" font-size="14" lengthAdjust="spacing" textLength="197" x="3008" y="136.752">+run_non_core_daily_refresh()</text><text fill="#000000" font-family="sans-serif" font-size="14" lengthAdjust="spacing" textLength="243" x="3008" y="154.3613">+run_non_core_composition_refresh()</text></g><!--class FMPIndexProvider--><g id="elem_FMPIndexProvider"><rect codeLine="176" fill="#F1F1F1" height="136.0469" id="FMPIndexProvider" rx="2.5" ry="2.5" style="stroke:#181818;stroke-width:0.5;" width="232" x="2894" y="675.5"/><ellipse cx="2948.25" cy="691.5" fill="#ADD1B2" rx="11" ry="11" style="stroke:#181818;stroke-width:1.0;"/><path d="M2951.0156,687.375 Q2951.1719,687.1563 2951.3594,687.0469 Q2951.5469,686.9375 2951.7656,686.9375 Q2952.1406,686.9375 2952.375,687.1953 Q2952.6094,687.4531 2952.6094,688.0625 L2952.6094,689.5156 Q2952.6094,690.125 2952.375,690.3906 Q2952.1406,690.6563 2951.7656,690.6563 Q2951.4219,690.6563 2951.2188,690.4531 Q2951.0156,690.2656 2950.9063,689.75 Q2950.8594,689.3906 2950.6719,689.2031 Q2950.3438,688.8281 2949.7344,688.6094 Q2949.125,688.3906 2948.5,688.3906 Q2947.7344,688.3906 2947.1016,688.7188 Q2946.4688,689.0469 2945.9766,689.7969 Q2945.4844,690.5469 2945.4844,691.5781 L2945.4844,692.6719 Q2945.4844,693.9063 2946.375,694.7266 Q2947.2656,695.5469 2948.8594,695.5469 Q2949.7969,695.5469 2950.4531,695.2969 Q2950.8438,695.1406 2951.2656,694.7031 Q2951.5313,694.4375 2951.6797,694.3594 Q2951.8281,694.2813 2952.0313,694.2813 Q2952.3594,694.2813 2952.6172,694.5391 Q2952.875,694.7969 2952.875,695.1406 Q2952.875,695.4844 2952.5313,695.8906 Q2952.0313,696.4688 2951.2344,696.7969 Q2950.1563,697.25 2948.8594,697.25 Q2947.3438,697.25 2946.1406,696.625 Q2945.1563,696.125 2944.4688,695.0547 Q2943.7813,693.9844 2943.7813,692.7031 L2943.7813,691.5469 Q2943.7813,690.2188 2944.3984,689.0703 Q2945.0156,687.9219 2946.1094,687.3047 Q2947.2031,686.6875 2948.4375,686.6875 Q2949.1719,686.6875 2949.8203,686.8516 Q2950.4688,687.0156 2951.0156,687.375 Z " fill="#000000"/><text fill="#000000" font-family="sans-serif" font-size="14" lengthAdjust="spacing" textLength="115" x="2968.75" y="697.2285">FMPIndexProvider</text><line style="stroke:#181818;stroke-width:0.5;" x1="2895" x2="3125" y1="707.5" y2="707.5"/><text fill="#000000" font-family="sans-serif" font-size="14" lengthAdjust="spacing" textLength="220" x="2900" y="726.0332">-rate_limiter : InMemoryRateLimiter</text><text fill="#000000" font-family="sans-serif" font-size="14" lengthAdjust="spacing" textLength="214" x="2900" y="743.6426">-rate_limit_policy : RateLimitPolicy</text><line style="stroke:#181818;stroke-width:0.5;" x1="2895" x2="3125" y1="750.7188" y2="750.7188"/><text fill="#000000" font-family="sans-serif" font-size="14" lengthAdjust="spacing" textLength="121" x="2900" y="769.252">+get_daily_prices()</text><text fill="#000000" font-family="sans-serif" font-size="14" lengthAdjust="spacing" textLength="143" x="2900" y="786.8613">+get_intraday_prices()</text><text fill="#000000" font-family="sans-serif" font-size="14" lengthAdjust="spacing" textLength="122" x="2900" y="804.4707">+get_constituents()</text></g><!--class YFinanceIndexProvider--><g id="elem_YFinanceIndexProvider"><rect codeLine="184" fill="#F1F1F1" height="118.4375" id="YFinanceIndexProvider" rx="2.5" ry="2.5" style="stroke:#181818;stroke-width:0.5;" width="232" x="3161" y="684.5"/><ellipse cx="3200.3" cy="700.5" fill="#ADD1B2" rx="11" ry="11" style="stroke:#181818;stroke-width:1.0;"/><path d="M3203.0656,696.375 Q3203.2219,696.1563 3203.4094,696.0469 Q3203.5969,695.9375 3203.8156,695.9375 Q3204.1906,695.9375 3204.425,696.1953 Q3204.6594,696.4531 3204.6594,697.0625 L3204.6594,698.5156 Q3204.6594,699.125 3204.425,699.3906 Q3204.1906,699.6563 3203.8156,699.6563 Q3203.4719,699.6563 3203.2688,699.4531 Q3203.0656,699.2656 3202.9563,698.75 Q3202.9094,698.3906 3202.7219,698.2031 Q3202.3938,697.8281 3201.7844,697.6094 Q3201.175,697.3906 3200.55,697.3906 Q3199.7844,697.3906 3199.1516,697.7188 Q3198.5188,698.0469 3198.0266,698.7969 Q3197.5344,699.5469 3197.5344,700.5781 L3197.5344,701.6719 Q3197.5344,702.9063 3198.425,703.7266 Q3199.3156,704.5469 3200.9094,704.5469 Q3201.8469,704.5469 3202.5031,704.2969 Q3202.8938,704.1406 3203.3156,703.7031 Q3203.5813,703.4375 3203.7297,703.3594 Q3203.8781,703.2813 3204.0813,703.2813 Q3204.4094,703.2813 3204.6672,703.5391 Q3204.925,703.7969 3204.925,704.1406 Q3204.925,704.4844 3204.5813,704.8906 Q3204.0813,705.4688 3203.2844,705.7969 Q3202.2063,706.25 3200.9094,706.25 Q3199.3938,706.25 3198.1906,705.625 Q3197.2063,705.125 3196.5188,704.0547 Q3195.8313,702.9844 3195.8313,701.7031 L3195.8313,700.5469 Q3195.8313,699.2188 3196.4484,698.0703 Q3197.0656,696.9219 3198.1594,696.3047 Q3199.2531,695.6875 3200.4875,695.6875 Q3201.2219,695.6875 3201.8703,695.8516 Q3202.5188,696.0156 3203.0656,696.375 Z " fill="#000000"/><text fill="#000000" font-family="sans-serif" font-size="14" lengthAdjust="spacing" textLength="146" x="3219.7" y="706.2285">YFinanceIndexProvider</text><line style="stroke:#181818;stroke-width:0.5;" x1="3162" x2="3392" y1="716.5" y2="716.5"/><text fill="#000000" font-family="sans-serif" font-size="14" lengthAdjust="spacing" textLength="220" x="3167" y="735.0332">-rate_limiter : InMemoryRateLimiter</text><text fill="#000000" font-family="sans-serif" font-size="14" lengthAdjust="spacing" textLength="214" x="3167" y="752.6426">-rate_limit_policy : RateLimitPolicy</text><line style="stroke:#181818;stroke-width:0.5;" x1="3162" x2="3392" y1="759.7188" y2="759.7188"/><text fill="#000000" font-family="sans-serif" font-size="14" lengthAdjust="spacing" textLength="121" x="3167" y="778.252">+get_daily_prices()</text><text fill="#000000" font-family="sans-serif" font-size="14" lengthAdjust="spacing" textLength="143" x="3167" y="795.8613">+get_intraday_prices()</text></g><!--link TickerUniverseRepository to PriceHistoryIngestionService--><g id="link_TickerUniverseRepository_PriceHistoryIngestionService"><path codeLine="192" d="M1229.47,981.83 C1013.67,969.42 703.09,938.47 612,862 C535.47,797.75 575.37,742.46 540,649 C500.63,544.98 451.7101,431.5103 421.2901,362.5003 " fill="none" id="TickerUniverseRepository-to-PriceHistoryIngestionService" style="stroke:#181818;stroke-width:1.0;stroke-dasharray:7.0,7.0;"/><polygon fill="#181818" points="418.87,357.01,418.84,366.8588,420.8868,361.5852,426.1604,363.632,418.87,357.01" style="stroke:#181818;stroke-width:1.0;"/></g><!--link TickerUniverseRepository to CorporateCalendarScheduler--><g id="link_TickerUniverseRepository_CorporateCalendarScheduler"><path codeLine="193" d="M1395.05,913.88 C1384.65,897.21 1374.38,879.35 1366,862 C1322.48,771.89 1347.47,732.95 1293,649 C1279.14,627.64 1265.5021,611.5325 1246.9721,593.4325 " fill="none" id="TickerUniverseRepository-to-CorporateCalendarScheduler" style="stroke:#181818;stroke-width:1.0;"/><polygon fill="#181818" points="1242.68,589.24,1246.3232,598.3903,1246.2568,592.7338,1251.9133,592.6674,1242.68,589.24" style="stroke:#181818;stroke-width:1.0;"/></g><!--link TickerUniverseRepository to LivePriceSubscriptionResolver--><g id="link_TickerUniverseRepository_LivePriceSubscriptionResolver"><path codeLine="194" d="M1485.31,913.67 C1506.1,871.14 1528.5051,825.2905 1545.5451,790.4305 " fill="none" id="TickerUniverseRepository-to-LivePriceSubscriptionResolver" style="stroke:#181818;stroke-width:1.0;"/><polygon fill="#181818" points="1548.18,785.04,1540.634,791.3691,1545.9842,789.5321,1547.8213,794.8823,1548.18,785.04" style="stroke:#181818;stroke-width:1.0;"/></g><!--link PriceHistoryIngestionService to PriceHistoryIngestionRepository--><g id="link_PriceHistoryIngestionService_PriceHistoryIngestionRepository"><path codeLine="196" d="M394.71,357.44 C396.89,431.65 400.4943,554.6126 403.0743,642.6726 " fill="none" id="PriceHistoryIngestionService-to-PriceHistoryIngestionRepository" style="stroke:#181818;stroke-width:1.0;"/><polygon fill="#181818" points="403.25,648.67,406.9847,639.5567,403.1036,643.6721,398.9881,639.791,403.25,648.67" style="stroke:#181818;stroke-width:1.0;"/></g><!--link PriceHistoryIngestionService to PriceHistoryBackfillWorker--><g id="link_PriceHistoryIngestionService_PriceHistoryBackfillWorker"><path codeLine="197" d="M351.26,357.21 C327.89,389.82 302.5365,425.1741 280.2065,456.3141 " fill="none" id="PriceHistoryIngestionService-to-PriceHistoryBackfillWorker" style="stroke:#181818;stroke-width:1.0;"/><polygon fill="#181818" points="276.71,461.19,285.2053,456.2071,279.6237,457.1267,278.7041,451.5451,276.71,461.19" style="stroke:#181818;stroke-width:1.0;"/></g><!--link PriceHistoryBackfillWorker to YahooPriceProvider--><g id="link_PriceHistoryBackfillWorker_YahooPriceProvider"><path codeLine="198" d="M218.99,562.52 C204.35,595.46 187.3774,633.6574 171.3374,669.7374 " fill="none" id="PriceHistoryBackfillWorker-to-YahooPriceProvider" style="stroke:#181818;stroke-width:1.0;"/><polygon fill="#181818" points="168.9,675.22,176.2112,668.621,170.9312,670.6512,168.901,665.3711,168.9,675.22" style="stroke:#181818;stroke-width:1.0;"/></g><!--link PriceHistoryBackfillWorker to PriceHistoryIngestionRepository--><g id="link_PriceHistoryBackfillWorker_PriceHistoryIngestionRepository"><path codeLine="199" d="M276.6,562.52 C294.69,587.68 313.7976,614.2483 335.0276,643.7783 " fill="none" id="PriceHistoryBackfillWorker-to-PriceHistoryIngestionRepository" style="stroke:#181818;stroke-width:1.0;"/><polygon fill="#181818" points="338.53,648.65,336.5242,639.0076,335.6113,644.5903,330.0286,643.6774,338.53,648.65" style="stroke:#181818;stroke-width:1.0;"/></g><!--link CorporateCalendarIngestionService to CorporateCalendarScheduler--><g id="link_CorporateCalendarIngestionService_CorporateCalendarScheduler"><path codeLine="201" d="M931.19,375.24 C962.04,394.65 990.122,412.304 1020.962,431.714 " fill="none" id="CorporateCalendarIngestionService-to-CorporateCalendarScheduler" style="stroke:#181818;stroke-width:1.0;"/><polygon fill="#181818" points="1026.04,434.91,1020.5537,426.7307,1021.8084,432.2467,1016.2924,433.5014,1026.04,434.91" style="stroke:#181818;stroke-width:1.0;"/></g><!--link CorporateCalendarIngestionService to CorporateCalendarWorker--><g id="link_CorporateCalendarIngestionService_CorporateCalendarWorker"><path codeLine="202" d="M799.57,375.24 C795.66,403.85 792.1228,429.6553 788.6228,455.2553 " fill="none" id="CorporateCalendarIngestionService-to-CorporateCalendarWorker" style="stroke:#181818;stroke-width:1.0;"/><polygon fill="#181818" points="787.81,461.2,792.9923,452.8248,788.4873,456.2461,785.066,451.7411,787.81,461.2" style="stroke:#181818;stroke-width:1.0;"/></g><!--link CorporateCalendarWorker to FmpCorporateCalendarProvider--><g id="link_CorporateCalendarWorker_FmpCorporateCalendarProvider"><path codeLine="203" d="M776.9,562.52 C774.17,595.46 771.0555,633.1605 768.0655,669.2405 " fill="none" id="CorporateCalendarWorker-to-FmpCorporateCalendarProvider" style="stroke:#181818;stroke-width:1.0;"/><polygon fill="#181818" points="767.57,675.22,772.2996,666.5811,767.9829,670.2371,764.327,665.9204,767.57,675.22" style="stroke:#181818;stroke-width:1.0;"/></g><!--link CorporateCalendarWorker to CorporateCalendarIngestionRepository--><g id="link_CorporateCalendarWorker_CorporateCalendarIngestionRepository"><path codeLine="204" d="M848.75,562.52 C883.27,587.75 921.5757,615.7498 962.0657,645.3398 " fill="none" id="CorporateCalendarWorker-to-CorporateCalendarIngestionRepository" style="stroke:#181818;stroke-width:1.0;"/><polygon fill="#181818" points="966.91,648.88,962.0037,640.3402,962.8731,645.9298,957.2835,646.7992,966.91,648.88" style="stroke:#181818;stroke-width:1.0;"/></g><!--link CorporateCalendarScheduler to CorporateCalendarIngestionRepository--><g id="link_CorporateCalendarScheduler_CorporateCalendarIngestionRepository"><path codeLine="205" d="M1129.76,589.1 C1125.44,608.15 1122.0869,622.9586 1117.5969,642.7586 " fill="none" id="CorporateCalendarScheduler-to-CorporateCalendarIngestionRepository" style="stroke:#181818;stroke-width:1.0;"/><polygon fill="#181818" points="1116.27,648.61,1122.1613,640.7175,1117.3758,643.7338,1114.3594,638.9482,1116.27,648.61" style="stroke:#181818;stroke-width:1.0;"/></g><!--link FundamentalSubscriptionService to CorporateCalendarScheduler--><g id="link_FundamentalSubscriptionService_CorporateCalendarScheduler"><path codeLine="206" d="M1147,357.21 C1147,381.11 1147,403.12 1147,428.63 " fill="none" id="FundamentalSubscriptionService-to-CorporateCalendarScheduler" style="stroke:#181818;stroke-width:1.0;stroke-dasharray:7.0,7.0;"/><polygon fill="#181818" points="1147,434.63,1151,425.63,1147,429.63,1143,425.63,1147,434.63" style="stroke:#181818;stroke-width:1.0;"/></g><!--link LivePriceWorker to LivePriceSubscriptionResolver--><g id="link_LivePriceWorker_LivePriceSubscriptionResolver"><path codeLine="208" d="M1957.4,571.07 C1899.19,594.7 1831.69,622.61 1771,649 C1732.39,665.79 1695.4906,682.6102 1659.5106,699.3402 " fill="none" id="LivePriceWorker-to-LivePriceSubscriptionResolver" style="stroke:#181818;stroke-width:1.0;"/><polygon fill="#181818" points="1654.07,701.87,1663.9174,701.7024,1658.6038,699.7619,1660.5444,694.4483,1654.07,701.87" style="stroke:#181818;stroke-width:1.0;"/></g><!--link LivePriceWorker to MarketSessionClassifier--><g id="link_LivePriceWorker_MarketSessionClassifier"><path codeLine="209" d="M2046.44,571.21 C2006.83,611.98 1959.0611,661.1367 1923.8111,697.4167 " fill="none" id="LivePriceWorker-to-MarketSessionClassifier" style="stroke:#181818;stroke-width:1.0;"/><polygon fill="#181818" points="1919.63,701.72,1928.7705,698.0525,1923.1143,698.1339,1923.0328,692.4777,1919.63,701.72" style="stroke:#181818;stroke-width:1.0;"/></g><!--link LivePriceWorker to FinnhubWebSocketClient--><g id="link_LivePriceWorker_FinnhubWebSocketClient"><path codeLine="210" d="M2103,571.21 C2103,611.98 2103,659.44 2103,695.72 " fill="none" id="LivePriceWorker-to-FinnhubWebSocketClient" style="stroke:#181818;stroke-width:1.0;"/><polygon fill="#181818" points="2103,701.72,2107,692.72,2103,696.72,2099,692.72,2103,701.72" style="stroke:#181818;stroke-width:1.0;"/></g><!--link LivePriceWorker to FmpExtendedHoursClient--><g id="link_LivePriceWorker_FmpExtendedHoursClient"><path codeLine="211" d="M2186.19,571.21 C2235.73,605.87 2293.464,646.2602 2342.984,680.9102 " fill="none" id="LivePriceWorker-to-FmpExtendedHoursClient" style="stroke:#181818;stroke-width:1.0;"/><polygon fill="#181818" points="2347.9,684.35,2342.8192,675.9129,2343.8033,681.4835,2338.2327,682.4676,2347.9,684.35" style="stroke:#181818;stroke-width:1.0;"/></g><!--link LivePriceWorker to LivePriceRepository--><g id="link_LivePriceWorker_LivePriceRepository"><path codeLine="212" d="M2281.63,535.66 C2391.25,554.82 2531.81,589.11 2645,649 C2662.58,658.3 2675.0992,667.2037 2690.1492,680.4037 " fill="none" id="LivePriceWorker-to-LivePriceRepository" style="stroke:#181818;stroke-width:1.0;"/><polygon fill="#181818" points="2694.66,684.36,2690.5313,675.4183,2690.901,681.0631,2685.2562,681.4327,2694.66,684.36" style="stroke:#181818;stroke-width:1.0;"/></g><!--reverse link IndexProvider to FMPIndexProvider--><g id="link_IndexProvider_FMPIndexProvider"><path codeLine="214" d="M3105.2745,578.0937 C3086.1845,611.0337 3069.9,639.14 3048.99,675.22 " fill="none" id="IndexProvider-backto-FMPIndexProvider" style="stroke:#181818;stroke-width:1.0;stroke-dasharray:7.0,7.0;"/><polygon fill="none" points="3114.3,562.52,3100.0832,575.0852,3110.4657,581.1022,3114.3,562.52" style="stroke:#181818;stroke-width:1.0;"/></g><!--reverse link IndexProvider to YFinanceIndexProvider--><g id="link_IndexProvider_YFinanceIndexProvider"><path codeLine="215" d="M3180.9859,578.0644 C3201.8359,613.7744 3220.98,646.56 3242.93,684.14 " fill="none" id="IndexProvider-backto-YFinanceIndexProvider" style="stroke:#181818;stroke-width:1.0;stroke-dasharray:7.0,7.0;"/><polygon fill="none" points="3171.91,562.52,3175.8044,581.0897,3186.1674,575.0391,3171.91,562.52" style="stroke:#181818;stroke-width:1.0;"/></g><!--link BenchmarkIndexScheduler to BenchmarkIndexIngestionService--><g id="link_BenchmarkIndexScheduler_BenchmarkIndexIngestionService"><path codeLine="216" d="M3143,161.21 C3143,179.96 3143,195.02 3143,214.87 " fill="none" id="BenchmarkIndexScheduler-to-BenchmarkIndexIngestionService" style="stroke:#181818;stroke-width:1.0;"/><polygon fill="#181818" points="3143,220.87,3147,211.87,3143,215.87,3139,211.87,3143,220.87" style="stroke:#181818;stroke-width:1.0;"/></g><!--link BenchmarkIndexIngestionService to IndexProvider--><g id="link_BenchmarkIndexIngestionService_IndexProvider"><path codeLine="217" d="M3143,375.24 C3143,403.85 3143,429.6 3143,455.2 " fill="none" id="BenchmarkIndexIngestionService-to-IndexProvider" style="stroke:#181818;stroke-width:1.0;"/><polygon fill="#181818" points="3143,461.2,3147,452.2,3143,456.2,3139,452.2,3143,461.2" style="stroke:#181818;stroke-width:1.0;"/></g><!--link YahooPriceProvider to InMemoryRateLimiter--><g id="link_YahooPriceProvider_InMemoryRateLimiter"><path codeLine="219" d="M197.06,811.54 C218.64,831.7 244.8,851.29 273,862 C309.64,875.91 1647.07,856.86 1684,870 C1733.13,887.48 1773.9374,924.2718 1801.3274,953.5018 " fill="none" id="YahooPriceProvider-to-InMemoryRateLimiter" style="stroke:#181818;stroke-width:1.0;"/><polygon fill="#181818" points="1805.43,957.88,1802.1949,948.5776,1802.0112,954.2315,1796.3573,954.0478,1805.43,957.88" style="stroke:#181818;stroke-width:1.0;"/></g><!--link FmpCorporateCalendarProvider to InMemoryRateLimiter--><g id="link_FmpCorporateCalendarProvider_InMemoryRateLimiter"><path codeLine="220" d="M820.94,811.78 C842.62,831.83 868.83,851.29 897,862 C937.87,877.53 1642.84,855.25 1684,870 C1733.09,887.59 1773.9036,924.3653 1801.3036,953.5553 " fill="none" id="FmpCorporateCalendarProvider-to-InMemoryRateLimiter" style="stroke:#181818;stroke-width:1.0;"/><polygon fill="#181818" points="1805.41,957.93,1802.1669,948.6304,1801.988,954.2845,1796.334,954.1056,1805.41,957.93" style="stroke:#181818;stroke-width:1.0;"/></g><!--link FmpExtendedHoursClient to InMemoryRateLimiter--><g id="link_FmpExtendedHoursClient_InMemoryRateLimiter"><path codeLine="221" d="M2334.06,802.56 C2298.02,822.85 2256.32,844.82 2217,862 C2128.46,900.69 2029.9972,933.0166 1952.4972,956.2566 " fill="none" id="FmpExtendedHoursClient-to-InMemoryRateLimiter" style="stroke:#181818;stroke-width:1.0;"/><polygon fill="#181818" points="1946.75,957.98,1956.5197,959.2263,1951.5393,956.5438,1954.2218,951.5634,1946.75,957.98" style="stroke:#181818;stroke-width:1.0;"/></g><!--link FMPIndexProvider to InMemoryRateLimiter--><g id="link_FMPIndexProvider_InMemoryRateLimiter"><path codeLine="222" d="M2937.14,811.72 C2912.42,831 2883.54,850.03 2854,862 C2695.37,926.3 2208.1366,965.6593 1970.1166,981.5893 " fill="none" id="FMPIndexProvider-to-InMemoryRateLimiter" style="stroke:#181818;stroke-width:1.0;"/><polygon fill="#181818" points="1964.13,981.99,1973.377,985.3801,1969.1188,981.6561,1972.8428,977.3979,1964.13,981.99" style="stroke:#181818;stroke-width:1.0;"/></g><!--link YFinanceIndexProvider to InMemoryRateLimiter--><g id="link_YFinanceIndexProvider_InMemoryRateLimiter"><path codeLine="223" d="M3226.58,802.67 C3203.74,825.09 3174.94,848.54 3144,862 C2934.44,953.2 2258.938,979.8669 1970.188,987.2369 " fill="none" id="YFinanceIndexProvider-to-InMemoryRateLimiter" style="stroke:#181818;stroke-width:1.0;"/><polygon fill="#181818" points="1964.19,987.39,1973.2891,991.1591,1969.1884,987.2624,1973.085,983.1617,1964.19,987.39" style="stroke:#181818;stroke-width:1.0;"/></g><!--link InMemoryRateLimiter to RateLimitPolicy--><g id="link_InMemoryRateLimiter_RateLimitPolicy"><path codeLine="224" d="M1802.89,1024.17 C1776.94,1051.89 1742.7202,1088.4595 1710.1002,1123.3095 " fill="none" id="InMemoryRateLimiter-to-RateLimitPolicy" style="stroke:#181818;stroke-width:1.0;stroke-dasharray:7.0,7.0;"/><polygon fill="#181818" points="1706,1127.69,1715.0706,1123.8527,1709.4168,1124.0396,1709.2299,1118.3858,1706,1127.69" style="stroke:#181818;stroke-width:1.0;"/></g><!--link InMemoryRateLimiter to RateLimitExceeded--><g id="link_InMemoryRateLimiter_RateLimitExceeded"><path codeLine="225" d="M1837.28,1024.17 C1842.75,1065.31 1851.2978,1129.6125 1856.1278,1165.8725 " fill="none" id="InMemoryRateLimiter-to-RateLimitExceeded" style="stroke:#181818;stroke-width:1.0;stroke-dasharray:7.0,7.0;"/><polygon fill="#181818" points="1856.92,1171.82,1859.6966,1162.3706,1856.2598,1166.8638,1851.7667,1163.427,1856.92,1171.82" style="stroke:#181818;stroke-width:1.0;"/></g><!--SRC=[rLZTQzmu47_VlqBqAQLDkEVbA5n3GmFD4R9tb78KePN7kxhOqaQIa-or_Tzl9DjQsPRjR6ZWxireFZJpqtpQt0gvOvgLX1VCcD-irM9TMRZaIgx4Fq1-MPZ0icFybcrWPVS540tSChafOB5epichrPPfoCYbt82nGadyoZKpLbVSLXfUaMyBKbz4_X3y5lIVKjo3Dd03EsM4LNhlMGWv9MY0z9zlo4vfcwj2A8gIOAd8pCbhiYI5CFOlrFwruNjWbc_TuGmVunQlZPY4v4ML0GqAbcIjL96IBPoagTQ6Qx5pFivBrwwk8fbMcTbBJW_UMSzeQAvLIJqWNhzJ9AH5cH-BWDyDi_19bC9UeoXlOKEijBeN6MYKGQkRGywAmWGjdWsqK1arW31dZfGNYhN4KaYAhA3lMJ76mXwfrqfH4zMLhBMJx-Ht9Q5hwgMyWXAVDfYCrdqBJt5N2GqdE-_5ik-MStseC31zUEG06MIB7r4GNcl1WNn4vF7EEEGyeJaF8Rf2Bnr_6tOQ8n4lJV8UehHXZi3-mhPAUQdhvh1zOxw5h2g0hj70N1G5_LkjyL4FxyN1cFhGeUe-bWXbyjLZizut-ZuhVHiGVG47y76faXny7Bh07ZSfSL4gdq7ULL21SpNWWCf4IIKyMemecGcvwP1Bfc_T0Sqm6eQdEHC5PE6ysXdGgCYPHZEaxQbM3wPFpuJpKsP9ejaLmXueaST3f0xWOsJIeednPIho1uoq3dqoYFt6d1omgiIk14DhIkk4wPrx-rlRu_muLnfB3jv5pbc1WamJ9ZDoKU5d2TAomiHP4zXRxj7KYOBfejmDvCRoGaEkmMoxQH6e-S4iMkqor6Seon582lTucf38ggvKNApRo-1OkJPvdvku0pHMpRM3n1t7Uv2zTR-WLTD4KNYig_PzvOtk5e__2UvJWARBu15e7XU-CrNnAVV-fDBOr2jWMYB9H6-Rg6gva4nouM2sQ9s3lCldI-hSC-8Xhpll4-L2xzE0_Xbxl63tnWZfgRTw-ReyGBrNXGCzLvgQVRbMHO_Zhc8QxySM5Lva4EnHROx7o7u1ZkAe0N4D9-sK6m91ZjFyxDmTReVzunCMbxhhavNLm71QtCGDmz4zUP2HHXNt7l_04djpqz2x2HnO1_dgRnEvy1glC8h0hh0WewRpGEadws1KVuiPnzPOXJ2xyFqWerjLQTF3VzBUuE3HvRX1v9aBH6JVYFUfm6XGsvz8zK0hor-7HI6EDo7bjbf_XlLAuTNsl10OV46TwtPrB7UN2kF3uQGXlIMOlmwJOS9-QC3-wB3kAV_fgTgnjrvNwYBKiRrEnhLxWRhFbHvJJ4-5hU_WKtDiQgp7ucIwo1k6EwH3fbi4smP4jy0AkzsFK45hfHDv-HuatpfMn2n36vefpYzoESDinMDux9N6DsI3tjGZifyn3vt04L1OiumbQUWGDZHRfGfMiCNVEJinuejiCD2rUq8qtI_SRxlsXfKPcm35nJEasS6ejZablMc9OnwrTAxATlC-D60ygsoxIPHWKNJ6vU5uPnhVbpFWH2MBAntMbzwSviXIFPqbSgl36EVbrNKgGbwaURv8q7svyCCD_7Uzy0ax-kVhxEpTv3-ASSdJqtSJ6yQqt7GlNap-D77oSpyQZbBG_QUncFZTuIGJlonc9EQCNSnlkpDOFrD1u_3OLkDa9fUIAS4dxK0J2-gJTSoCgIw-9v1Rz0V7-UXCIOnDWYdUz9oJParEBTCsnu7LBKg_VZyx6nJS54-ofYt6UesxVQQxp7Hcfw5xroBnkwlc6XRGoLriGYWr3uwozzlK66Ew7OnnftvIku3jL_vPll1F-by0]--></g></svg>