<?xml version="1.0" encoding="us-ascii" standalone="no"?><svg xmlns="http://www.w3.org/2000/svg" xmlns:xlink="http://www.w3.org/1999/xlink" contentStyleType="text/css" height="1433px" preserveAspectRatio="none" style="width:1824px;height:1433px;background:#FFFFFF;" version="1.1" viewBox="0 0 1824 1433" width="1824px" zoomAndPan="magnify"><defs/><g><!--class DB--><g id="elem_DB"><rect codeLine="5" fill="#F1F1F1" height="100.8281" id="DB" rx="2.5" ry="2.5" style="stroke:#181818;stroke-width:0.5;" width="231" x="374.5" y="1199"/><ellipse cx="476.25" cy="1215" fill="#ADD1B2" rx="11" ry="11" style="stroke:#181818;stroke-width:1.0;"/><path d="M479.0156,1210.875 Q479.1719,1210.6563 479.3594,1210.5469 Q479.5469,1210.4375 479.7656,1210.4375 Q480.1406,1210.4375 480.375,1210.6953 Q480.6094,1210.9531 480.6094,1211.5625 L480.6094,1213.0156 Q480.6094,1213.625 480.375,1213.8906 Q480.1406,1214.1563 479.7656,1214.1563 Q479.4219,1214.1563 479.2188,1213.9531 Q479.0156,1213.7656 478.9063,1213.25 Q478.8594,1212.8906 478.6719,1212.7031 Q478.3438,1212.3281 477.7344,1212.1094 Q477.125,1211.8906 476.5,1211.8906 Q475.7344,1211.8906 475.1016,1212.2188 Q474.4688,1212.5469 473.9766,1213.2969 Q473.4844,1214.0469 473.4844,1215.0781 L473.4844,1216.1719 Q473.4844,1217.4063 474.375,1218.2266 Q475.2656,1219.0469 476.8594,1219.0469 Q477.7969,1219.0469 478.4531,1218.7969 Q478.8438,1218.6406 479.2656,1218.2031 Q479.5313,1217.9375 479.6797,1217.8594 Q479.8281,1217.7813 480.0313,1217.7813 Q480.3594,1217.7813 480.6172,1218.0391 Q480.875,1218.2969 480.875,1218.6406 Q480.875,1218.9844 480.5313,1219.3906 Q480.0313,1219.9688 479.2344,1220.2969 Q478.1563,1220.75 476.8594,1220.75 Q475.3438,1220.75 474.1406,1220.125 Q473.1563,1219.625 472.4688,1218.5547 Q471.7813,1217.4844 471.7813,1216.2031 L471.7813,1215.0469 Q471.7813,1213.7188 472.3984,1212.5703 Q473.0156,1211.4219 474.1094,1210.8047 Q475.2031,1210.1875 476.4375,1210.1875 Q477.1719,1210.1875 477.8203,1210.3516 Q478.4688,1210.5156 479.0156,1210.875 Z " fill="#000000"/><text fill="#000000" font-family="sans-serif" font-size="14" lengthAdjust="spacing" textLength="19" x="496.75" y="1220.7285">DB</text><line style="stroke:#181818;stroke-width:0.5;" x1="375.5" x2="604.5" y1="1231" y2="1231"/><text fill="#000000" font-family="sans-serif" font-size="14" lengthAdjust="spacing" textLength="74" x="380.5" y="1249.5332">-path : Path</text><text fill="#000000" font-family="sans-serif" font-size="14" lengthAdjust="spacing" textLength="187" x="380.5" y="1267.1426">-conn : DuckDBPyConnection</text><line style="stroke:#181818;stroke-width:0.5;" x1="375.5" x2="604.5" y1="1274.2188" y2="1274.2188"/><text fill="#000000" font-family="sans-serif" font-size="14" lengthAdjust="spacing" textLength="219" x="380.5" y="1292.752">+connect() : DuckDBPyConnection</text></g><!--class init_db--><g id="elem_init_db"><rect codeLine="11" fill="#F1F1F1" height="65.6094" id="init_db" rx="2.5" ry="2.5" style="stroke:#181818;stroke-width:0.5;" width="115" x="432.5" y="1361"/><ellipse cx="465.95" cy="1377" fill="#ADD1B2" rx="11" ry="11" style="stroke:#181818;stroke-width:1.0;"/><path d="M468.7156,1372.875 Q468.8719,1372.6563 469.0594,1372.5469 Q469.2469,1372.4375 469.4656,1372.4375 Q469.8406,1372.4375 470.075,1372.6953 Q470.3094,1372.9531 470.3094,1373.5625 L470.3094,1375.0156 Q470.3094,1375.625 470.075,1375.8906 Q469.8406,1376.1563 469.4656,1376.1563 Q469.1219,1376.1563 468.9188,1375.9531 Q468.7156,1375.7656 468.6063,1375.25 Q468.5594,1374.8906 468.3719,1374.7031 Q468.0438,1374.3281 467.4344,1374.1094 Q466.825,1373.8906 466.2,1373.8906 Q465.4344,1373.8906 464.8016,1374.2188 Q464.1688,1374.5469 463.6766,1375.2969 Q463.1844,1376.0469 463.1844,1377.0781 L463.1844,1378.1719 Q463.1844,1379.4063 464.075,1380.2266 Q464.9656,1381.0469 466.5594,1381.0469 Q467.4969,1381.0469 468.1531,1380.7969 Q468.5438,1380.6406 468.9656,1380.2031 Q469.2313,1379.9375 469.3797,1379.8594 Q469.5281,1379.7813 469.7313,1379.7813 Q470.0594,1379.7813 470.3172,1380.0391 Q470.575,1380.2969 470.575,1380.6406 Q470.575,1380.9844 470.2313,1381.3906 Q469.7313,1381.9688 468.9344,1382.2969 Q467.8563,1382.75 466.5594,1382.75 Q465.0438,1382.75 463.8406,1382.125 Q462.8563,1381.625 462.1688,1380.5547 Q461.4813,1379.4844 461.4813,1378.2031 L461.4813,1377.0469 Q461.4813,1375.7188 462.0984,1374.5703 Q462.7156,1373.4219 463.8094,1372.8047 Q464.9031,1372.1875 466.1375,1372.1875 Q466.8719,1372.1875 467.5203,1372.3516 Q468.1688,1372.5156 468.7156,1372.875 Z " fill="#000000"/><text fill="#000000" font-family="sans-serif" font-size="14" lengthAdjust="spacing" textLength="42" x="484.05" y="1382.7285">init_db</text><line style="stroke:#181818;stroke-width:0.5;" x1="433.5" x2="546.5" y1="1393" y2="1393"/><line style="stroke:#181818;stroke-width:0.5;" x1="433.5" x2="546.5" y1="1401" y2="1401"/><text fill="#000000" font-family="sans-serif" font-size="14" lengthAdjust="spacing" textLength="103" x="438.5" y="1419.5332">+init_db(db: DB)</text></g><!--class Txn--><g id="elem_Txn"><rect codeLine="19" fill="#F1F1F1" height="241.7031" id="Txn" rx="2.5" ry="2.5" style="stroke:#181818;stroke-width:0.5;" width="158" x="7" y="7"/><ellipse cx="70.25" cy="23" fill="#ADD1B2" rx="11" ry="11" style="stroke:#181818;stroke-width:1.0;"/><path d="M73.0156,18.875 Q73.1719,18.6563 73.3594,18.5469 Q73.5469,18.4375 73.7656,18.4375 Q74.1406,18.4375 74.375,18.6953 Q74.6094,18.9531 74.6094,19.5625 L74.6094,21.0156 Q74.6094,21.625 74.375,21.8906 Q74.1406,22.1563 73.7656,22.1563 Q73.4219,22.1563 73.2188,21.9531 Q73.0156,21.7656 72.9063,21.25 Q72.8594,20.8906 72.6719,20.7031 Q72.3438,20.3281 71.7344,20.1094 Q71.125,19.8906 70.5,19.8906 Q69.7344,19.8906 69.1016,20.2188 Q68.4688,20.5469 67.9766,21.2969 Q67.4844,22.0469 67.4844,23.0781 L67.4844,24.1719 Q67.4844,25.4063 68.375,26.2266 Q69.2656,27.0469 70.8594,27.0469 Q71.7969,27.0469 72.4531,26.7969 Q72.8438,26.6406 73.2656,26.2031 Q73.5313,25.9375 73.6797,25.8594 Q73.8281,25.7813 74.0313,25.7813 Q74.3594,25.7813 74.6172,26.0391 Q74.875,26.2969 74.875,26.6406 Q74.875,26.9844 74.5313,27.3906 Q74.0313,27.9688 73.2344,28.2969 Q72.1563,28.75 70.8594,28.75 Q69.3438,28.75 68.1406,28.125 Q67.1563,27.625 66.4688,26.5547 Q65.7813,25.4844 65.7813,24.2031 L65.7813,23.0469 Q65.7813,21.7188 66.3984,20.5703 Q67.0156,19.4219 68.1094,18.8047 Q69.2031,18.1875 70.4375,18.1875 Q71.1719,18.1875 71.8203,18.3516 Q72.4688,18.5156 73.0156,18.875 Z " fill="#000000"/><text fill="#000000" font-family="sans-serif" font-size="14" lengthAdjust="spacing" textLength="23" x="90.75" y="28.7285">Txn</text><line style="stroke:#181818;stroke-width:0.5;" x1="8" x2="164" y1="39" y2="39"/><text fill="#000000" font-family="sans-serif" font-size="14" lengthAdjust="spacing" textLength="72" x="13" y="57.5332">+txn_id : int</text><text fill="#000000" font-family="sans-serif" font-size="14" lengthAdjust="spacing" textLength="106" x="13" y="75.1426">+portfolio_id : str</text><text fill="#000000" font-family="sans-serif" font-size="14" lengthAdjust="spacing" textLength="146" x="13" y="92.752">+time_stamp : datetime</text><text fill="#000000" font-family="sans-serif" font-size="14" lengthAdjust="spacing" textLength="89" x="13" y="110.3613">+txn_type : str</text><text fill="#000000" font-family="sans-serif" font-size="14" lengthAdjust="spacing" textLength="89" x="13" y="127.9707">+asset_id : str</text><text fill="#000000" font-family="sans-serif" font-size="14" lengthAdjust="spacing" textLength="66" x="13" y="145.5801">+qty : float</text><text fill="#000000" font-family="sans-serif" font-size="14" lengthAdjust="spacing" textLength="78" x="13" y="163.1895">+price : float</text><text fill="#000000" font-family="sans-serif" font-size="14" lengthAdjust="spacing" textLength="57" x="13" y="180.7988">+ccy : str</text><text fill="#000000" font-family="sans-serif" font-size="14" lengthAdjust="spacing" textLength="108" x="13" y="198.4082">+cash_amt : float</text><text fill="#000000" font-family="sans-serif" font-size="14" lengthAdjust="spacing" textLength="98" x="13" y="216.0176">+fee_amt : float</text><text fill="#000000" font-family="sans-serif" font-size="14" lengthAdjust="spacing" textLength="90" x="13" y="233.627">+batch_id : str</text><line style="stroke:#181818;stroke-width:0.5;" x1="8" x2="164" y1="240.7031" y2="240.7031"/></g><!--class Asset--><g id="elem_Asset"><rect codeLine="33" fill="#F1F1F1" height="118.4375" id="Asset" rx="2.5" ry="2.5" style="stroke:#181818;stroke-width:0.5;" width="140" x="200" y="69"/><ellipse cx="248.25" cy="85" fill="#ADD1B2" rx="11" ry="11" style="stroke:#181818;stroke-width:1.0;"/><path d="M251.0156,80.875 Q251.1719,80.6563 251.3594,80.5469 Q251.5469,80.4375 251.7656,80.4375 Q252.1406,80.4375 252.375,80.6953 Q252.6094,80.9531 252.6094,81.5625 L252.6094,83.0156 Q252.6094,83.625 252.375,83.8906 Q252.1406,84.1563 251.7656,84.1563 Q251.4219,84.1563 251.2188,83.9531 Q251.0156,83.7656 250.9063,83.25 Q250.8594,82.8906 250.6719,82.7031 Q250.3438,82.3281 249.7344,82.1094 Q249.125,81.8906 248.5,81.8906 Q247.7344,81.8906 247.1016,82.2188 Q246.4688,82.5469 245.9766,83.2969 Q245.4844,84.0469 245.4844,85.0781 L245.4844,86.1719 Q245.4844,87.4063 246.375,88.2266 Q247.2656,89.0469 248.8594,89.0469 Q249.7969,89.0469 250.4531,88.7969 Q250.8438,88.6406 251.2656,88.2031 Q251.5313,87.9375 251.6797,87.8594 Q251.8281,87.7813 252.0313,87.7813 Q252.3594,87.7813 252.6172,88.0391 Q252.875,88.2969 252.875,88.6406 Q252.875,88.9844 252.5313,89.3906 Q252.0313,89.9688 251.2344,90.2969 Q250.1563,90.75 248.8594,90.75 Q247.3438,90.75 246.1406,90.125 Q245.1563,89.625 244.4688,88.5547 Q243.7813,87.4844 243.7813,86.2031 L243.7813,85.0469 Q243.7813,83.7188 244.3984,82.5703 Q245.0156,81.4219 246.1094,80.8047 Q247.2031,80.1875 248.4375,80.1875 Q249.1719,80.1875 249.8203,80.3516 Q250.4688,80.5156 251.0156,80.875 Z " fill="#000000"/><text fill="#000000" font-family="sans-serif" font-size="14" lengthAdjust="spacing" textLength="35" x="268.75" y="90.7285">Asset</text><line style="stroke:#181818;stroke-width:0.5;" x1="201" x2="339" y1="101" y2="101"/><text fill="#000000" font-family="sans-serif" font-size="14" lengthAdjust="spacing" textLength="89" x="206" y="119.5332">+asset_id : str</text><text fill="#000000" font-family="sans-serif" font-size="14" lengthAdjust="spacing" textLength="105" x="206" y="137.1426">+asset_type : str</text><text fill="#000000" font-family="sans-serif" font-size="14" lengthAdjust="spacing" textLength="128" x="206" y="154.752">+asset_subtype : str</text><text fill="#000000" font-family="sans-serif" font-size="14" lengthAdjust="spacing" textLength="57" x="206" y="172.3613">+ccy : str</text><line style="stroke:#181818;stroke-width:0.5;" x1="201" x2="339" y1="179.4375" y2="179.4375"/></g><!--class Portfolio--><g id="elem_Portfolio"><rect codeLine="40" fill="#F1F1F1" height="136.0469" id="Portfolio" rx="2.5" ry="2.5" style="stroke:#181818;stroke-width:0.5;" width="158" x="7" y="354"/><ellipse cx="55.75" cy="370" fill="#ADD1B2" rx="11" ry="11" style="stroke:#181818;stroke-width:1.0;"/><path d="M58.5156,365.875 Q58.6719,365.6563 58.8594,365.5469 Q59.0469,365.4375 59.2656,365.4375 Q59.6406,365.4375 59.875,365.6953 Q60.1094,365.9531 60.1094,366.5625 L60.1094,368.0156 Q60.1094,368.625 59.875,368.8906 Q59.6406,369.1563 59.2656,369.1563 Q58.9219,369.1563 58.7188,368.9531 Q58.5156,368.7656 58.4063,368.25 Q58.3594,367.8906 58.1719,367.7031 Q57.8438,367.3281 57.2344,367.1094 Q56.625,366.8906 56,366.8906 Q55.2344,366.8906 54.6016,367.2188 Q53.9688,367.5469 53.4766,368.2969 Q52.9844,369.0469 52.9844,370.0781 L52.9844,371.1719 Q52.9844,372.4063 53.875,373.2266 Q54.7656,374.0469 56.3594,374.0469 Q57.2969,374.0469 57.9531,373.7969 Q58.3438,373.6406 58.7656,373.2031 Q59.0313,372.9375 59.1797,372.8594 Q59.3281,372.7813 59.5313,372.7813 Q59.8594,372.7813 60.1172,373.0391 Q60.375,373.2969 60.375,373.6406 Q60.375,373.9844 60.0313,374.3906 Q59.5313,374.9688 58.7344,375.2969 Q57.6563,375.75 56.3594,375.75 Q54.8438,375.75 53.6406,375.125 Q52.6563,374.625 51.9688,373.5547 Q51.2813,372.4844 51.2813,371.2031 L51.2813,370.0469 Q51.2813,368.7188 51.8984,367.5703 Q52.5156,366.4219 53.6094,365.8047 Q54.7031,365.1875 55.9375,365.1875 Q56.6719,365.1875 57.3203,365.3516 Q57.9688,365.5156 58.5156,365.875 Z " fill="#000000"/><text fill="#000000" font-family="sans-serif" font-size="14" lengthAdjust="spacing" textLength="52" x="76.25" y="375.7285">Portfolio</text><line style="stroke:#181818;stroke-width:0.5;" x1="8" x2="164" y1="386" y2="386"/><text fill="#000000" font-family="sans-serif" font-size="14" lengthAdjust="spacing" textLength="105" x="13" y="404.5332">+portfolio_id : int</text><text fill="#000000" font-family="sans-serif" font-size="14" lengthAdjust="spacing" textLength="130" x="13" y="422.1426">+portfolio_name : str</text><text fill="#000000" font-family="sans-serif" font-size="14" lengthAdjust="spacing" textLength="142" x="13" y="439.752">+created_at : datetime</text><text fill="#000000" font-family="sans-serif" font-size="14" lengthAdjust="spacing" textLength="146" x="13" y="457.3613">+updated_at : datetime</text><text fill="#000000" font-family="sans-serif" font-size="14" lengthAdjust="spacing" textLength="96" x="13" y="474.9707">+base_ccy : str</text><line style="stroke:#181818;stroke-width:0.5;" x1="8" x2="164" y1="482.0469" y2="482.0469"/></g><!--class Position--><g id="elem_Position"><rect codeLine="48" fill="#F1F1F1" height="136.0469" id="Position" rx="2.5" ry="2.5" style="stroke:#181818;stroke-width:0.5;" width="168" x="200" y="354"/><ellipse cx="254.75" cy="370" fill="#ADD1B2" rx="11" ry="11" style="stroke:#181818;stroke-width:1.0;"/><path d="M257.5156,365.875 Q257.6719,365.6563 257.8594,365.5469 Q258.0469,365.4375 258.2656,365.4375 Q258.6406,365.4375 258.875,365.6953 Q259.1094,365.9531 259.1094,366.5625 L259.1094,368.0156 Q259.1094,368.625 258.875,368.8906 Q258.6406,369.1563 258.2656,369.1563 Q257.9219,369.1563 257.7188,368.9531 Q257.5156,368.7656 257.4063,368.25 Q257.3594,367.8906 257.1719,367.7031 Q256.8438,367.3281 256.2344,367.1094 Q255.625,366.8906 255,366.8906 Q254.2344,366.8906 253.6016,367.2188 Q252.9688,367.5469 252.4766,368.2969 Q251.9844,369.0469 251.9844,370.0781 L251.9844,371.1719 Q251.9844,372.4063 252.875,373.2266 Q253.7656,374.0469 255.3594,374.0469 Q256.2969,374.0469 256.9531,373.7969 Q257.3438,373.6406 257.7656,373.2031 Q258.0313,372.9375 258.1797,372.8594 Q258.3281,372.7813 258.5313,372.7813 Q258.8594,372.7813 259.1172,373.0391 Q259.375,373.2969 259.375,373.6406 Q259.375,373.9844 259.0313,374.3906 Q258.5313,374.9688 257.7344,375.2969 Q256.6563,375.75 255.3594,375.75 Q253.8438,375.75 252.6406,375.125 Q251.6563,374.625 250.9688,373.5547 Q250.2813,372.4844 250.2813,371.2031 L250.2813,370.0469 Q250.2813,368.7188 250.8984,367.5703 Q251.5156,366.4219 252.6094,365.8047 Q253.7031,365.1875 254.9375,365.1875 Q255.6719,365.1875 256.3203,365.3516 Q256.9688,365.5156 257.5156,365.875 Z " fill="#000000"/><text fill="#000000" font-family="sans-serif" font-size="14" lengthAdjust="spacing" textLength="50" x="275.25" y="375.7285">Position</text><line style="stroke:#181818;stroke-width:0.5;" x1="201" x2="367" y1="386" y2="386"/><text fill="#000000" font-family="sans-serif" font-size="14" lengthAdjust="spacing" textLength="105" x="206" y="404.5332">+portfolio_id : int</text><text fill="#000000" font-family="sans-serif" font-size="14" lengthAdjust="spacing" textLength="89" x="206" y="422.1426">+asset_id : str</text><text fill="#000000" font-family="sans-serif" font-size="14" lengthAdjust="spacing" textLength="66" x="206" y="439.752">+qty : float</text><text fill="#000000" font-family="sans-serif" font-size="14" lengthAdjust="spacing" textLength="112" x="206" y="457.3613">+book_cost : float</text><text fill="#000000" font-family="sans-serif" font-size="14" lengthAdjust="spacing" textLength="156" x="206" y="474.9707">+last_updated : datetime</text><line style="stroke:#181818;stroke-width:0.5;" x1="201" x2="367" y1="482.0469" y2="482.0469"/></g><!--class PortfolioImportData--><g id="elem_PortfolioImportData"><rect codeLine="58" fill="#F1F1F1" height="118.4375" id="PortfolioImportData" rx="2.5" ry="2.5" style="stroke:#181818;stroke-width:0.5;" width="153" x="1593.5" y="363"/><ellipse cx="1608.5" cy="379" fill="#ADD1B2" rx="11" ry="11" style="stroke:#181818;stroke-width:1.0;"/><path d="M1611.2656,374.875 Q1611.4219,374.6563 1611.6094,374.5469 Q1611.7969,374.4375 1612.0156,374.4375 Q1612.3906,374.4375 1612.625,374.6953 Q1612.8594,374.9531 1612.8594,375.5625 L1612.8594,377.0156 Q1612.8594,377.625 1612.625,377.8906 Q1612.3906,378.1563 1612.0156,378.1563 Q1611.6719,378.1563 1611.4688,377.9531 Q1611.2656,377.7656 1611.1563,377.25 Q1611.1094,376.8906 1610.9219,376.7031 Q1610.5938,376.3281 1609.9844,376.1094 Q1609.375,375.8906 1608.75,375.8906 Q1607.9844,375.8906 1607.3516,376.2188 Q1606.7188,376.5469 1606.2266,377.2969 Q1605.7344,378.0469 1605.7344,379.0781 L1605.7344,380.1719 Q1605.7344,381.4063 1606.625,382.2266 Q1607.5156,383.0469 1609.1094,383.0469 Q1610.0469,383.0469 1610.7031,382.7969 Q1611.0938,382.6406 1611.5156,382.2031 Q1611.7813,381.9375 1611.9297,381.8594 Q1612.0781,381.7813 1612.2813,381.7813 Q1612.6094,381.7813 1612.8672,382.0391 Q1613.125,382.2969 1613.125,382.6406 Q1613.125,382.9844 1612.7813,383.3906 Q1612.2813,383.9688 1611.4844,384.2969 Q1610.4063,384.75 1609.1094,384.75 Q1607.5938,384.75 1606.3906,384.125 Q1605.4063,383.625 1604.7188,382.5547 Q1604.0313,381.4844 1604.0313,380.2031 L1604.0313,379.0469 Q1604.0313,377.7188 1604.6484,376.5703 Q1605.2656,375.4219 1606.3594,374.8047 Q1607.4531,374.1875 1608.6875,374.1875 Q1609.4219,374.1875 1610.0703,374.3516 Q1610.7188,374.5156 1611.2656,374.875 Z " fill="#000000"/><text fill="#000000" font-family="sans-serif" font-size="14" lengthAdjust="spacing" textLength="121" x="1622.5" y="384.7285">PortfolioImportData</text><line style="stroke:#181818;stroke-width:0.5;" x1="1594.5" x2="1745.5" y1="395" y2="395"/><text fill="#000000" font-family="sans-serif" font-size="14" lengthAdjust="spacing" textLength="105" x="1599.5" y="413.5332">+portfolio_id : int</text><text fill="#000000" font-family="sans-serif" font-size="14" lengthAdjust="spacing" textLength="130" x="1599.5" y="431.1426">+portfolio_name : str</text><text fill="#000000" font-family="sans-serif" font-size="14" lengthAdjust="spacing" textLength="95" x="1599.5" y="448.752">+created : bool</text><text fill="#000000" font-family="sans-serif" font-size="14" lengthAdjust="spacing" textLength="89" x="1599.5" y="466.3613">+batch_id : int</text><line style="stroke:#181818;stroke-width:0.5;" x1="1594.5" x2="1745.5" y1="473.4375" y2="473.4375"/></g><!--class ImportData--><g id="elem_ImportData"><rect codeLine="65" fill="#F1F1F1" height="118.4375" id="ImportData" rx="2.5" ry="2.5" style="stroke:#181818;stroke-width:0.5;" width="295" x="1522.5" y="69"/><ellipse cx="1631.25" cy="85" fill="#ADD1B2" rx="11" ry="11" style="stroke:#181818;stroke-width:1.0;"/><path d="M1634.0156,80.875 Q1634.1719,80.6563 1634.3594,80.5469 Q1634.5469,80.4375 1634.7656,80.4375 Q1635.1406,80.4375 1635.375,80.6953 Q1635.6094,80.9531 1635.6094,81.5625 L1635.6094,83.0156 Q1635.6094,83.625 1635.375,83.8906 Q1635.1406,84.1563 1634.7656,84.1563 Q1634.4219,84.1563 1634.2188,83.9531 Q1634.0156,83.7656 1633.9063,83.25 Q1633.8594,82.8906 1633.6719,82.7031 Q1633.3438,82.3281 1632.7344,82.1094 Q1632.125,81.8906 1631.5,81.8906 Q1630.7344,81.8906 1630.1016,82.2188 Q1629.4688,82.5469 1628.9766,83.2969 Q1628.4844,84.0469 1628.4844,85.0781 L1628.4844,86.1719 Q1628.4844,87.4063 1629.375,88.2266 Q1630.2656,89.0469 1631.8594,89.0469 Q1632.7969,89.0469 1633.4531,88.7969 Q1633.8438,88.6406 1634.2656,88.2031 Q1634.5313,87.9375 1634.6797,87.8594 Q1634.8281,87.7813 1635.0313,87.7813 Q1635.3594,87.7813 1635.6172,88.0391 Q1635.875,88.2969 1635.875,88.6406 Q1635.875,88.9844 1635.5313,89.3906 Q1635.0313,89.9688 1634.2344,90.2969 Q1633.1563,90.75 1631.8594,90.75 Q1630.3438,90.75 1629.1406,90.125 Q1628.1563,89.625 1627.4688,88.5547 Q1626.7813,87.4844 1626.7813,86.2031 L1626.7813,85.0469 Q1626.7813,83.7188 1627.3984,82.5703 Q1628.0156,81.4219 1629.1094,80.8047 Q1630.2031,80.1875 1631.4375,80.1875 Q1632.1719,80.1875 1632.8203,80.3516 Q1633.4688,80.5156 1634.0156,80.875 Z " fill="#000000"/><text fill="#000000" font-family="sans-serif" font-size="14" lengthAdjust="spacing" textLength="69" x="1651.75" y="90.7285">ImportData</text><line style="stroke:#181818;stroke-width:0.5;" x1="1523.5" x2="1816.5" y1="101" y2="101"/><text fill="#000000" font-family="sans-serif" font-size="14" lengthAdjust="spacing" textLength="89" x="1528.5" y="119.5332">+batch_id : int</text><text fill="#000000" font-family="sans-serif" font-size="14" lengthAdjust="spacing" textLength="106" x="1528.5" y="137.1426">+batch_type : str</text><text fill="#000000" font-family="sans-serif" font-size="14" lengthAdjust="spacing" textLength="123" x="1528.5" y="154.752">+inserted_rows : int</text><text fill="#000000" font-family="sans-serif" font-size="14" lengthAdjust="spacing" textLength="283" x="1528.5" y="172.3613">+portfolios_affected : list[PortfolioImportData]</text><line style="stroke:#181818;stroke-width:0.5;" x1="1523.5" x2="1816.5" y1="179.4375" y2="179.4375"/></g><!--class DashboardManager--><g id="elem_DashboardManager"><rect codeLine="76" fill="#F1F1F1" height="224.0938" id="DashboardManager" rx="2.5" ry="2.5" style="stroke:#181818;stroke-width:0.5;" width="362" x="381" y="612"/><ellipse cx="494.75" cy="628" fill="#ADD1B2" rx="11" ry="11" style="stroke:#181818;stroke-width:1.0;"/><path d="M497.5156,623.875 Q497.6719,623.6563 497.8594,623.5469 Q498.0469,623.4375 498.2656,623.4375 Q498.6406,623.4375 498.875,623.6953 Q499.1094,623.9531 499.1094,624.5625 L499.1094,626.0156 Q499.1094,626.625 498.875,626.8906 Q498.6406,627.1563 498.2656,627.1563 Q497.9219,627.1563 497.7188,626.9531 Q497.5156,626.7656 497.4063,626.25 Q497.3594,625.8906 497.1719,625.7031 Q496.8438,625.3281 496.2344,625.1094 Q495.625,624.8906 495,624.8906 Q494.2344,624.8906 493.6016,625.2188 Q492.9688,625.5469 492.4766,626.2969 Q491.9844,627.0469 491.9844,628.0781 L491.9844,629.1719 Q491.9844,630.4063 492.875,631.2266 Q493.7656,632.0469 495.3594,632.0469 Q496.2969,632.0469 496.9531,631.7969 Q497.3438,631.6406 497.7656,631.2031 Q498.0313,630.9375 498.1797,630.8594 Q498.3281,630.7813 498.5313,630.7813 Q498.8594,630.7813 499.1172,631.0391 Q499.375,631.2969 499.375,631.6406 Q499.375,631.9844 499.0313,632.3906 Q498.5313,632.9688 497.7344,633.2969 Q496.6563,633.75 495.3594,633.75 Q493.8438,633.75 492.6406,633.125 Q491.6563,632.625 490.9688,631.5547 Q490.2813,630.4844 490.2813,629.2031 L490.2813,628.0469 Q490.2813,626.7188 490.8984,625.5703 Q491.5156,624.4219 492.6094,623.8047 Q493.7031,623.1875 494.9375,623.1875 Q495.6719,623.1875 496.3203,623.3516 Q496.9688,623.5156 497.5156,623.875 Z " fill="#000000"/><text fill="#000000" font-family="sans-serif" font-size="14" lengthAdjust="spacing" textLength="126" x="515.25" y="633.7285">DashboardManager</text><line style="stroke:#181818;stroke-width:0.5;" x1="382" x2="742" y1="644" y2="644"/><text fill="#000000" font-family="sans-serif" font-size="14" lengthAdjust="spacing" textLength="52" x="387" y="662.5332">-db : DB</text><text fill="#000000" font-family="sans-serif" font-size="14" lengthAdjust="spacing" textLength="36" x="387" y="680.1426">-conn</text><line style="stroke:#181818;stroke-width:0.5;" x1="382" x2="742" y1="687.2188" y2="687.2188"/><text fill="#000000" font-family="sans-serif" font-size="14" lengthAdjust="spacing" textLength="50" x="387" y="705.752">+open()</text><text fill="#000000" font-family="sans-serif" font-size="14" lengthAdjust="spacing" textLength="301" x="387" y="723.3613">+open_portfolio_by_id(id:int) : PortfolioManager</text><text fill="#000000" font-family="sans-serif" font-size="14" lengthAdjust="spacing" textLength="350" x="387" y="740.9707">+open_portfolio_by_name(name:str) : PortfolioManager</text><text fill="#000000" font-family="sans-serif" font-size="14" lengthAdjust="spacing" textLength="129" x="387" y="758.5801">+list_portfolios(N:int)</text><text fill="#000000" font-family="sans-serif" font-size="14" lengthAdjust="spacing" textLength="96" x="387" y="776.1895">+list_txns(N:int)</text><text fill="#000000" font-family="sans-serif" font-size="14" lengthAdjust="spacing" textLength="132" x="387" y="793.7988">+list_txns_by_*(N:int)</text><text fill="#000000" font-family="sans-serif" font-size="14" lengthAdjust="spacing" textLength="127" x="387" y="811.4082">+list_positions(N:int)</text><text fill="#000000" font-family="sans-serif" font-size="14" lengthAdjust="spacing" textLength="163" x="387" y="829.0176">+list_positions_by_*(N:int)</text></g><!--class PortfolioManager--><g id="elem_PortfolioManager"><rect codeLine="89" fill="#F1F1F1" height="206.4844" id="PortfolioManager" rx="2.5" ry="2.5" style="stroke:#181818;stroke-width:0.5;" width="180" x="329" y="923"/><ellipse cx="362" cy="939" fill="#ADD1B2" rx="11" ry="11" style="stroke:#181818;stroke-width:1.0;"/><path d="M364.7656,934.875 Q364.9219,934.6563 365.1094,934.5469 Q365.2969,934.4375 365.5156,934.4375 Q365.8906,934.4375 366.125,934.6953 Q366.3594,934.9531 366.3594,935.5625 L366.3594,937.0156 Q366.3594,937.625 366.125,937.8906 Q365.8906,938.1563 365.5156,938.1563 Q365.1719,938.1563 364.9688,937.9531 Q364.7656,937.7656 364.6563,937.25 Q364.6094,936.8906 364.4219,936.7031 Q364.0938,936.3281 363.4844,936.1094 Q362.875,935.8906 362.25,935.8906 Q361.4844,935.8906 360.8516,936.2188 Q360.2188,936.5469 359.7266,937.2969 Q359.2344,938.0469 359.2344,939.0781 L359.2344,940.1719 Q359.2344,941.4063 360.125,942.2266 Q361.0156,943.0469 362.6094,943.0469 Q363.5469,943.0469 364.2031,942.7969 Q364.5938,942.6406 365.0156,942.2031 Q365.2813,941.9375 365.4297,941.8594 Q365.5781,941.7813 365.7813,941.7813 Q366.1094,941.7813 366.3672,942.0391 Q366.625,942.2969 366.625,942.6406 Q366.625,942.9844 366.2813,943.3906 Q365.7813,943.9688 364.9844,944.2969 Q363.9063,944.75 362.6094,944.75 Q361.0938,944.75 359.8906,944.125 Q358.9063,943.625 358.2188,942.5547 Q357.5313,941.4844 357.5313,940.2031 L357.5313,939.0469 Q357.5313,937.7188 358.1484,936.5703 Q358.7656,935.4219 359.8594,934.8047 Q360.9531,934.1875 362.1875,934.1875 Q362.9219,934.1875 363.5703,934.3516 Q364.2188,934.5156 364.7656,934.875 Z " fill="#000000"/><text fill="#000000" font-family="sans-serif" font-size="14" lengthAdjust="spacing" textLength="108" x="380" y="944.7285">PortfolioManager</text><line style="stroke:#181818;stroke-width:0.5;" x1="330" x2="508" y1="955" y2="955"/><text fill="#000000" font-family="sans-serif" font-size="14" lengthAdjust="spacing" textLength="52" x="335" y="973.5332">-db : DB</text><text fill="#000000" font-family="sans-serif" font-size="14" lengthAdjust="spacing" textLength="36" x="335" y="991.1426">-conn</text><text fill="#000000" font-family="sans-serif" font-size="14" lengthAdjust="spacing" textLength="102" x="335" y="1008.752">-portfolio_id : int</text><text fill="#000000" font-family="sans-serif" font-size="14" lengthAdjust="spacing" textLength="127" x="335" y="1026.3613">-portfolio_name : str</text><line style="stroke:#181818;stroke-width:0.5;" x1="330" x2="508" y1="1033.4375" y2="1033.4375"/><text fill="#000000" font-family="sans-serif" font-size="14" lengthAdjust="spacing" textLength="168" x="335" y="1051.9707">+load_portfolio() : Portfolio</text><text fill="#000000" font-family="sans-serif" font-size="14" lengthAdjust="spacing" textLength="96" x="335" y="1069.5801">+list_txns(N:int)</text><text fill="#000000" font-family="sans-serif" font-size="14" lengthAdjust="spacing" textLength="132" x="335" y="1087.1895">+list_txns_by_*(N:int)</text><text fill="#000000" font-family="sans-serif" font-size="14" lengthAdjust="spacing" textLength="127" x="335" y="1104.7988">+list_positions(N:int)</text><text fill="#000000" font-family="sans-serif" font-size="14" lengthAdjust="spacing" textLength="163" x="335" y="1122.4082">+list_positions_by_*(N:int)</text></g><!--class tTestTxn--><g id="elem_tTestTxn"><rect codeLine="107" fill="#F1F1F1" height="224.0938" id="tTestTxn" rx="2.5" ry="2.5" style="stroke:#181818;stroke-width:0.5;" width="164" x="811" y="914"/><ellipse cx="861.25" cy="930" fill="#ADD1B2" rx="11" ry="11" style="stroke:#181818;stroke-width:1.0;"/><path d="M864.0156,925.875 Q864.1719,925.6563 864.3594,925.5469 Q864.5469,925.4375 864.7656,925.4375 Q865.1406,925.4375 865.375,925.6953 Q865.6094,925.9531 865.6094,926.5625 L865.6094,928.0156 Q865.6094,928.625 865.375,928.8906 Q865.1406,929.1563 864.7656,929.1563 Q864.4219,929.1563 864.2188,928.9531 Q864.0156,928.7656 863.9063,928.25 Q863.8594,927.8906 863.6719,927.7031 Q863.3438,927.3281 862.7344,927.1094 Q862.125,926.8906 861.5,926.8906 Q860.7344,926.8906 860.1016,927.2188 Q859.4688,927.5469 858.9766,928.2969 Q858.4844,929.0469 858.4844,930.0781 L858.4844,931.1719 Q858.4844,932.4063 859.375,933.2266 Q860.2656,934.0469 861.8594,934.0469 Q862.7969,934.0469 863.4531,933.7969 Q863.8438,933.6406 864.2656,933.2031 Q864.5313,932.9375 864.6797,932.8594 Q864.8281,932.7813 865.0313,932.7813 Q865.3594,932.7813 865.6172,933.0391 Q865.875,933.2969 865.875,933.6406 Q865.875,933.9844 865.5313,934.3906 Q865.0313,934.9688 864.2344,935.2969 Q863.1563,935.75 861.8594,935.75 Q860.3438,935.75 859.1406,935.125 Q858.1563,934.625 857.4688,933.5547 Q856.7813,932.4844 856.7813,931.2031 L856.7813,930.0469 Q856.7813,928.7188 857.3984,927.5703 Q858.0156,926.4219 859.1094,925.8047 Q860.2031,925.1875 861.4375,925.1875 Q862.1719,925.1875 862.8203,925.3516 Q863.4688,925.5156 864.0156,925.875 Z " fill="#000000"/><text fill="#000000" font-family="sans-serif" font-size="14" lengthAdjust="spacing" textLength="55" x="881.75" y="935.7285">tTestTxn</text><line style="stroke:#181818;stroke-width:0.5;" x1="812" x2="974" y1="946" y2="946"/><text fill="#000000" font-family="sans-serif" font-size="14" lengthAdjust="spacing" textLength="105" x="817" y="964.5332">+portfolio_id : int</text><text fill="#000000" font-family="sans-serif" font-size="14" lengthAdjust="spacing" textLength="130" x="817" y="982.1426">+portfolio_name : str</text><text fill="#000000" font-family="sans-serif" font-size="14" lengthAdjust="spacing" textLength="146" x="817" y="999.752">+time_stamp : datetime</text><text fill="#000000" font-family="sans-serif" font-size="14" lengthAdjust="spacing" textLength="89" x="817" y="1017.3613">+txn_type : str</text><text fill="#000000" font-family="sans-serif" font-size="14" lengthAdjust="spacing" textLength="133" x="817" y="1034.9707">+asset_id : str | None</text><text fill="#000000" font-family="sans-serif" font-size="14" lengthAdjust="spacing" textLength="110" x="817" y="1052.5801">+qty : float | None</text><text fill="#000000" font-family="sans-serif" font-size="14" lengthAdjust="spacing" textLength="122" x="817" y="1070.1895">+price : float | None</text><text fill="#000000" font-family="sans-serif" font-size="14" lengthAdjust="spacing" textLength="57" x="817" y="1087.7988">+ccy : str</text><text fill="#000000" font-family="sans-serif" font-size="14" lengthAdjust="spacing" textLength="152" x="817" y="1105.4082">+cash_amt : float | None</text><text fill="#000000" font-family="sans-serif" font-size="14" lengthAdjust="spacing" textLength="142" x="817" y="1123.0176">+fee_amt : float | None</text><line style="stroke:#181818;stroke-width:0.5;" x1="812" x2="974" y1="1130.0938" y2="1130.0938"/></g><!--class TxnImporter--><g id="elem_TxnImporter"><rect codeLine="120" fill="#F1F1F1" height="224.0938" id="TxnImporter" rx="2.5" ry="2.5" style="stroke:#181818;stroke-width:0.5;" width="300" x="1258" y="310"/><ellipse cx="1365.75" cy="326" fill="#A9DCDF" rx="11" ry="11" style="stroke:#181818;stroke-width:1.0;"/><path d="M1367.9375,327.7656 L1363.7969,327.7656 L1363.375,328.7969 L1363.7969,328.7969 Q1364.4063,328.7969 1364.6719,329.0313 Q1364.9375,329.2656 1364.9375,329.6563 Q1364.9375,330.0313 1364.6719,330.2656 Q1364.4063,330.5 1363.7969,330.5 L1361.5,330.5 Q1360.8906,330.5 1360.6328,330.2656 Q1360.375,330.0313 1360.375,329.6406 Q1360.375,329.2656 1360.6484,329.0234 Q1360.9219,328.7813 1361.5469,328.7969 L1364.2188,322.1406 L1363.1094,322.1406 Q1362.5,322.1406 1362.2344,321.9063 Q1361.9688,321.6719 1361.9688,321.2813 Q1361.9688,320.9063 1362.2344,320.6719 Q1362.5,320.4375 1363.1094,320.4375 L1366.7813,320.4375 L1370.1719,328.7969 Q1370.7656,328.7969 1370.9531,328.9375 Q1371.3438,329.2031 1371.3438,329.6563 Q1371.3438,330.0313 1371.0859,330.2656 Q1370.8281,330.5 1370.2188,330.5 L1367.9219,330.5 Q1367.3125,330.5 1367.0469,330.2656 Q1366.7813,330.0313 1366.7813,329.6406 Q1366.7813,329.2656 1367.0469,329.0313 Q1367.3125,328.7969 1367.9219,328.7969 L1368.3438,328.7969 L1367.9375,327.7656 Z M1367.2188,326.0625 L1365.8594,322.6875 L1364.4844,326.0625 L1367.2188,326.0625 Z " fill="#000000"/><text fill="#000000" font-family="sans-serif" font-size="14" font-style="italic" lengthAdjust="spacing" textLength="76" x="1386.25" y="331.7285">TxnImporter</text><line style="stroke:#181818;stroke-width:0.5;" x1="1259" x2="1557" y1="342" y2="342"/><text fill="#000000" font-family="sans-serif" font-size="14" lengthAdjust="spacing" textLength="199" x="1264" y="360.5332">-manager : DashboardManager</text><text fill="#000000" font-family="sans-serif" font-size="14" lengthAdjust="spacing" textLength="130" x="1264" y="378.1426">-batch_id : int | None</text><text fill="#000000" font-family="sans-serif" font-size="14" lengthAdjust="spacing" textLength="188" x="1264" y="395.752">-import_time : datetime | None</text><line style="stroke:#181818;stroke-width:0.5;" x1="1259" x2="1557" y1="402.8281" y2="402.8281"/><text fill="#000000" font-family="sans-serif" font-size="14" lengthAdjust="spacing" textLength="120" x="1264" y="421.3613">+run() : ImportData</text><text fill="#000000" font-family="sans-serif" font-size="14" lengthAdjust="spacing" textLength="197" x="1264" y="438.9707">-_normalize_txn_stage() : None</text><text fill="#000000" font-family="sans-serif" font-size="14" lengthAdjust="spacing" textLength="186" x="1264" y="456.5801">-_validate_txn_stage() : None</text><text fill="#000000" font-family="sans-serif" font-size="14" lengthAdjust="spacing" textLength="288" x="1264" y="474.1895">-_handle_validation_fail(query_failure) : None</text><text fill="#000000" font-family="sans-serif" font-size="14" font-style="italic" lengthAdjust="spacing" textLength="281" x="1264" y="491.7988">-_append_batch_table() : tuple[int, datetime]</text><text fill="#000000" font-family="sans-serif" font-size="14" font-style="italic" lengthAdjust="spacing" textLength="151" x="1264" y="509.4082">-_stage_import() : None</text><text fill="#000000" font-family="sans-serif" font-size="14" font-style="italic" lengthAdjust="spacing" textLength="195" x="1264" y="527.0176">-_handle_import() : ImportData</text></g><!--class TxnImporterManual--><g id="elem_TxnImporterManual"><rect codeLine="133" fill="#F1F1F1" height="153.6563" id="TxnImporterManual" rx="2.5" ry="2.5" style="stroke:#181818;stroke-width:0.5;" width="293" x="944.5" y="647"/><ellipse cx="1026.25" cy="663" fill="#ADD1B2" rx="11" ry="11" style="stroke:#181818;stroke-width:1.0;"/><path d="M1029.0156,658.875 Q1029.1719,658.6563 1029.3594,658.5469 Q1029.5469,658.4375 1029.7656,658.4375 Q1030.1406,658.4375 1030.375,658.6953 Q1030.6094,658.9531 1030.6094,659.5625 L1030.6094,661.0156 Q1030.6094,661.625 1030.375,661.8906 Q1030.1406,662.1563 1029.7656,662.1563 Q1029.4219,662.1563 1029.2188,661.9531 Q1029.0156,661.7656 1028.9063,661.25 Q1028.8594,660.8906 1028.6719,660.7031 Q1028.3438,660.3281 1027.7344,660.1094 Q1027.125,659.8906 1026.5,659.8906 Q1025.7344,659.8906 1025.1016,660.2188 Q1024.4688,660.5469 1023.9766,661.2969 Q1023.4844,662.0469 1023.4844,663.0781 L1023.4844,664.1719 Q1023.4844,665.4063 1024.375,666.2266 Q1025.2656,667.0469 1026.8594,667.0469 Q1027.7969,667.0469 1028.4531,666.7969 Q1028.8438,666.6406 1029.2656,666.2031 Q1029.5313,665.9375 1029.6797,665.8594 Q1029.8281,665.7813 1030.0313,665.7813 Q1030.3594,665.7813 1030.6172,666.0391 Q1030.875,666.2969 1030.875,666.6406 Q1030.875,666.9844 1030.5313,667.3906 Q1030.0313,667.9688 1029.2344,668.2969 Q1028.1563,668.75 1026.8594,668.75 Q1025.3438,668.75 1024.1406,668.125 Q1023.1563,667.625 1022.4688,666.5547 Q1021.7813,665.4844 1021.7813,664.2031 L1021.7813,663.0469 Q1021.7813,661.7188 1022.3984,660.5703 Q1023.0156,659.4219 1024.1094,658.8047 Q1025.2031,658.1875 1026.4375,658.1875 Q1027.1719,658.1875 1027.8203,658.3516 Q1028.4688,658.5156 1029.0156,658.875 Z " fill="#000000"/><text fill="#000000" font-family="sans-serif" font-size="14" lengthAdjust="spacing" textLength="121" x="1046.75" y="668.7285">TxnImporterManual</text><line style="stroke:#181818;stroke-width:0.5;" x1="945.5" x2="1236.5" y1="679" y2="679"/><text fill="#000000" font-family="sans-serif" font-size="14" lengthAdjust="spacing" textLength="93" x="950.5" y="697.5332">+txn : tTestTxn</text><text fill="#000000" font-family="sans-serif" font-size="14" lengthAdjust="spacing" textLength="190" x="950.5" y="715.1426">+create_portfolio : bool | None</text><text fill="#000000" font-family="sans-serif" font-size="14" lengthAdjust="spacing" textLength="215" x="950.5" y="732.752">+batch_type : str = "manual-entry"</text><line style="stroke:#181818;stroke-width:0.5;" x1="945.5" x2="1236.5" y1="739.8281" y2="739.8281"/><text fill="#000000" font-family="sans-serif" font-size="14" lengthAdjust="spacing" textLength="281" x="950.5" y="758.3613">-_append_batch_table() : tuple[int, datetime]</text><text fill="#000000" font-family="sans-serif" font-size="14" lengthAdjust="spacing" textLength="150" x="950.5" y="775.9707">-_stage_import() : None</text><text fill="#000000" font-family="sans-serif" font-size="14" lengthAdjust="spacing" textLength="194" x="950.5" y="793.5801">-_handle_import() : ImportData</text></g><!--class TxnImporterCSV--><g id="elem_TxnImporterCSV"><rect codeLine="142" fill="#F1F1F1" height="171.2656" id="TxnImporterCSV" rx="2.5" ry="2.5" style="stroke:#181818;stroke-width:0.5;" width="293" x="1272.5" y="638.5"/><ellipse cx="1363.25" cy="654.5" fill="#ADD1B2" rx="11" ry="11" style="stroke:#181818;stroke-width:1.0;"/><path d="M1366.0156,650.375 Q1366.1719,650.1563 1366.3594,650.0469 Q1366.5469,649.9375 1366.7656,649.9375 Q1367.1406,649.9375 1367.375,650.1953 Q1367.6094,650.4531 1367.6094,651.0625 L1367.6094,652.5156 Q1367.6094,653.125 1367.375,653.3906 Q1367.1406,653.6563 1366.7656,653.6563 Q1366.4219,653.6563 1366.2188,653.4531 Q1366.0156,653.2656 1365.9063,652.75 Q1365.8594,652.3906 1365.6719,652.2031 Q1365.3438,651.8281 1364.7344,651.6094 Q1364.125,651.3906 1363.5,651.3906 Q1362.7344,651.3906 1362.1016,651.7188 Q1361.4688,652.0469 1360.9766,652.7969 Q1360.4844,653.5469 1360.4844,654.5781 L1360.4844,655.6719 Q1360.4844,656.9063 1361.375,657.7266 Q1362.2656,658.5469 1363.8594,658.5469 Q1364.7969,658.5469 1365.4531,658.2969 Q1365.8438,658.1406 1366.2656,657.7031 Q1366.5313,657.4375 1366.6797,657.3594 Q1366.8281,657.2813 1367.0313,657.2813 Q1367.3594,657.2813 1367.6172,657.5391 Q1367.875,657.7969 1367.875,658.1406 Q1367.875,658.4844 1367.5313,658.8906 Q1367.0313,659.4688 1366.2344,659.7969 Q1365.1563,660.25 1363.8594,660.25 Q1362.3438,660.25 1361.1406,659.625 Q1360.1563,659.125 1359.4688,658.0547 Q1358.7813,656.9844 1358.7813,655.7031 L1358.7813,654.5469 Q1358.7813,653.2188 1359.3984,652.0703 Q1360.0156,650.9219 1361.1094,650.3047 Q1362.2031,649.6875 1363.4375,649.6875 Q1364.1719,649.6875 1364.8203,649.8516 Q1365.4688,650.0156 1366.0156,650.375 Z " fill="#000000"/><text fill="#000000" font-family="sans-serif" font-size="14" lengthAdjust="spacing" textLength="103" x="1383.75" y="660.2285">TxnImporterCSV</text><line style="stroke:#181818;stroke-width:0.5;" x1="1273.5" x2="1564.5" y1="670.5" y2="670.5"/><text fill="#000000" font-family="sans-serif" font-size="14" lengthAdjust="spacing" textLength="106" x="1278.5" y="689.0332">+csv_path : Path</text><text fill="#000000" font-family="sans-serif" font-size="14" lengthAdjust="spacing" textLength="99" x="1278.5" y="706.6426">+delim : str = ","</text><text fill="#000000" font-family="sans-serif" font-size="14" lengthAdjust="spacing" textLength="197" x="1278.5" y="724.252">+batch_type : str = "csv-import"</text><line style="stroke:#181818;stroke-width:0.5;" x1="1273.5" x2="1564.5" y1="731.3281" y2="731.3281"/><text fill="#000000" font-family="sans-serif" font-size="14" lengthAdjust="spacing" textLength="281" x="1278.5" y="749.8613">-_append_batch_table() : tuple[int, datetime]</text><text fill="#000000" font-family="sans-serif" font-size="14" lengthAdjust="spacing" textLength="179" x="1278.5" y="767.4707">-_validate_csv_cols() : None</text><text fill="#000000" font-family="sans-serif" font-size="14" lengthAdjust="spacing" textLength="150" x="1278.5" y="785.0801">-_stage_import() : None</text><text fill="#000000" font-family="sans-serif" font-size="14" lengthAdjust="spacing" textLength="194" x="1278.5" y="802.6895">-_handle_import() : ImportData</text></g><!--class PortfolioView--><g id="elem_PortfolioView"><rect codeLine="179" fill="#F1F1F1" height="224.0938" id="PortfolioView" rx="2.5" ry="2.5" style="stroke:#181818;stroke-width:0.5;" width="379" x="403.5" y="310"/><ellipse cx="548.25" cy="326" fill="#ADD1B2" rx="11" ry="11" style="stroke:#181818;stroke-width:1.0;"/><path d="M551.0156,321.875 Q551.1719,321.6563 551.3594,321.5469 Q551.5469,321.4375 551.7656,321.4375 Q552.1406,321.4375 552.375,321.6953 Q552.6094,321.9531 552.6094,322.5625 L552.6094,324.0156 Q552.6094,324.625 552.375,324.8906 Q552.1406,325.1563 551.7656,325.1563 Q551.4219,325.1563 551.2188,324.9531 Q551.0156,324.7656 550.9063,324.25 Q550.8594,323.8906 550.6719,323.7031 Q550.3438,323.3281 549.7344,323.1094 Q549.125,322.8906 548.5,322.8906 Q547.7344,322.8906 547.1016,323.2188 Q546.4688,323.5469 545.9766,324.2969 Q545.4844,325.0469 545.4844,326.0781 L545.4844,327.1719 Q545.4844,328.4063 546.375,329.2266 Q547.2656,330.0469 548.8594,330.0469 Q549.7969,330.0469 550.4531,329.7969 Q550.8438,329.6406 551.2656,329.2031 Q551.5313,328.9375 551.6797,328.8594 Q551.8281,328.7813 552.0313,328.7813 Q552.3594,328.7813 552.6172,329.0391 Q552.875,329.2969 552.875,329.6406 Q552.875,329.9844 552.5313,330.3906 Q552.0313,330.9688 551.2344,331.2969 Q550.1563,331.75 548.8594,331.75 Q547.3438,331.75 546.1406,331.125 Q545.1563,330.625 544.4688,329.5547 Q543.7813,328.4844 543.7813,327.2031 L543.7813,326.0469 Q543.7813,324.7188 544.3984,323.5703 Q545.0156,322.4219 546.1094,321.8047 Q547.2031,321.1875 548.4375,321.1875 Q549.1719,321.1875 549.8203,321.3516 Q550.4688,321.5156 551.0156,321.875 Z " fill="#000000"/><text fill="#000000" font-family="sans-serif" font-size="14" lengthAdjust="spacing" textLength="81" x="568.75" y="331.7285">PortfolioView</text><line style="stroke:#181818;stroke-width:0.5;" x1="404.5" x2="781.5" y1="342" y2="342"/><text fill="#000000" font-family="sans-serif" font-size="14" lengthAdjust="spacing" textLength="228" x="409.5" y="360.5332">-portfolio_access : PortfolioManager</text><text fill="#000000" font-family="sans-serif" font-size="14" lengthAdjust="spacing" textLength="220" x="409.5" y="378.1426">-root_access : DashboardManager</text><text fill="#000000" font-family="sans-serif" font-size="14" lengthAdjust="spacing" textLength="268" x="409.5" y="395.752">-cmds : dict[str, argparse.ArgumentParser]</text><line style="stroke:#181818;stroke-width:0.5;" x1="404.5" x2="781.5" y1="402.8281" y2="402.8281"/><text fill="#000000" font-family="sans-serif" font-size="14" lengthAdjust="spacing" textLength="148" x="409.5" y="421.3613">+__post_init__() : None</text><text fill="#000000" font-family="sans-serif" font-size="14" lengthAdjust="spacing" textLength="158" x="409.5" y="438.9707">+default_display() : None</text><text fill="#000000" font-family="sans-serif" font-size="14" lengthAdjust="spacing" textLength="129" x="409.5" y="456.5801">+prompt_input() : str</text><text fill="#000000" font-family="sans-serif" font-size="14" lengthAdjust="spacing" textLength="187" x="409.5" y="474.1895">+handle_input(line: str) : View</text><text fill="#000000" font-family="sans-serif" font-size="14" lengthAdjust="spacing" textLength="223" x="409.5" y="491.7988">-_handle_help(args: list[str]) : None</text><text fill="#000000" font-family="sans-serif" font-size="14" lengthAdjust="spacing" textLength="241" x="409.5" y="509.4082">-_prompt_txn_fields() : tTestTxn | View</text><text fill="#000000" font-family="sans-serif" font-size="14" lengthAdjust="spacing" text-decoration="underline" textLength="367" x="409.5" y="527.0176">+build_port_parsers() : dict[str, argparse.ArgumentParser]</text></g><!--class DashboardView--><g id="elem_DashboardView"><rect codeLine="168" fill="#F1F1F1" height="188.875" id="DashboardView" rx="2.5" ry="2.5" style="stroke:#181818;stroke-width:0.5;" width="385" x="817.5" y="327.5"/><ellipse cx="956.25" cy="343.5" fill="#ADD1B2" rx="11" ry="11" style="stroke:#181818;stroke-width:1.0;"/><path d="M959.0156,339.375 Q959.1719,339.1563 959.3594,339.0469 Q959.5469,338.9375 959.7656,338.9375 Q960.1406,338.9375 960.375,339.1953 Q960.6094,339.4531 960.6094,340.0625 L960.6094,341.5156 Q960.6094,342.125 960.375,342.3906 Q960.1406,342.6563 959.7656,342.6563 Q959.4219,342.6563 959.2188,342.4531 Q959.0156,342.2656 958.9063,341.75 Q958.8594,341.3906 958.6719,341.2031 Q958.3438,340.8281 957.7344,340.6094 Q957.125,340.3906 956.5,340.3906 Q955.7344,340.3906 955.1016,340.7188 Q954.4688,341.0469 953.9766,341.7969 Q953.4844,342.5469 953.4844,343.5781 L953.4844,344.6719 Q953.4844,345.9063 954.375,346.7266 Q955.2656,347.5469 956.8594,347.5469 Q957.7969,347.5469 958.4531,347.2969 Q958.8438,347.1406 959.2656,346.7031 Q959.5313,346.4375 959.6797,346.3594 Q959.8281,346.2813 960.0313,346.2813 Q960.3594,346.2813 960.6172,346.5391 Q960.875,346.7969 960.875,347.1406 Q960.875,347.4844 960.5313,347.8906 Q960.0313,348.4688 959.2344,348.7969 Q958.1563,349.25 956.8594,349.25 Q955.3438,349.25 954.1406,348.625 Q953.1563,348.125 952.4688,347.0547 Q951.7813,345.9844 951.7813,344.7031 L951.7813,343.5469 Q951.7813,342.2188 952.3984,341.0703 Q953.0156,339.9219 954.1094,339.3047 Q955.2031,338.6875 956.4375,338.6875 Q957.1719,338.6875 957.8203,338.8516 Q958.4688,339.0156 959.0156,339.375 Z " fill="#000000"/><text fill="#000000" font-family="sans-serif" font-size="14" lengthAdjust="spacing" textLength="99" x="976.75" y="349.2285">DashboardView</text><line style="stroke:#181818;stroke-width:0.5;" x1="818.5" x2="1201.5" y1="359.5" y2="359.5"/><text fill="#000000" font-family="sans-serif" font-size="14" lengthAdjust="spacing" textLength="187" x="823.5" y="378.0332">-access : DashboardManager</text><text fill="#000000" font-family="sans-serif" font-size="14" lengthAdjust="spacing" textLength="268" x="823.5" y="395.6426">-cmds : dict[str, argparse.ArgumentParser]</text><line style="stroke:#181818;stroke-width:0.5;" x1="818.5" x2="1201.5" y1="402.7188" y2="402.7188"/><text fill="#000000" font-family="sans-serif" font-size="14" lengthAdjust="spacing" textLength="148" x="823.5" y="421.252">+__post_init__() : None</text><text fill="#000000" font-family="sans-serif" font-size="14" lengthAdjust="spacing" textLength="158" x="823.5" y="438.8613">+default_display() : None</text><text fill="#000000" font-family="sans-serif" font-size="14" lengthAdjust="spacing" textLength="129" x="823.5" y="456.4707">+prompt_input() : str</text><text fill="#000000" font-family="sans-serif" font-size="14" lengthAdjust="spacing" textLength="187" x="823.5" y="474.0801">+handle_input(line: str) : View</text><text fill="#000000" font-family="sans-serif" font-size="14" lengthAdjust="spacing" textLength="223" x="823.5" y="491.6895">-_handle_help(args: list[str]) : None</text><text fill="#000000" font-family="sans-serif" font-size="14" lengthAdjust="spacing" text-decoration="underline" textLength="373" x="823.5" y="509.2988">+build_dash_parsers() : dict[str, argparse.ArgumentParser]</text></g><!--class View--><g id="elem_View"><rect codeLine="162" fill="#F1F1F1" height="100.8281" id="View" rx="2.5" ry="2.5" style="stroke:#181818;stroke-width:0.5;" width="195" x="656.5" y="77.5"/><ellipse cx="735.25" cy="93.5" fill="#A9DCDF" rx="11" ry="11" style="stroke:#181818;stroke-width:1.0;"/><path d="M737.4375,95.2656 L733.2969,95.2656 L732.875,96.2969 L733.2969,96.2969 Q733.9063,96.2969 734.1719,96.5313 Q734.4375,96.7656 734.4375,97.1563 Q734.4375,97.5313 734.1719,97.7656 Q733.9063,98 733.2969,98 L731,98 Q730.3906,98 730.1328,97.7656 Q729.875,97.5313 729.875,97.1406 Q729.875,96.7656 730.1484,96.5234 Q730.4219,96.2813 731.0469,96.2969 L733.7188,89.6406 L732.6094,89.6406 Q732,89.6406 731.7344,89.4063 Q731.4688,89.1719 731.4688,88.7813 Q731.4688,88.4063 731.7344,88.1719 Q732,87.9375 732.6094,87.9375 L736.2813,87.9375 L739.6719,96.2969 Q740.2656,96.2969 740.4531,96.4375 Q740.8438,96.7031 740.8438,97.1563 Q740.8438,97.5313 740.5859,97.7656 Q740.3281,98 739.7188,98 L737.4219,98 Q736.8125,98 736.5469,97.7656 Q736.2813,97.5313 736.2813,97.1406 Q736.2813,96.7656 736.5469,96.5313 Q736.8125,96.2969 737.4219,96.2969 L737.8438,96.2969 L737.4375,95.2656 Z M736.7188,93.5625 L735.3594,90.1875 L733.9844,93.5625 L736.7188,93.5625 Z " fill="#000000"/><text fill="#000000" font-family="sans-serif" font-size="14" font-style="italic" lengthAdjust="spacing" textLength="29" x="755.75" y="99.2285">View</text><line style="stroke:#181818;stroke-width:0.5;" x1="657.5" x2="850.5" y1="109.5" y2="109.5"/><line style="stroke:#181818;stroke-width:0.5;" x1="657.5" x2="850.5" y1="117.5" y2="117.5"/><text fill="#000000" font-family="sans-serif" font-size="14" lengthAdjust="spacing" textLength="113" x="662.5" y="136.0332">+default_display()</text><text fill="#000000" font-family="sans-serif" font-size="14" lengthAdjust="spacing" textLength="129" x="662.5" y="153.6426">+prompt_input() : str</text><text fill="#000000" font-family="sans-serif" font-size="14" lengthAdjust="spacing" textLength="183" x="662.5" y="171.252">+handle_input(line:str) : View</text></g><!--link DB to init_db--><g id="link_DB_init_db"><path codeLine="15" d="M490,1300.34 C490,1320.4 490,1336.97 490,1354.8 " fill="none" id="DB-to-init_db" style="stroke:#181818;stroke-width:1.0;stroke-dasharray:7.0,7.0;"/><polygon fill="#181818" points="490,1360.8,494,1351.8,490,1355.8,486,1351.8,490,1360.8" style="stroke:#181818;stroke-width:1.0;"/></g><!--reverse link ImportData to PortfolioImportData--><g id="link_ImportData_PortfolioImportData"><path codeLine="72" d="M1670,199.04 C1670,249.93 1670,311.56 1670,362.57 " fill="none" id="ImportData-backto-PortfolioImportData" style="stroke:#181818;stroke-width:1.0;"/><polygon fill="none" points="1670,187.04,1666,193.04,1670,199.04,1674,193.04,1670,187.04" style="stroke:#181818;stroke-width:1.0;"/><text fill="#000000" font-family="sans-serif" font-size="13" lengthAdjust="spacing" textLength="7" x="1662.5516" y="209.1191">1</text><text fill="#000000" font-family="sans-serif" font-size="13" lengthAdjust="spacing" textLength="20" x="1648.8438" y="352.2636">0..*</text></g><!--link DashboardManager to DB--><g id="link_DashboardManager_DB"><path codeLine="101" d="M559.16,836.42 C555.37,920.1 546.54,1037.15 526,1138 C521.87,1158.26 517.219,1174.3419 510.799,1193.1419 " fill="none" id="DashboardManager-to-DB" style="stroke:#181818;stroke-width:1.0;"/><polygon fill="#181818" points="508.86,1198.82,515.5539,1191.5956,510.4758,1194.0883,507.9831,1189.0103,508.86,1198.82" style="stroke:#181818;stroke-width:1.0;"/></g><!--link PortfolioManager to DB--><g id="link_PortfolioManager_DB"><path codeLine="102" d="M451.8,1129.32 C459.54,1153.47 465.6185,1172.4364 472.2185,1193.0264 " fill="none" id="PortfolioManager-to-DB" style="stroke:#181818;stroke-width:1.0;"/><polygon fill="#181818" points="474.05,1198.74,475.1119,1188.9486,472.5238,1193.9786,467.4937,1191.3905,474.05,1198.74" style="stroke:#181818;stroke-width:1.0;"/></g><!--link DashboardManager to PortfolioManager--><g id="link_DashboardManager_PortfolioManager"><path codeLine="103" d="M505.57,836.01 C500.59,846.12 495.67,856.23 491,866 C482.25,884.32 475.6319,898.4819 466.9619,917.4719 " fill="none" id="DashboardManager-to-PortfolioManager" style="stroke:#181818;stroke-width:1.0;"/><polygon fill="#181818" points="464.47,922.93,471.8466,916.4042,466.5466,918.3816,464.5692,913.0816,464.47,922.93" style="stroke:#181818;stroke-width:1.0;"/><text fill="#000000" font-family="sans-serif" font-size="13" lengthAdjust="spacing" textLength="43" x="492" y="880.4951">creates</text></g><!--reverse link TxnImporter to TxnImporterManual--><g id="link_TxnImporter_TxnImporterManual"><path codeLine="152" d="M1277.3373,546.6535 C1237.6973,584.1735 1207.46,612.79 1171.36,646.95 " fill="none" id="TxnImporter-backto-TxnImporterManual" style="stroke:#181818;stroke-width:1.0;"/><polygon fill="none" points="1290.41,534.28,1273.2128,542.296,1281.4618,551.0111,1290.41,534.28" style="stroke:#181818;stroke-width:1.0;"/></g><!--reverse link TxnImporter to TxnImporterCSV--><g id="link_TxnImporter_TxnImporterCSV"><path codeLine="153" d="M1412.7398,552.2679 C1413.9998,586.6179 1414.71,605.89 1415.89,638.16 " fill="none" id="TxnImporter-backto-TxnImporterCSV" style="stroke:#181818;stroke-width:1.0;"/><polygon fill="none" points="1412.08,534.28,1406.7439,552.4878,1418.7358,552.048,1412.08,534.28" style="stroke:#181818;stroke-width:1.0;"/></g><!--reverse link TxnImporterManual to tTestTxn--><g id="link_TxnImporterManual_tTestTxn"><path codeLine="154" d="M1034.1703,811.1056 C1011.6003,845.3056 991.13,876.32 966.35,913.86 " fill="none" id="TxnImporterManual-backto-tTestTxn" style="stroke:#181818;stroke-width:1.0;"/><polygon fill="#181818" points="1040.78,801.09,1034.1366,803.8946,1034.1703,811.1056,1040.8137,808.301,1040.78,801.09" style="stroke:#181818;stroke-width:1.0;"/><text fill="#000000" font-family="sans-serif" font-size="13" lengthAdjust="spacing" textLength="20" x="1015.4167" y="822.1944">1..*</text><text fill="#000000" font-family="sans-serif" font-size="13" lengthAdjust="spacing" textLength="7" x="964.043" y="903.2919">1</text></g><!--link PortfolioView to TxnImporterManual--><g id="link_PortfolioView_TxnImporterManual"><path codeLine="156" d="M782.72,530.95 C801.78,542.03 820.8,553.19 839,564 C874,584.79 882.51,590.39 917,612 C934.91,623.23 948.7456,631.9526 967.2256,643.6926 " fill="none" id="PortfolioView-to-TxnImporterManual" style="stroke:#181818;stroke-width:1.0;"/><polygon fill="#181818" points="972.29,646.91,966.8382,638.7077,968.0696,644.2289,962.5484,645.4603,972.29,646.91" style="stroke:#181818;stroke-width:1.0;"/><text fill="#000000" font-family="sans-serif" font-size="13" lengthAdjust="spacing" textLength="45" x="869" y="578.4951">initiates</text></g><!--link DashboardView to TxnImporterCSV--><g id="link_DashboardView_TxnImporterCSV"><path codeLine="157" d="M1137.73,516.69 C1190.82,555.63 1247.1423,596.9408 1298.8423,634.8708 " fill="none" id="DashboardView-to-TxnImporterCSV" style="stroke:#181818;stroke-width:1.0;"/><polygon fill="#181818" points="1303.68,638.42,1298.7896,629.8711,1299.6486,635.4623,1294.0573,636.3213,1303.68,638.42" style="stroke:#181818;stroke-width:1.0;"/><text fill="#000000" font-family="sans-serif" font-size="13" lengthAdjust="spacing" textLength="45" x="1228" y="578.4951">initiates</text></g><!--link PortfolioView to tTestTxn--><g id="link_PortfolioView_tTestTxn"><path codeLine="158" d="M704.59,534.07 C725.01,558.36 744.68,584.95 760,612 C811.47,702.87 798.95,736.6 831,836 C839.11,861.14 846.0422,882.4381 854.3922,907.9281 " fill="none" id="PortfolioView-to-tTestTxn" style="stroke:#181818;stroke-width:1.0;"/><polygon fill="#181818" points="856.26,913.63,857.2595,903.832,854.7035,908.8784,849.657,906.3224,856.26,913.63" style="stroke:#181818;stroke-width:1.0;"/><text fill="#000000" font-family="sans-serif" font-size="13" lengthAdjust="spacing" textLength="94" x="832" y="729.4951">creates test Txn</text></g><!--reverse link View to DashboardView--><g id="link_View_DashboardView"><path codeLine="192" d="M809.2953,192.0657 C844.9553,232.7457 884.61,277.97 927.99,327.46 " fill="none" id="View-backto-DashboardView" style="stroke:#181818;stroke-width:1.0;"/><polygon fill="none" points="797.43,178.53,804.7834,196.0208,813.8072,188.1105,797.43,178.53" style="stroke:#181818;stroke-width:1.0;"/></g><!--reverse link View to PortfolioView--><g id="link_View_PortfolioView"><path codeLine="193" d="M717.998,194.2923 C698.168,230.2523 679.24,264.58 654.25,309.91 " fill="none" id="View-backto-PortfolioView" style="stroke:#181818;stroke-width:1.0;"/><polygon fill="none" points="726.69,178.53,712.7439,191.3949,723.2521,197.1896,726.69,178.53" style="stroke:#181818;stroke-width:1.0;"/></g><!--link DashboardView to DashboardManager--><g id="link_DashboardView_DashboardManager"><path codeLine="195" d="M870.09,516.69 C825.04,546.86 779.6554,577.2515 732.9154,608.5515 " fill="none" id="DashboardView-to-DashboardManager" style="stroke:#181818;stroke-width:1.0;"/><polygon fill="#181818" points="727.93,611.89,737.6338,610.2058,732.0845,609.1079,733.1824,603.5586,727.93,611.89" style="stroke:#181818;stroke-width:1.0;"/></g><!--link PortfolioView to PortfolioManager--><g id="link_PortfolioView_PortfolioManager"><path codeLine="196" d="M420.52,534.2 C397.24,557 376.69,583.03 363,612 C316.39,710.62 342.0996,830.6533 372.7496,917.3233 " fill="none" id="PortfolioView-to-PortfolioManager" style="stroke:#181818;stroke-width:1.0;"/><polygon fill="#181818" points="374.75,922.98,375.5205,913.1613,373.083,918.2661,367.9782,915.8286,374.75,922.98" style="stroke:#181818;stroke-width:1.0;"/></g><!--link PortfolioView to DashboardManager--><g id="link_PortfolioView_DashboardManager"><path codeLine="197" d="M581.5,534.28 C578.88,559.63 576.7171,580.5918 574.0971,605.9318 " fill="none" id="PortfolioView-to-DashboardManager" style="stroke:#181818;stroke-width:1.0;"/><polygon fill="#181818" points="573.48,611.9,578.3844,603.3591,573.9942,606.9265,570.4268,602.5363,573.48,611.9" style="stroke:#181818;stroke-width:1.0;"/></g><!--SRC=[vLTBRziu4BxxLn2-L7d8QA_6Re6allImHO0MlGG1GKbqJ8GYLP9gwqtyttT8KHGbIjcc0VQoXpZclEVZF6Zzm4H35AbHoOdMLyOeLhI6VYob-Cp-fkZjQlK6xOWX1T4KrRAYNAFLoacZtJLwN26KeuQO0zgY6_Zdpg0juBnhouVTzStn0nnfQPWKmBrmN3XcP_CYfzuy4ypWgd0-BlfJLXMWTNrcnS3_PlE-vxX8PKsOy77sThxy5Dw6-Iamgy0j4yOH6gdCNd8cEx8sgfDZDSNQaBe1OaKCjOHWmHmR6Wc32sh6-j_C4KvxBebterX9HvIoF4Ro9T47J6ep4jbJcj0AOih3u2j0TMLZy4dEnDEHPkFMRJ6X3w45ypSzJDx51BOKJK7gaKb50SGA4pF5issg1OujE3mRYsQsJfuFvHSkfP3o0PTIZn467mRxgEAGJhQyFjRMNLzbBXwg4v0wATiqhuCBA10ZdrwyLGze9BucWWDfSijCQAeiyah-q7D1QKpsUsX95mTdsjpE97Xd8ubYMBzR8vddQFrsipbVpq5YOVoB279FLK1k1-LVIA8gp_1J1LhVjdgOA2u-sL2HdOMlU02nE4BQ6Qksa8eTBS6vjxgWOx7FxCSMe5dKim0CUZhxvBmCB9WByqJhuZpXDBw8zJ9df9Xsuhz2bS-NNRvSTj03rP1ZDiBYlymqAOSyVs-JItBtz5dvH7ZhsqeFZHoLeFb2jHaMnKixzXKB0psXJrBGwOYAoQFr4JEUtoAnv6IPz2n0cnIWJqg3mhBimV6rLGS0fq0xzdZW33vpn9mTRA68K8cZKgrmPHQD1wk8XLGruV3-i8LbSRsdJYwOnj-1RIqk2Xo8g3ZjvQ3Cy9umddrhgJgwhwsYaSPZ3yF9AfC6naI5_U0a1U-icxRXz1Qol0pPt2MwBXZSvPujUl3XHM8H1gVevT9V1a3U4ZwyOsmulcQZdJ6qhryUCThJFO3-HElQcSsfCEguxf1xMVBFPFmxQNxu_DNdMEhlUFokl43mgcFr4FpbUZ4lqCuxhx-RLQWm6qWfkPwazegiunxxumdMPNBFpue0HgkqCjRltCezjziNjd0eZc5iVcNqXvkDgVBMFQAP6u-Xo-VaxVt4mgdnC4d3m4NmPv2BvGsoScxkJkQEqt_qjxmdBOSdFTCD9qU_xHibwmR6fcZQ3jD-xFLeEmPd8YnoQt8eid5QtMWZPKcrNffiPLrPNiLASmicBn5Hz_1ZITFDbRflQ-YP6tjITouCR1UQZGz-ZE2u86OIYfalo0l5YSMLTg2yoI0wxLzg87SNZnweLSFAa-sLbl4ALtPJk5HKLzQ_a6Fw18c071PZW7Jc6PKZ9QN1_nFKGT1xiJjgpoYlEh13XpprDfCBSelpvHVaRiIDYr6rH_JHvQrcUZsvaxJ3avjDHH8h_m00]--></g></svg>