<?xml version="1.0" encoding="us-ascii" standalone="no"?><svg xmlns="http://www.w3.org/2000/svg" xmlns:xlink="http://www.w3.org/1999/xlink" contentStyleType="text/css" height="1240px" preserveAspectRatio="none" style="width:1371px;height:1240px;background:#FFFFFF;" version="1.1" viewBox="0 0 1371 1240" width="1371px" zoomAndPan="magnify"><defs/><g><!--class DB--><g id="elem_DB"><rect codeLine="5" fill="#F1F1F1" height="100.8281" id="DB" rx="2.5" ry="2.5" style="stroke:#181818;stroke-width:0.5;" width="231" x="590.5" y="1006"/><ellipse cx="692.25" cy="1022" fill="#ADD1B2" rx="11" ry="11" style="stroke:#181818;stroke-width:1.0;"/><path d="M695.0156,1017.875 Q695.1719,1017.6563 695.3594,1017.5469 Q695.5469,1017.4375 695.7656,1017.4375 Q696.1406,1017.4375 696.375,1017.6953 Q696.6094,1017.9531 696.6094,1018.5625 L696.6094,1020.0156 Q696.6094,1020.625 696.375,1020.8906 Q696.1406,1021.1563 695.7656,1021.1563 Q695.4219,1021.1563 695.2188,1020.9531 Q695.0156,1020.7656 694.9063,1020.25 Q694.8594,1019.8906 694.6719,1019.7031 Q694.3438,1019.3281 693.7344,1019.1094 Q693.125,1018.8906 692.5,1018.8906 Q691.7344,1018.8906 691.1016,1019.2188 Q690.4688,1019.5469 689.9766,1020.2969 Q689.4844,1021.0469 689.4844,1022.0781 L689.4844,1023.1719 Q689.4844,1024.4063 690.375,1025.2266 Q691.2656,1026.0469 692.8594,1026.0469 Q693.7969,1026.0469 694.4531,1025.7969 Q694.8438,1025.6406 695.2656,1025.2031 Q695.5313,1024.9375 695.6797,1024.8594 Q695.8281,1024.7813 696.0313,1024.7813 Q696.3594,1024.7813 696.6172,1025.0391 Q696.875,1025.2969 696.875,1025.6406 Q696.875,1025.9844 696.5313,1026.3906 Q696.0313,1026.9688 695.2344,1027.2969 Q694.1563,1027.75 692.8594,1027.75 Q691.3438,1027.75 690.1406,1027.125 Q689.1563,1026.625 688.4688,1025.5547 Q687.7813,1024.4844 687.7813,1023.2031 L687.7813,1022.0469 Q687.7813,1020.7188 688.3984,1019.5703 Q689.0156,1018.4219 690.1094,1017.8047 Q691.2031,1017.1875 692.4375,1017.1875 Q693.1719,1017.1875 693.8203,1017.3516 Q694.4688,1017.5156 695.0156,1017.875 Z " fill="#000000"/><text fill="#000000" font-family="sans-serif" font-size="14" lengthAdjust="spacing" textLength="19" x="712.75" y="1027.7285">DB</text><line style="stroke:#181818;stroke-width:0.5;" x1="591.5" x2="820.5" y1="1038" y2="1038"/><text fill="#000000" font-family="sans-serif" font-size="14" lengthAdjust="spacing" textLength="74" x="596.5" y="1056.5332">-path : Path</text><text fill="#000000" font-family="sans-serif" font-size="14" lengthAdjust="spacing" textLength="187" x="596.5" y="1074.1426">-conn : DuckDBPyConnection</text><line style="stroke:#181818;stroke-width:0.5;" x1="591.5" x2="820.5" y1="1081.2188" y2="1081.2188"/><text fill="#000000" font-family="sans-serif" font-size="14" lengthAdjust="spacing" textLength="219" x="596.5" y="1099.752">+connect() : DuckDBPyConnection</text></g><!--class init_db--><g id="elem_init_db"><rect codeLine="11" fill="#F1F1F1" height="65.6094" id="init_db" rx="2.5" ry="2.5" style="stroke:#181818;stroke-width:0.5;" width="115" x="648.5" y="1168"/><ellipse cx="681.95" cy="1184" fill="#ADD1B2" rx="11" ry="11" style="stroke:#181818;stroke-width:1.0;"/><path d="M684.7156,1179.875 Q684.8719,1179.6563 685.0594,1179.5469 Q685.2469,1179.4375 685.4656,1179.4375 Q685.8406,1179.4375 686.075,1179.6953 Q686.3094,1179.9531 686.3094,1180.5625 L686.3094,1182.0156 Q686.3094,1182.625 686.075,1182.8906 Q685.8406,1183.1563 685.4656,1183.1563 Q685.1219,1183.1563 684.9188,1182.9531 Q684.7156,1182.7656 684.6063,1182.25 Q684.5594,1181.8906 684.3719,1181.7031 Q684.0438,1181.3281 683.4344,1181.1094 Q682.825,1180.8906 682.2,1180.8906 Q681.4344,1180.8906 680.8016,1181.2188 Q680.1688,1181.5469 679.6766,1182.2969 Q679.1844,1183.0469 679.1844,1184.0781 L679.1844,1185.1719 Q679.1844,1186.4063 680.075,1187.2266 Q680.9656,1188.0469 682.5594,1188.0469 Q683.4969,1188.0469 684.1531,1187.7969 Q684.5438,1187.6406 684.9656,1187.2031 Q685.2313,1186.9375 685.3797,1186.8594 Q685.5281,1186.7813 685.7313,1186.7813 Q686.0594,1186.7813 686.3172,1187.0391 Q686.575,1187.2969 686.575,1187.6406 Q686.575,1187.9844 686.2313,1188.3906 Q685.7313,1188.9688 684.9344,1189.2969 Q683.8563,1189.75 682.5594,1189.75 Q681.0438,1189.75 679.8406,1189.125 Q678.8563,1188.625 678.1688,1187.5547 Q677.4813,1186.4844 677.4813,1185.2031 L677.4813,1184.0469 Q677.4813,1182.7188 678.0984,1181.5703 Q678.7156,1180.4219 679.8094,1179.8047 Q680.9031,1179.1875 682.1375,1179.1875 Q682.8719,1179.1875 683.5203,1179.3516 Q684.1688,1179.5156 684.7156,1179.875 Z " fill="#000000"/><text fill="#000000" font-family="sans-serif" font-size="14" lengthAdjust="spacing" textLength="42" x="700.05" y="1189.7285">init_db</text><line style="stroke:#181818;stroke-width:0.5;" x1="649.5" x2="762.5" y1="1200" y2="1200"/><line style="stroke:#181818;stroke-width:0.5;" x1="649.5" x2="762.5" y1="1208" y2="1208"/><text fill="#000000" font-family="sans-serif" font-size="14" lengthAdjust="spacing" textLength="103" x="654.5" y="1226.5332">+init_db(db: DB)</text></g><!--class Txn--><g id="elem_Txn"><rect codeLine="19" fill="#F1F1F1" height="241.7031" id="Txn" rx="2.5" ry="2.5" style="stroke:#181818;stroke-width:0.5;" width="158" x="7" y="7"/><ellipse cx="70.25" cy="23" fill="#ADD1B2" rx="11" ry="11" style="stroke:#181818;stroke-width:1.0;"/><path d="M73.0156,18.875 Q73.1719,18.6563 73.3594,18.5469 Q73.5469,18.4375 73.7656,18.4375 Q74.1406,18.4375 74.375,18.6953 Q74.6094,18.9531 74.6094,19.5625 L74.6094,21.0156 Q74.6094,21.625 74.375,21.8906 Q74.1406,22.1563 73.7656,22.1563 Q73.4219,22.1563 73.2188,21.9531 Q73.0156,21.7656 72.9063,21.25 Q72.8594,20.8906 72.6719,20.7031 Q72.3438,20.3281 71.7344,20.1094 Q71.125,19.8906 70.5,19.8906 Q69.7344,19.8906 69.1016,20.2188 Q68.4688,20.5469 67.9766,21.2969 Q67.4844,22.0469 67.4844,23.0781 L67.4844,24.1719 Q67.4844,25.4063 68.375,26.2266 Q69.2656,27.0469 70.8594,27.0469 Q71.7969,27.0469 72.4531,26.7969 Q72.8438,26.6406 73.2656,26.2031 Q73.5313,25.9375 73.6797,25.8594 Q73.8281,25.7813 74.0313,25.7813 Q74.3594,25.7813 74.6172,26.0391 Q74.875,26.2969 74.875,26.6406 Q74.875,26.9844 74.5313,27.3906 Q74.0313,27.9688 73.2344,28.2969 Q72.1563,28.75 70.8594,28.75 Q69.3438,28.75 68.1406,28.125 Q67.1563,27.625 66.4688,26.5547 Q65.7813,25.4844 65.7813,24.2031 L65.7813,23.0469 Q65.7813,21.7188 66.3984,20.5703 Q67.0156,19.4219 68.1094,18.8047 Q69.2031,18.1875 70.4375,18.1875 Q71.1719,18.1875 71.8203,18.3516 Q72.4688,18.5156 73.0156,18.875 Z " fill="#000000"/><text fill="#000000" font-family="sans-serif" font-size="14" lengthAdjust="spacing" textLength="23" x="90.75" y="28.7285">Txn</text><line style="stroke:#181818;stroke-width:0.5;" x1="8" x2="164" y1="39" y2="39"/><text fill="#000000" font-family="sans-serif" font-size="14" lengthAdjust="spacing" textLength="72" x="13" y="57.5332">+txn_id : int</text><text fill="#000000" font-family="sans-serif" font-size="14" lengthAdjust="spacing" textLength="106" x="13" y="75.1426">+portfolio_id : str</text><text fill="#000000" font-family="sans-serif" font-size="14" lengthAdjust="spacing" textLength="146" x="13" y="92.752">+time_stamp : datetime</text><text fill="#000000" font-family="sans-serif" font-size="14" lengthAdjust="spacing" textLength="89" x="13" y="110.3613">+txn_type : str</text><text fill="#000000" font-family="sans-serif" font-size="14" lengthAdjust="spacing" textLength="89" x="13" y="127.9707">+asset_id : str</text><text fill="#000000" font-family="sans-serif" font-size="14" lengthAdjust="spacing" textLength="66" x="13" y="145.5801">+qty : float</text><text fill="#000000" font-family="sans-serif" font-size="14" lengthAdjust="spacing" textLength="78" x="13" y="163.1895">+price : float</text><text fill="#000000" font-family="sans-serif" font-size="14" lengthAdjust="spacing" textLength="57" x="13" y="180.7988">+ccy : str</text><text fill="#000000" font-family="sans-serif" font-size="14" lengthAdjust="spacing" textLength="108" x="13" y="198.4082">+cash_amt : float</text><text fill="#000000" font-family="sans-serif" font-size="14" lengthAdjust="spacing" textLength="98" x="13" y="216.0176">+fee_amt : float</text><text fill="#000000" font-family="sans-serif" font-size="14" lengthAdjust="spacing" textLength="90" x="13" y="233.627">+batch_id : str</text><line style="stroke:#181818;stroke-width:0.5;" x1="8" x2="164" y1="240.7031" y2="240.7031"/></g><!--class Asset--><g id="elem_Asset"><rect codeLine="33" fill="#F1F1F1" height="118.4375" id="Asset" rx="2.5" ry="2.5" style="stroke:#181818;stroke-width:0.5;" width="140" x="200" y="69"/><ellipse cx="248.25" cy="85" fill="#ADD1B2" rx="11" ry="11" style="stroke:#181818;stroke-width:1.0;"/><path d="M251.0156,80.875 Q251.1719,80.6563 251.3594,80.5469 Q251.5469,80.4375 251.7656,80.4375 Q252.1406,80.4375 252.375,80.6953 Q252.6094,80.9531 252.6094,81.5625 L252.6094,83.0156 Q252.6094,83.625 252.375,83.8906 Q252.1406,84.1563 251.7656,84.1563 Q251.4219,84.1563 251.2188,83.9531 Q251.0156,83.7656 250.9063,83.25 Q250.8594,82.8906 250.6719,82.7031 Q250.3438,82.3281 249.7344,82.1094 Q249.125,81.8906 248.5,81.8906 Q247.7344,81.8906 247.1016,82.2188 Q246.4688,82.5469 245.9766,83.2969 Q245.4844,84.0469 245.4844,85.0781 L245.4844,86.1719 Q245.4844,87.4063 246.375,88.2266 Q247.2656,89.0469 248.8594,89.0469 Q249.7969,89.0469 250.4531,88.7969 Q250.8438,88.6406 251.2656,88.2031 Q251.5313,87.9375 251.6797,87.8594 Q251.8281,87.7813 252.0313,87.7813 Q252.3594,87.7813 252.6172,88.0391 Q252.875,88.2969 252.875,88.6406 Q252.875,88.9844 252.5313,89.3906 Q252.0313,89.9688 251.2344,90.2969 Q250.1563,90.75 248.8594,90.75 Q247.3438,90.75 246.1406,90.125 Q245.1563,89.625 244.4688,88.5547 Q243.7813,87.4844 243.7813,86.2031 L243.7813,85.0469 Q243.7813,83.7188 244.3984,82.5703 Q245.0156,81.4219 246.1094,80.8047 Q247.2031,80.1875 248.4375,80.1875 Q249.1719,80.1875 249.8203,80.3516 Q250.4688,80.5156 251.0156,80.875 Z " fill="#000000"/><text fill="#000000" font-family="sans-serif" font-size="14" lengthAdjust="spacing" textLength="35" x="268.75" y="90.7285">Asset</text><line style="stroke:#181818;stroke-width:0.5;" x1="201" x2="339" y1="101" y2="101"/><text fill="#000000" font-family="sans-serif" font-size="14" lengthAdjust="spacing" textLength="89" x="206" y="119.5332">+asset_id : str</text><text fill="#000000" font-family="sans-serif" font-size="14" lengthAdjust="spacing" textLength="105" x="206" y="137.1426">+asset_type : str</text><text fill="#000000" font-family="sans-serif" font-size="14" lengthAdjust="spacing" textLength="128" x="206" y="154.752">+asset_subtype : str</text><text fill="#000000" font-family="sans-serif" font-size="14" lengthAdjust="spacing" textLength="57" x="206" y="172.3613">+ccy : str</text><line style="stroke:#181818;stroke-width:0.5;" x1="201" x2="339" y1="179.4375" y2="179.4375"/></g><!--class Portfolio--><g id="elem_Portfolio"><rect codeLine="40" fill="#F1F1F1" height="136.0469" id="Portfolio" rx="2.5" ry="2.5" style="stroke:#181818;stroke-width:0.5;" width="158" x="7" y="310"/><ellipse cx="55.75" cy="326" fill="#ADD1B2" rx="11" ry="11" style="stroke:#181818;stroke-width:1.0;"/><path d="M58.5156,321.875 Q58.6719,321.6563 58.8594,321.5469 Q59.0469,321.4375 59.2656,321.4375 Q59.6406,321.4375 59.875,321.6953 Q60.1094,321.9531 60.1094,322.5625 L60.1094,324.0156 Q60.1094,324.625 59.875,324.8906 Q59.6406,325.1563 59.2656,325.1563 Q58.9219,325.1563 58.7188,324.9531 Q58.5156,324.7656 58.4063,324.25 Q58.3594,323.8906 58.1719,323.7031 Q57.8438,323.3281 57.2344,323.1094 Q56.625,322.8906 56,322.8906 Q55.2344,322.8906 54.6016,323.2188 Q53.9688,323.5469 53.4766,324.2969 Q52.9844,325.0469 52.9844,326.0781 L52.9844,327.1719 Q52.9844,328.4063 53.875,329.2266 Q54.7656,330.0469 56.3594,330.0469 Q57.2969,330.0469 57.9531,329.7969 Q58.3438,329.6406 58.7656,329.2031 Q59.0313,328.9375 59.1797,328.8594 Q59.3281,328.7813 59.5313,328.7813 Q59.8594,328.7813 60.1172,329.0391 Q60.375,329.2969 60.375,329.6406 Q60.375,329.9844 60.0313,330.3906 Q59.5313,330.9688 58.7344,331.2969 Q57.6563,331.75 56.3594,331.75 Q54.8438,331.75 53.6406,331.125 Q52.6563,330.625 51.9688,329.5547 Q51.2813,328.4844 51.2813,327.2031 L51.2813,326.0469 Q51.2813,324.7188 51.8984,323.5703 Q52.5156,322.4219 53.6094,321.8047 Q54.7031,321.1875 55.9375,321.1875 Q56.6719,321.1875 57.3203,321.3516 Q57.9688,321.5156 58.5156,321.875 Z " fill="#000000"/><text fill="#000000" font-family="sans-serif" font-size="14" lengthAdjust="spacing" textLength="52" x="76.25" y="331.7285">Portfolio</text><line style="stroke:#181818;stroke-width:0.5;" x1="8" x2="164" y1="342" y2="342"/><text fill="#000000" font-family="sans-serif" font-size="14" lengthAdjust="spacing" textLength="105" x="13" y="360.5332">+portfolio_id : int</text><text fill="#000000" font-family="sans-serif" font-size="14" lengthAdjust="spacing" textLength="130" x="13" y="378.1426">+portfolio_name : str</text><text fill="#000000" font-family="sans-serif" font-size="14" lengthAdjust="spacing" textLength="142" x="13" y="395.752">+created_at : datetime</text><text fill="#000000" font-family="sans-serif" font-size="14" lengthAdjust="spacing" textLength="146" x="13" y="413.3613">+updated_at : datetime</text><text fill="#000000" font-family="sans-serif" font-size="14" lengthAdjust="spacing" textLength="96" x="13" y="430.9707">+base_ccy : str</text><line style="stroke:#181818;stroke-width:0.5;" x1="8" x2="164" y1="438.0469" y2="438.0469"/></g><!--class Position--><g id="elem_Position"><rect codeLine="48" fill="#F1F1F1" height="136.0469" id="Position" rx="2.5" ry="2.5" style="stroke:#181818;stroke-width:0.5;" width="168" x="200" y="310"/><ellipse cx="254.75" cy="326" fill="#ADD1B2" rx="11" ry="11" style="stroke:#181818;stroke-width:1.0;"/><path d="M257.5156,321.875 Q257.6719,321.6563 257.8594,321.5469 Q258.0469,321.4375 258.2656,321.4375 Q258.6406,321.4375 258.875,321.6953 Q259.1094,321.9531 259.1094,322.5625 L259.1094,324.0156 Q259.1094,324.625 258.875,324.8906 Q258.6406,325.1563 258.2656,325.1563 Q257.9219,325.1563 257.7188,324.9531 Q257.5156,324.7656 257.4063,324.25 Q257.3594,323.8906 257.1719,323.7031 Q256.8438,323.3281 256.2344,323.1094 Q255.625,322.8906 255,322.8906 Q254.2344,322.8906 253.6016,323.2188 Q252.9688,323.5469 252.4766,324.2969 Q251.9844,325.0469 251.9844,326.0781 L251.9844,327.1719 Q251.9844,328.4063 252.875,329.2266 Q253.7656,330.0469 255.3594,330.0469 Q256.2969,330.0469 256.9531,329.7969 Q257.3438,329.6406 257.7656,329.2031 Q258.0313,328.9375 258.1797,328.8594 Q258.3281,328.7813 258.5313,328.7813 Q258.8594,328.7813 259.1172,329.0391 Q259.375,329.2969 259.375,329.6406 Q259.375,329.9844 259.0313,330.3906 Q258.5313,330.9688 257.7344,331.2969 Q256.6563,331.75 255.3594,331.75 Q253.8438,331.75 252.6406,331.125 Q251.6563,330.625 250.9688,329.5547 Q250.2813,328.4844 250.2813,327.2031 L250.2813,326.0469 Q250.2813,324.7188 250.8984,323.5703 Q251.5156,322.4219 252.6094,321.8047 Q253.7031,321.1875 254.9375,321.1875 Q255.6719,321.1875 256.3203,321.3516 Q256.9688,321.5156 257.5156,321.875 Z " fill="#000000"/><text fill="#000000" font-family="sans-serif" font-size="14" lengthAdjust="spacing" textLength="50" x="275.25" y="331.7285">Position</text><line style="stroke:#181818;stroke-width:0.5;" x1="201" x2="367" y1="342" y2="342"/><text fill="#000000" font-family="sans-serif" font-size="14" lengthAdjust="spacing" textLength="105" x="206" y="360.5332">+portfolio_id : int</text><text fill="#000000" font-family="sans-serif" font-size="14" lengthAdjust="spacing" textLength="89" x="206" y="378.1426">+asset_id : str</text><text fill="#000000" font-family="sans-serif" font-size="14" lengthAdjust="spacing" textLength="66" x="206" y="395.752">+qty : float</text><text fill="#000000" font-family="sans-serif" font-size="14" lengthAdjust="spacing" textLength="112" x="206" y="413.3613">+book_cost : float</text><text fill="#000000" font-family="sans-serif" font-size="14" lengthAdjust="spacing" textLength="156" x="206" y="430.9707">+last_updated : datetime</text><line style="stroke:#181818;stroke-width:0.5;" x1="201" x2="367" y1="438.0469" y2="438.0469"/></g><!--class PortfolioImportData--><g id="elem_PortfolioImportData"><rect codeLine="56" fill="#F1F1F1" height="48" id="PortfolioImportData" rx="2.5" ry="2.5" style="stroke:#181818;stroke-width:0.5;" width="153" x="1211.5" y="354"/><ellipse cx="1226.5" cy="370" fill="#ADD1B2" rx="11" ry="11" style="stroke:#181818;stroke-width:1.0;"/><path d="M1229.2656,365.875 Q1229.4219,365.6563 1229.6094,365.5469 Q1229.7969,365.4375 1230.0156,365.4375 Q1230.3906,365.4375 1230.625,365.6953 Q1230.8594,365.9531 1230.8594,366.5625 L1230.8594,368.0156 Q1230.8594,368.625 1230.625,368.8906 Q1230.3906,369.1563 1230.0156,369.1563 Q1229.6719,369.1563 1229.4688,368.9531 Q1229.2656,368.7656 1229.1563,368.25 Q1229.1094,367.8906 1228.9219,367.7031 Q1228.5938,367.3281 1227.9844,367.1094 Q1227.375,366.8906 1226.75,366.8906 Q1225.9844,366.8906 1225.3516,367.2188 Q1224.7188,367.5469 1224.2266,368.2969 Q1223.7344,369.0469 1223.7344,370.0781 L1223.7344,371.1719 Q1223.7344,372.4063 1224.625,373.2266 Q1225.5156,374.0469 1227.1094,374.0469 Q1228.0469,374.0469 1228.7031,373.7969 Q1229.0938,373.6406 1229.5156,373.2031 Q1229.7813,372.9375 1229.9297,372.8594 Q1230.0781,372.7813 1230.2813,372.7813 Q1230.6094,372.7813 1230.8672,373.0391 Q1231.125,373.2969 1231.125,373.6406 Q1231.125,373.9844 1230.7813,374.3906 Q1230.2813,374.9688 1229.4844,375.2969 Q1228.4063,375.75 1227.1094,375.75 Q1225.5938,375.75 1224.3906,375.125 Q1223.4063,374.625 1222.7188,373.5547 Q1222.0313,372.4844 1222.0313,371.2031 L1222.0313,370.0469 Q1222.0313,368.7188 1222.6484,367.5703 Q1223.2656,366.4219 1224.3594,365.8047 Q1225.4531,365.1875 1226.6875,365.1875 Q1227.4219,365.1875 1228.0703,365.3516 Q1228.7188,365.5156 1229.2656,365.875 Z " fill="#000000"/><text fill="#000000" font-family="sans-serif" font-size="14" lengthAdjust="spacing" textLength="121" x="1240.5" y="375.7285">PortfolioImportData</text><line style="stroke:#181818;stroke-width:0.5;" x1="1212.5" x2="1363.5" y1="386" y2="386"/><line style="stroke:#181818;stroke-width:0.5;" x1="1212.5" x2="1363.5" y1="394" y2="394"/></g><!--class ImportData--><g id="elem_ImportData"><rect codeLine="57" fill="#F1F1F1" height="48" id="ImportData" rx="2.5" ry="2.5" style="stroke:#181818;stroke-width:0.5;" width="101" x="1237.5" y="104"/><ellipse cx="1252.5" cy="120" fill="#ADD1B2" rx="11" ry="11" style="stroke:#181818;stroke-width:1.0;"/><path d="M1255.2656,115.875 Q1255.4219,115.6563 1255.6094,115.5469 Q1255.7969,115.4375 1256.0156,115.4375 Q1256.3906,115.4375 1256.625,115.6953 Q1256.8594,115.9531 1256.8594,116.5625 L1256.8594,118.0156 Q1256.8594,118.625 1256.625,118.8906 Q1256.3906,119.1563 1256.0156,119.1563 Q1255.6719,119.1563 1255.4688,118.9531 Q1255.2656,118.7656 1255.1563,118.25 Q1255.1094,117.8906 1254.9219,117.7031 Q1254.5938,117.3281 1253.9844,117.1094 Q1253.375,116.8906 1252.75,116.8906 Q1251.9844,116.8906 1251.3516,117.2188 Q1250.7188,117.5469 1250.2266,118.2969 Q1249.7344,119.0469 1249.7344,120.0781 L1249.7344,121.1719 Q1249.7344,122.4063 1250.625,123.2266 Q1251.5156,124.0469 1253.1094,124.0469 Q1254.0469,124.0469 1254.7031,123.7969 Q1255.0938,123.6406 1255.5156,123.2031 Q1255.7813,122.9375 1255.9297,122.8594 Q1256.0781,122.7813 1256.2813,122.7813 Q1256.6094,122.7813 1256.8672,123.0391 Q1257.125,123.2969 1257.125,123.6406 Q1257.125,123.9844 1256.7813,124.3906 Q1256.2813,124.9688 1255.4844,125.2969 Q1254.4063,125.75 1253.1094,125.75 Q1251.5938,125.75 1250.3906,125.125 Q1249.4063,124.625 1248.7188,123.5547 Q1248.0313,122.4844 1248.0313,121.2031 L1248.0313,120.0469 Q1248.0313,118.7188 1248.6484,117.5703 Q1249.2656,116.4219 1250.3594,115.8047 Q1251.4531,115.1875 1252.6875,115.1875 Q1253.4219,115.1875 1254.0703,115.3516 Q1254.7188,115.5156 1255.2656,115.875 Z " fill="#000000"/><text fill="#000000" font-family="sans-serif" font-size="14" lengthAdjust="spacing" textLength="69" x="1266.5" y="125.7285">ImportData</text><line style="stroke:#181818;stroke-width:0.5;" x1="1238.5" x2="1337.5" y1="136" y2="136"/><line style="stroke:#181818;stroke-width:0.5;" x1="1238.5" x2="1337.5" y1="144" y2="144"/></g><!--class DashboardManager--><g id="elem_DashboardManager"><rect codeLine="63" fill="#F1F1F1" height="188.875" id="DashboardManager" rx="2.5" ry="2.5" style="stroke:#181818;stroke-width:0.5;" width="362" x="597" y="507"/><ellipse cx="710.75" cy="523" fill="#ADD1B2" rx="11" ry="11" style="stroke:#181818;stroke-width:1.0;"/><path d="M713.5156,518.875 Q713.6719,518.6563 713.8594,518.5469 Q714.0469,518.4375 714.2656,518.4375 Q714.6406,518.4375 714.875,518.6953 Q715.1094,518.9531 715.1094,519.5625 L715.1094,521.0156 Q715.1094,521.625 714.875,521.8906 Q714.6406,522.1563 714.2656,522.1563 Q713.9219,522.1563 713.7188,521.9531 Q713.5156,521.7656 713.4063,521.25 Q713.3594,520.8906 713.1719,520.7031 Q712.8438,520.3281 712.2344,520.1094 Q711.625,519.8906 711,519.8906 Q710.2344,519.8906 709.6016,520.2188 Q708.9688,520.5469 708.4766,521.2969 Q707.9844,522.0469 707.9844,523.0781 L707.9844,524.1719 Q707.9844,525.4063 708.875,526.2266 Q709.7656,527.0469 711.3594,527.0469 Q712.2969,527.0469 712.9531,526.7969 Q713.3438,526.6406 713.7656,526.2031 Q714.0313,525.9375 714.1797,525.8594 Q714.3281,525.7813 714.5313,525.7813 Q714.8594,525.7813 715.1172,526.0391 Q715.375,526.2969 715.375,526.6406 Q715.375,526.9844 715.0313,527.3906 Q714.5313,527.9688 713.7344,528.2969 Q712.6563,528.75 711.3594,528.75 Q709.8438,528.75 708.6406,528.125 Q707.6563,527.625 706.9688,526.5547 Q706.2813,525.4844 706.2813,524.2031 L706.2813,523.0469 Q706.2813,521.7188 706.8984,520.5703 Q707.5156,519.4219 708.6094,518.8047 Q709.7031,518.1875 710.9375,518.1875 Q711.6719,518.1875 712.3203,518.3516 Q712.9688,518.5156 713.5156,518.875 Z " fill="#000000"/><text fill="#000000" font-family="sans-serif" font-size="14" lengthAdjust="spacing" textLength="126" x="731.25" y="528.7285">DashboardManager</text><line style="stroke:#181818;stroke-width:0.5;" x1="598" x2="958" y1="539" y2="539"/><text fill="#000000" font-family="sans-serif" font-size="14" lengthAdjust="spacing" textLength="52" x="603" y="557.5332">-db : DB</text><text fill="#000000" font-family="sans-serif" font-size="14" lengthAdjust="spacing" textLength="36" x="603" y="575.1426">-conn</text><line style="stroke:#181818;stroke-width:0.5;" x1="598" x2="958" y1="582.2188" y2="582.2188"/><text fill="#000000" font-family="sans-serif" font-size="14" lengthAdjust="spacing" textLength="50" x="603" y="600.752">+open()</text><text fill="#000000" font-family="sans-serif" font-size="14" lengthAdjust="spacing" textLength="301" x="603" y="618.3613">+open_portfolio_by_id(id:int) : PortfolioManager</text><text fill="#000000" font-family="sans-serif" font-size="14" lengthAdjust="spacing" textLength="350" x="603" y="635.9707">+open_portfolio_by_name(name:str) : PortfolioManager</text><text fill="#000000" font-family="sans-serif" font-size="14" lengthAdjust="spacing" textLength="129" x="603" y="653.5801">+list_portfolios(N:int)</text><text fill="#000000" font-family="sans-serif" font-size="14" lengthAdjust="spacing" textLength="96" x="603" y="671.1895">+list_txns(N:int)</text><text fill="#000000" font-family="sans-serif" font-size="14" lengthAdjust="spacing" textLength="127" x="603" y="688.7988">+list_positions(N:int)</text></g><!--class PortfolioManager--><g id="elem_PortfolioManager"><rect codeLine="74" fill="#F1F1F1" height="171.2656" id="PortfolioManager" rx="2.5" ry="2.5" style="stroke:#181818;stroke-width:0.5;" width="180" x="545" y="774"/><ellipse cx="578" cy="790" fill="#ADD1B2" rx="11" ry="11" style="stroke:#181818;stroke-width:1.0;"/><path d="M580.7656,785.875 Q580.9219,785.6563 581.1094,785.5469 Q581.2969,785.4375 581.5156,785.4375 Q581.8906,785.4375 582.125,785.6953 Q582.3594,785.9531 582.3594,786.5625 L582.3594,788.0156 Q582.3594,788.625 582.125,788.8906 Q581.8906,789.1563 581.5156,789.1563 Q581.1719,789.1563 580.9688,788.9531 Q580.7656,788.7656 580.6563,788.25 Q580.6094,787.8906 580.4219,787.7031 Q580.0938,787.3281 579.4844,787.1094 Q578.875,786.8906 578.25,786.8906 Q577.4844,786.8906 576.8516,787.2188 Q576.2188,787.5469 575.7266,788.2969 Q575.2344,789.0469 575.2344,790.0781 L575.2344,791.1719 Q575.2344,792.4063 576.125,793.2266 Q577.0156,794.0469 578.6094,794.0469 Q579.5469,794.0469 580.2031,793.7969 Q580.5938,793.6406 581.0156,793.2031 Q581.2813,792.9375 581.4297,792.8594 Q581.5781,792.7813 581.7813,792.7813 Q582.1094,792.7813 582.3672,793.0391 Q582.625,793.2969 582.625,793.6406 Q582.625,793.9844 582.2813,794.3906 Q581.7813,794.9688 580.9844,795.2969 Q579.9063,795.75 578.6094,795.75 Q577.0938,795.75 575.8906,795.125 Q574.9063,794.625 574.2188,793.5547 Q573.5313,792.4844 573.5313,791.2031 L573.5313,790.0469 Q573.5313,788.7188 574.1484,787.5703 Q574.7656,786.4219 575.8594,785.8047 Q576.9531,785.1875 578.1875,785.1875 Q578.9219,785.1875 579.5703,785.3516 Q580.2188,785.5156 580.7656,785.875 Z " fill="#000000"/><text fill="#000000" font-family="sans-serif" font-size="14" lengthAdjust="spacing" textLength="108" x="596" y="795.7285">PortfolioManager</text><line style="stroke:#181818;stroke-width:0.5;" x1="546" x2="724" y1="806" y2="806"/><text fill="#000000" font-family="sans-serif" font-size="14" lengthAdjust="spacing" textLength="52" x="551" y="824.5332">-db : DB</text><text fill="#000000" font-family="sans-serif" font-size="14" lengthAdjust="spacing" textLength="36" x="551" y="842.1426">-conn</text><text fill="#000000" font-family="sans-serif" font-size="14" lengthAdjust="spacing" textLength="102" x="551" y="859.752">-portfolio_id : int</text><text fill="#000000" font-family="sans-serif" font-size="14" lengthAdjust="spacing" textLength="127" x="551" y="877.3613">-portfolio_name : str</text><line style="stroke:#181818;stroke-width:0.5;" x1="546" x2="724" y1="884.4375" y2="884.4375"/><text fill="#000000" font-family="sans-serif" font-size="14" lengthAdjust="spacing" textLength="168" x="551" y="902.9707">+load_portfolio() : Portfolio</text><text fill="#000000" font-family="sans-serif" font-size="14" lengthAdjust="spacing" textLength="96" x="551" y="920.5801">+list_txns(N:int)</text><text fill="#000000" font-family="sans-serif" font-size="14" lengthAdjust="spacing" textLength="127" x="551" y="938.1895">+list_positions(N:int)</text></g><!--class TxnImporter--><g id="elem_TxnImporter"><rect codeLine="90" fill="#F1F1F1" height="118.4375" id="TxnImporter" rx="2.5" ry="2.5" style="stroke:#181818;stroke-width:0.5;" width="211" x="965.5" y="319"/><ellipse cx="1028.75" cy="335" fill="#A9DCDF" rx="11" ry="11" style="stroke:#181818;stroke-width:1.0;"/><path d="M1030.9375,336.7656 L1026.7969,336.7656 L1026.375,337.7969 L1026.7969,337.7969 Q1027.4063,337.7969 1027.6719,338.0313 Q1027.9375,338.2656 1027.9375,338.6563 Q1027.9375,339.0313 1027.6719,339.2656 Q1027.4063,339.5 1026.7969,339.5 L1024.5,339.5 Q1023.8906,339.5 1023.6328,339.2656 Q1023.375,339.0313 1023.375,338.6406 Q1023.375,338.2656 1023.6484,338.0234 Q1023.9219,337.7813 1024.5469,337.7969 L1027.2188,331.1406 L1026.1094,331.1406 Q1025.5,331.1406 1025.2344,330.9063 Q1024.9688,330.6719 1024.9688,330.2813 Q1024.9688,329.9063 1025.2344,329.6719 Q1025.5,329.4375 1026.1094,329.4375 L1029.7813,329.4375 L1033.1719,337.7969 Q1033.7656,337.7969 1033.9531,337.9375 Q1034.3438,338.2031 1034.3438,338.6563 Q1034.3438,339.0313 1034.0859,339.2656 Q1033.8281,339.5 1033.2188,339.5 L1030.9219,339.5 Q1030.3125,339.5 1030.0469,339.2656 Q1029.7813,339.0313 1029.7813,338.6406 Q1029.7813,338.2656 1030.0469,338.0313 Q1030.3125,337.7969 1030.9219,337.7969 L1031.3438,337.7969 L1030.9375,336.7656 Z M1030.2188,335.0625 L1028.8594,331.6875 L1027.4844,335.0625 L1030.2188,335.0625 Z " fill="#000000"/><text fill="#000000" font-family="sans-serif" font-size="14" font-style="italic" lengthAdjust="spacing" textLength="76" x="1049.25" y="340.7285">TxnImporter</text><line style="stroke:#181818;stroke-width:0.5;" x1="966.5" x2="1175.5" y1="351" y2="351"/><text fill="#000000" font-family="sans-serif" font-size="14" lengthAdjust="spacing" textLength="199" x="971.5" y="369.5332">-manager : DashboardManager</text><text fill="#000000" font-family="sans-serif" font-size="14" lengthAdjust="spacing" textLength="86" x="971.5" y="387.1426">-batch_id : int</text><text fill="#000000" font-family="sans-serif" font-size="14" lengthAdjust="spacing" textLength="144" x="971.5" y="404.752">-import_time : datetime</text><line style="stroke:#181818;stroke-width:0.5;" x1="966.5" x2="1175.5" y1="411.8281" y2="411.8281"/><text fill="#000000" font-family="sans-serif" font-size="14" lengthAdjust="spacing" textLength="120" x="971.5" y="430.3613">+run() : ImportData</text></g><!--class TxnImporterManual--><g id="elem_TxnImporterManual"><rect codeLine="97" fill="#F1F1F1" height="48" id="TxnImporterManual" rx="2.5" ry="2.5" style="stroke:#181818;stroke-width:0.5;" width="153" x="994.5" y="577.5"/><ellipse cx="1009.5" cy="593.5" fill="#ADD1B2" rx="11" ry="11" style="stroke:#181818;stroke-width:1.0;"/><path d="M1012.2656,589.375 Q1012.4219,589.1563 1012.6094,589.0469 Q1012.7969,588.9375 1013.0156,588.9375 Q1013.3906,588.9375 1013.625,589.1953 Q1013.8594,589.4531 1013.8594,590.0625 L1013.8594,591.5156 Q1013.8594,592.125 1013.625,592.3906 Q1013.3906,592.6563 1013.0156,592.6563 Q1012.6719,592.6563 1012.4688,592.4531 Q1012.2656,592.2656 1012.1563,591.75 Q1012.1094,591.3906 1011.9219,591.2031 Q1011.5938,590.8281 1010.9844,590.6094 Q1010.375,590.3906 1009.75,590.3906 Q1008.9844,590.3906 1008.3516,590.7188 Q1007.7188,591.0469 1007.2266,591.7969 Q1006.7344,592.5469 1006.7344,593.5781 L1006.7344,594.6719 Q1006.7344,595.9063 1007.625,596.7266 Q1008.5156,597.5469 1010.1094,597.5469 Q1011.0469,597.5469 1011.7031,597.2969 Q1012.0938,597.1406 1012.5156,596.7031 Q1012.7813,596.4375 1012.9297,596.3594 Q1013.0781,596.2813 1013.2813,596.2813 Q1013.6094,596.2813 1013.8672,596.5391 Q1014.125,596.7969 1014.125,597.1406 Q1014.125,597.4844 1013.7813,597.8906 Q1013.2813,598.4688 1012.4844,598.7969 Q1011.4063,599.25 1010.1094,599.25 Q1008.5938,599.25 1007.3906,598.625 Q1006.4063,598.125 1005.7188,597.0547 Q1005.0313,595.9844 1005.0313,594.7031 L1005.0313,593.5469 Q1005.0313,592.2188 1005.6484,591.0703 Q1006.2656,589.9219 1007.3594,589.3047 Q1008.4531,588.6875 1009.6875,588.6875 Q1010.4219,588.6875 1011.0703,588.8516 Q1011.7188,589.0156 1012.2656,589.375 Z " fill="#000000"/><text fill="#000000" font-family="sans-serif" font-size="14" lengthAdjust="spacing" textLength="121" x="1023.5" y="599.2285">TxnImporterManual</text><line style="stroke:#181818;stroke-width:0.5;" x1="995.5" x2="1146.5" y1="609.5" y2="609.5"/><line style="stroke:#181818;stroke-width:0.5;" x1="995.5" x2="1146.5" y1="617.5" y2="617.5"/></g><!--class TxnImporterCSV--><g id="elem_TxnImporterCSV"><rect codeLine="98" fill="#F1F1F1" height="48" id="TxnImporterCSV" rx="2.5" ry="2.5" style="stroke:#181818;stroke-width:0.5;" width="135" x="1182.5" y="577.5"/><ellipse cx="1197.5" cy="593.5" fill="#ADD1B2" rx="11" ry="11" style="stroke:#181818;stroke-width:1.0;"/><path d="M1200.2656,589.375 Q1200.4219,589.1563 1200.6094,589.0469 Q1200.7969,588.9375 1201.0156,588.9375 Q1201.3906,588.9375 1201.625,589.1953 Q1201.8594,589.4531 1201.8594,590.0625 L1201.8594,591.5156 Q1201.8594,592.125 1201.625,592.3906 Q1201.3906,592.6563 1201.0156,592.6563 Q1200.6719,592.6563 1200.4688,592.4531 Q1200.2656,592.2656 1200.1563,591.75 Q1200.1094,591.3906 1199.9219,591.2031 Q1199.5938,590.8281 1198.9844,590.6094 Q1198.375,590.3906 1197.75,590.3906 Q1196.9844,590.3906 1196.3516,590.7188 Q1195.7188,591.0469 1195.2266,591.7969 Q1194.7344,592.5469 1194.7344,593.5781 L1194.7344,594.6719 Q1194.7344,595.9063 1195.625,596.7266 Q1196.5156,597.5469 1198.1094,597.5469 Q1199.0469,597.5469 1199.7031,597.2969 Q1200.0938,597.1406 1200.5156,596.7031 Q1200.7813,596.4375 1200.9297,596.3594 Q1201.0781,596.2813 1201.2813,596.2813 Q1201.6094,596.2813 1201.8672,596.5391 Q1202.125,596.7969 1202.125,597.1406 Q1202.125,597.4844 1201.7813,597.8906 Q1201.2813,598.4688 1200.4844,598.7969 Q1199.4063,599.25 1198.1094,599.25 Q1196.5938,599.25 1195.3906,598.625 Q1194.4063,598.125 1193.7188,597.0547 Q1193.0313,595.9844 1193.0313,594.7031 L1193.0313,593.5469 Q1193.0313,592.2188 1193.6484,591.0703 Q1194.2656,589.9219 1195.3594,589.3047 Q1196.4531,588.6875 1197.6875,588.6875 Q1198.4219,588.6875 1199.0703,588.8516 Q1199.7188,589.0156 1200.2656,589.375 Z " fill="#000000"/><text fill="#000000" font-family="sans-serif" font-size="14" lengthAdjust="spacing" textLength="103" x="1211.5" y="599.2285">TxnImporterCSV</text><line style="stroke:#181818;stroke-width:0.5;" x1="1183.5" x2="1316.5" y1="609.5" y2="609.5"/><line style="stroke:#181818;stroke-width:0.5;" x1="1183.5" x2="1316.5" y1="617.5" y2="617.5"/></g><!--class View--><g id="elem_View"><rect codeLine="107" fill="#F1F1F1" height="100.8281" id="View" rx="2.5" ry="2.5" style="stroke:#181818;stroke-width:0.5;" width="195" x="505.5" y="77.5"/><ellipse cx="584.25" cy="93.5" fill="#A9DCDF" rx="11" ry="11" style="stroke:#181818;stroke-width:1.0;"/><path d="M586.4375,95.2656 L582.2969,95.2656 L581.875,96.2969 L582.2969,96.2969 Q582.9063,96.2969 583.1719,96.5313 Q583.4375,96.7656 583.4375,97.1563 Q583.4375,97.5313 583.1719,97.7656 Q582.9063,98 582.2969,98 L580,98 Q579.3906,98 579.1328,97.7656 Q578.875,97.5313 578.875,97.1406 Q578.875,96.7656 579.1484,96.5234 Q579.4219,96.2813 580.0469,96.2969 L582.7188,89.6406 L581.6094,89.6406 Q581,89.6406 580.7344,89.4063 Q580.4688,89.1719 580.4688,88.7813 Q580.4688,88.4063 580.7344,88.1719 Q581,87.9375 581.6094,87.9375 L585.2813,87.9375 L588.6719,96.2969 Q589.2656,96.2969 589.4531,96.4375 Q589.8438,96.7031 589.8438,97.1563 Q589.8438,97.5313 589.5859,97.7656 Q589.3281,98 588.7188,98 L586.4219,98 Q585.8125,98 585.5469,97.7656 Q585.2813,97.5313 585.2813,97.1406 Q585.2813,96.7656 585.5469,96.5313 Q585.8125,96.2969 586.4219,96.2969 L586.8438,96.2969 L586.4375,95.2656 Z M585.7188,93.5625 L584.3594,90.1875 L582.9844,93.5625 L585.7188,93.5625 Z " fill="#000000"/><text fill="#000000" font-family="sans-serif" font-size="14" font-style="italic" lengthAdjust="spacing" textLength="29" x="604.75" y="99.2285">View</text><line style="stroke:#181818;stroke-width:0.5;" x1="506.5" x2="699.5" y1="109.5" y2="109.5"/><line style="stroke:#181818;stroke-width:0.5;" x1="506.5" x2="699.5" y1="117.5" y2="117.5"/><text fill="#000000" font-family="sans-serif" font-size="14" lengthAdjust="spacing" textLength="113" x="511.5" y="136.0332">+default_display()</text><text fill="#000000" font-family="sans-serif" font-size="14" lengthAdjust="spacing" textLength="129" x="511.5" y="153.6426">+prompt_input() : str</text><text fill="#000000" font-family="sans-serif" font-size="14" lengthAdjust="spacing" textLength="183" x="511.5" y="171.252">+handle_input(line:str) : View</text></g><!--class DashboardView--><g id="elem_DashboardView"><rect codeLine="113" fill="#F1F1F1" height="83.2188" id="DashboardView" rx="2.5" ry="2.5" style="stroke:#181818;stroke-width:0.5;" width="199" x="403.5" y="336.5"/><ellipse cx="449.25" cy="352.5" fill="#ADD1B2" rx="11" ry="11" style="stroke:#181818;stroke-width:1.0;"/><path d="M452.0156,348.375 Q452.1719,348.1563 452.3594,348.0469 Q452.5469,347.9375 452.7656,347.9375 Q453.1406,347.9375 453.375,348.1953 Q453.6094,348.4531 453.6094,349.0625 L453.6094,350.5156 Q453.6094,351.125 453.375,351.3906 Q453.1406,351.6563 452.7656,351.6563 Q452.4219,351.6563 452.2188,351.4531 Q452.0156,351.2656 451.9063,350.75 Q451.8594,350.3906 451.6719,350.2031 Q451.3438,349.8281 450.7344,349.6094 Q450.125,349.3906 449.5,349.3906 Q448.7344,349.3906 448.1016,349.7188 Q447.4688,350.0469 446.9766,350.7969 Q446.4844,351.5469 446.4844,352.5781 L446.4844,353.6719 Q446.4844,354.9063 447.375,355.7266 Q448.2656,356.5469 449.8594,356.5469 Q450.7969,356.5469 451.4531,356.2969 Q451.8438,356.1406 452.2656,355.7031 Q452.5313,355.4375 452.6797,355.3594 Q452.8281,355.2813 453.0313,355.2813 Q453.3594,355.2813 453.6172,355.5391 Q453.875,355.7969 453.875,356.1406 Q453.875,356.4844 453.5313,356.8906 Q453.0313,357.4688 452.2344,357.7969 Q451.1563,358.25 449.8594,358.25 Q448.3438,358.25 447.1406,357.625 Q446.1563,357.125 445.4688,356.0547 Q444.7813,354.9844 444.7813,353.7031 L444.7813,352.5469 Q444.7813,351.2188 445.3984,350.0703 Q446.0156,348.9219 447.1094,348.3047 Q448.2031,347.6875 449.4375,347.6875 Q450.1719,347.6875 450.8203,347.8516 Q451.4688,348.0156 452.0156,348.375 Z " fill="#000000"/><text fill="#000000" font-family="sans-serif" font-size="14" lengthAdjust="spacing" textLength="99" x="469.75" y="358.2285">DashboardView</text><line style="stroke:#181818;stroke-width:0.5;" x1="404.5" x2="601.5" y1="368.5" y2="368.5"/><text fill="#000000" font-family="sans-serif" font-size="14" lengthAdjust="spacing" textLength="187" x="409.5" y="387.0332">-access : DashboardManager</text><line style="stroke:#181818;stroke-width:0.5;" x1="404.5" x2="601.5" y1="394.1094" y2="394.1094"/><text fill="#000000" font-family="sans-serif" font-size="14" lengthAdjust="spacing" textLength="143" x="409.5" y="412.6426">+build_dash_parsers()</text></g><!--class PortfolioView--><g id="elem_PortfolioView"><rect codeLine="118" fill="#F1F1F1" height="100.8281" id="PortfolioView" rx="2.5" ry="2.5" style="stroke:#181818;stroke-width:0.5;" width="240" x="638" y="327.5"/><ellipse cx="713.25" cy="343.5" fill="#ADD1B2" rx="11" ry="11" style="stroke:#181818;stroke-width:1.0;"/><path d="M716.0156,339.375 Q716.1719,339.1563 716.3594,339.0469 Q716.5469,338.9375 716.7656,338.9375 Q717.1406,338.9375 717.375,339.1953 Q717.6094,339.4531 717.6094,340.0625 L717.6094,341.5156 Q717.6094,342.125 717.375,342.3906 Q717.1406,342.6563 716.7656,342.6563 Q716.4219,342.6563 716.2188,342.4531 Q716.0156,342.2656 715.9063,341.75 Q715.8594,341.3906 715.6719,341.2031 Q715.3438,340.8281 714.7344,340.6094 Q714.125,340.3906 713.5,340.3906 Q712.7344,340.3906 712.1016,340.7188 Q711.4688,341.0469 710.9766,341.7969 Q710.4844,342.5469 710.4844,343.5781 L710.4844,344.6719 Q710.4844,345.9063 711.375,346.7266 Q712.2656,347.5469 713.8594,347.5469 Q714.7969,347.5469 715.4531,347.2969 Q715.8438,347.1406 716.2656,346.7031 Q716.5313,346.4375 716.6797,346.3594 Q716.8281,346.2813 717.0313,346.2813 Q717.3594,346.2813 717.6172,346.5391 Q717.875,346.7969 717.875,347.1406 Q717.875,347.4844 717.5313,347.8906 Q717.0313,348.4688 716.2344,348.7969 Q715.1563,349.25 713.8594,349.25 Q712.3438,349.25 711.1406,348.625 Q710.1563,348.125 709.4688,347.0547 Q708.7813,345.9844 708.7813,344.7031 L708.7813,343.5469 Q708.7813,342.2188 709.3984,341.0703 Q710.0156,339.9219 711.1094,339.3047 Q712.2031,338.6875 713.4375,338.6875 Q714.1719,338.6875 714.8203,338.8516 Q715.4688,339.0156 716.0156,339.375 Z " fill="#000000"/><text fill="#000000" font-family="sans-serif" font-size="14" lengthAdjust="spacing" textLength="81" x="733.75" y="349.2285">PortfolioView</text><line style="stroke:#181818;stroke-width:0.5;" x1="639" x2="877" y1="359.5" y2="359.5"/><text fill="#000000" font-family="sans-serif" font-size="14" lengthAdjust="spacing" textLength="228" x="644" y="378.0332">-portfolio_access : PortfolioManager</text><text fill="#000000" font-family="sans-serif" font-size="14" lengthAdjust="spacing" textLength="220" x="644" y="395.6426">-root_access : DashboardManager</text><line style="stroke:#181818;stroke-width:0.5;" x1="639" x2="877" y1="402.7188" y2="402.7188"/><text fill="#000000" font-family="sans-serif" font-size="14" lengthAdjust="spacing" textLength="137" x="644" y="421.252">+build_port_parsers()</text></g><!--link DB to init_db--><g id="link_DB_init_db"><path codeLine="15" d="M706,1107.34 C706,1127.4 706,1143.97 706,1161.8 " fill="none" id="DB-to-init_db" style="stroke:#181818;stroke-width:1.0;stroke-dasharray:7.0,7.0;"/><polygon fill="#181818" points="706,1167.8,710,1158.8,706,1162.8,702,1158.8,706,1167.8" style="stroke:#181818;stroke-width:1.0;"/></g><!--reverse link ImportData to PortfolioImportData--><g id="link_ImportData_PortfolioImportData"><path codeLine="59" d="M1288,164.33 C1288,211.72 1288,306.73 1288,353.91 " fill="none" id="ImportData-backto-PortfolioImportData" style="stroke:#181818;stroke-width:1.0;"/><polygon fill="none" points="1288,152.33,1284,158.33,1288,164.33,1292,158.33,1288,152.33" style="stroke:#181818;stroke-width:1.0;"/><text fill="#000000" font-family="sans-serif" font-size="13" lengthAdjust="spacing" textLength="7" x="1280.1906" y="173.3421">1</text><text fill="#000000" font-family="sans-serif" font-size="13" lengthAdjust="spacing" textLength="20" x="1265.4375" y="343.2271">0..*</text></g><!--link DashboardManager to DB--><g id="link_DashboardManager_DB"><path codeLine="84" d="M773.49,696 C768.86,765.32 759.72,861.82 742,945 C737.69,965.23 732.9927,981.2898 726.5927,1000.0998 " fill="none" id="DashboardManager-to-DB" style="stroke:#181818;stroke-width:1.0;"/><polygon fill="#181818" points="724.66,1005.78,731.3458,998.5481,726.2706,1001.0465,723.7722,995.9712,724.66,1005.78" style="stroke:#181818;stroke-width:1.0;"/></g><!--link PortfolioManager to DB--><g id="link_PortfolioManager_DB"><path codeLine="85" d="M665.83,945.18 C673.39,965.94 679.1878,981.8519 685.9178,1000.3419 " fill="none" id="PortfolioManager-to-DB" style="stroke:#181818;stroke-width:1.0;"/><polygon fill="#181818" points="687.97,1005.98,688.6505,996.1547,686.2599,1001.2816,681.133,998.8909,687.97,1005.98" style="stroke:#181818;stroke-width:1.0;"/></g><!--link DashboardManager to PortfolioManager--><g id="link_DashboardManager_PortfolioManager"><path codeLine="86" d="M723.88,696.1 C718.15,706.17 712.43,716.29 707,726 C698.38,741.42 692.1745,752.6634 683.4745,768.6034 " fill="none" id="DashboardManager-to-PortfolioManager" style="stroke:#181818;stroke-width:1.0;"/><polygon fill="#181818" points="680.6,773.87,688.4228,767.8864,682.9954,769.4812,681.4007,764.0537,680.6,773.87" style="stroke:#181818;stroke-width:1.0;"/><text fill="#000000" font-family="sans-serif" font-size="13" lengthAdjust="spacing" textLength="43" x="708" y="740.4951">creates</text></g><!--reverse link TxnImporter to TxnImporterManual--><g id="link_TxnImporter_TxnImporterManual"><path codeLine="100" d="M1071,455.2 C1071,500.96 1071,544.3 1071,577.24 " fill="none" id="TxnImporter-backto-TxnImporterManual" style="stroke:#181818;stroke-width:1.0;"/><polygon fill="none" points="1071,437.2,1065,455.2,1077,455.2,1071,437.2" style="stroke:#181818;stroke-width:1.0;"/></g><!--reverse link TxnImporter to TxnImporterCSV--><g id="link_TxnImporter_TxnImporterCSV"><path codeLine="101" d="M1129.3438,451.1999 C1166.3238,496.9599 1204.58,544.3 1231.21,577.24 " fill="none" id="TxnImporter-backto-TxnImporterCSV" style="stroke:#181818;stroke-width:1.0;"/><polygon fill="none" points="1118.03,437.2,1124.6771,454.9712,1134.0104,447.4287,1118.03,437.2" style="stroke:#181818;stroke-width:1.0;"/></g><!--link TxnImporter to DashboardManager--><g id="link_TxnImporter_DashboardManager"><path codeLine="103" d="M994.02,437.2 C965.79,458.54 937.8558,479.6512 906.5658,503.3112 " fill="none" id="TxnImporter-to-DashboardManager" style="stroke:#181818;stroke-width:1.0;"/><polygon fill="#181818" points="901.78,506.93,911.3713,504.6923,905.7682,503.9143,906.5462,498.3112,901.78,506.93" style="stroke:#181818;stroke-width:1.0;"/></g><!--reverse link View to DashboardView--><g id="link_View_DashboardView"><path codeLine="124" d="M576.2708,195.2848 C557.6408,241.5048 536.9,292.92 519.49,336.11 " fill="none" id="View-backto-DashboardView" style="stroke:#181818;stroke-width:1.0;"/><polygon fill="none" points="583,178.59,570.7058,193.0418,581.8357,197.5279,583,178.59" style="stroke:#181818;stroke-width:1.0;"/></g><!--reverse link View to PortfolioView--><g id="link_View_PortfolioView"><path codeLine="125" d="M643.5322,193.8526 C670.5722,237.1026 700.04,284.27 727.06,327.5 " fill="none" id="View-backto-PortfolioView" style="stroke:#181818;stroke-width:1.0;"/><polygon fill="none" points="633.99,178.59,638.4447,197.0333,648.6197,190.6718,633.99,178.59" style="stroke:#181818;stroke-width:1.0;"/></g><!--link DashboardView to DashboardManager--><g id="link_DashboardView_DashboardManager"><path codeLine="127" d="M553.44,419.63 C583.83,444.11 619.1867,472.5869 657.0267,503.0569 " fill="none" id="DashboardView-to-DashboardManager" style="stroke:#181818;stroke-width:1.0;"/><polygon fill="#181818" points="661.7,506.82,657.1988,498.0599,657.8056,503.6841,652.1814,504.2909,661.7,506.82" style="stroke:#181818;stroke-width:1.0;"/></g><!--link PortfolioView to PortfolioManager--><g id="link_PortfolioView_PortfolioManager"><path codeLine="128" d="M654.82,428.59 C624.83,448.5 595.69,474.55 579,507 C535.9,590.8 561.7843,693.9321 591.5743,768.1221 " fill="none" id="PortfolioView-to-PortfolioManager" style="stroke:#181818;stroke-width:1.0;"/><polygon fill="#181818" points="593.81,773.69,594.1684,763.8477,591.9469,769.0501,586.7445,766.8286,593.81,773.69" style="stroke:#181818;stroke-width:1.0;"/></g><!--link PortfolioView to DashboardManager--><g id="link_PortfolioView_DashboardManager"><path codeLine="129" d="M762.49,428.71 C764.57,451.8 766.5792,474.0544 769.0092,500.9044 " fill="none" id="PortfolioView-to-DashboardManager" style="stroke:#181818;stroke-width:1.0;"/><polygon fill="#181818" points="769.55,506.88,772.7225,497.5561,769.0993,501.9004,764.7551,498.2772,769.55,506.88" style="stroke:#181818;stroke-width:1.0;"/></g><!--SRC=[dLNBRjim4BphAmXVAZUGaLwD8a0SNt9eOI15hiAAf6l24gcA51grpRztILFKYqw3NX9pTxap7CvI-Yna3GrKX9QWzRqnZIXQmn-faa_Y5oUtIVA1xC500PgJIZ5UQf8ahfhiT-HtGaX6QZ0diYK7_EVMk5lYUj_Iytvtw1vmoQaHIcBsncLncQxZ9QzzUo65oLdXC6xwLSeAtBLRspB4tspk-enZgYeGqlFi-tnxaRw7UP6vO0Whf761MZNcg4gXBc5jcakTg7Yk3LGr1XaORWEXW-bgFYf626wc-t-O3bV7Ke67QGJbamYbtQYUWZxbK9b9oP7pHQm0Gqy3Lf3gtdBmXupmkOIYl7LRpE83jT3-qCla8MQoBTMKK4rQDXn5P3cOkPvjpQvahE7oA1Sjh4_UflAEIocKEkTKwQd2Y65opsfCQQd5OsMnxMpup2YG3B_9wjEAg2mZgzlDvkCgkX-T-mKaVETDCEqUBL4eQ9XF-4d3SR3s3rFcEAkQotGTVkQ39aM76gI2RL4NEsu1t7UziiTUNsh_R56yg_jAWLA5VJhzwb265CxACbZxwmkPfR3_F74Ml_NikW7nUjb0DPqSwJy8Boudo-uinyKHV3nQloZU-ZdHrWyNTpX3G87706f8UCxwf9Ue2WtcG2uzUZHweOHha5jdp-UkQQNJPsJFrz5BsaCZG0lbClxmz9maOugV_w3tbnlVAbdqS3BEZuOYFGl-CoQHZVltWV4Zj2L-7uIkI-ZycDIDgcfy7sJTNhv3lL5E85d9VQ8KCao0RJa84SW4f8m0fHnJqKl0rwOL9SkPVUZnWwkHTHhp_gZVOERGEJA66McKClbxmDsLJy0TcbD_Sg1HV49iP7nN4RsMwL5YHe-KBBhy1G00]--></g></svg>