<?xml version="1.0" encoding="us-ascii" standalone="no"?><svg xmlns="http://www.w3.org/2000/svg" xmlns:xlink="http://www.w3.org/1999/xlink" contentStyleType="text/css" height="402px" preserveAspectRatio="none" style="width:1320px;height:402px;background:#FFFFFF;" version="1.1" viewBox="0 0 1320 402" width="1320px" zoomAndPan="magnify"><defs/><g><!--class TableFormatter--><g id="elem_TableFormatter"><rect codeLine="4" fill="#F1F1F1" height="83.2188" id="TableFormatter" rx="2.5" ry="2.5" style="stroke:#181818;stroke-width:0.5;" width="130" x="545" y="7"/><ellipse cx="560" cy="23" fill="#A9DCDF" rx="11" ry="11" style="stroke:#181818;stroke-width:1.0;"/><path d="M562.1875,24.7656 L558.0469,24.7656 L557.625,25.7969 L558.0469,25.7969 Q558.6563,25.7969 558.9219,26.0313 Q559.1875,26.2656 559.1875,26.6563 Q559.1875,27.0313 558.9219,27.2656 Q558.6563,27.5 558.0469,27.5 L555.75,27.5 Q555.1406,27.5 554.8828,27.2656 Q554.625,27.0313 554.625,26.6406 Q554.625,26.2656 554.8984,26.0234 Q555.1719,25.7813 555.7969,25.7969 L558.4688,19.1406 L557.3594,19.1406 Q556.75,19.1406 556.4844,18.9063 Q556.2188,18.6719 556.2188,18.2813 Q556.2188,17.9063 556.4844,17.6719 Q556.75,17.4375 557.3594,17.4375 L561.0313,17.4375 L564.4219,25.7969 Q565.0156,25.7969 565.2031,25.9375 Q565.5938,26.2031 565.5938,26.6563 Q565.5938,27.0313 565.3359,27.2656 Q565.0781,27.5 564.4688,27.5 L562.1719,27.5 Q561.5625,27.5 561.2969,27.2656 Q561.0313,27.0313 561.0313,26.6406 Q561.0313,26.2656 561.2969,26.0313 Q561.5625,25.7969 562.1719,25.7969 L562.5938,25.7969 L562.1875,24.7656 Z M561.4688,23.0625 L560.1094,19.6875 L558.7344,23.0625 L561.4688,23.0625 Z " fill="#000000"/><text fill="#000000" font-family="sans-serif" font-size="14" font-style="italic" lengthAdjust="spacing" textLength="98" x="574" y="28.7285">TableFormatter</text><line style="stroke:#181818;stroke-width:0.5;" x1="546" x2="674" y1="39" y2="39"/><line style="stroke:#181818;stroke-width:0.5;" x1="546" x2="674" y1="47" y2="47"/><ellipse cx="556" cy="61.3047" fill="#84BE84" rx="3" ry="3" style="stroke:#038048;stroke-width:1.0;"/><text fill="#000000" font-family="sans-serif" font-size="14" lengthAdjust="spacing" textLength="93" x="565" y="65.5332">header() : void</text><ellipse cx="556" cy="78.9141" fill="#84BE84" rx="3" ry="3" style="stroke:#038048;stroke-width:1.0;"/><text fill="#000000" font-family="sans-serif" font-size="14" lengthAdjust="spacing" textLength="80" x="565" y="83.1426">entry() : void</text></g><!--class TxnTableFormatter--><g id="elem_TxnTableFormatter"><rect codeLine="9" fill="#F1F1F1" height="100.8281" id="TxnTableFormatter" rx="2.5" ry="2.5" style="stroke:#181818;stroke-width:0.5;" width="153" x="222.5" y="168"/><ellipse cx="237.5" cy="184" fill="#ADD1B2" rx="11" ry="11" style="stroke:#181818;stroke-width:1.0;"/><path d="M240.2656,179.875 Q240.4219,179.6563 240.6094,179.5469 Q240.7969,179.4375 241.0156,179.4375 Q241.3906,179.4375 241.625,179.6953 Q241.8594,179.9531 241.8594,180.5625 L241.8594,182.0156 Q241.8594,182.625 241.625,182.8906 Q241.3906,183.1563 241.0156,183.1563 Q240.6719,183.1563 240.4688,182.9531 Q240.2656,182.7656 240.1563,182.25 Q240.1094,181.8906 239.9219,181.7031 Q239.5938,181.3281 238.9844,181.1094 Q238.375,180.8906 237.75,180.8906 Q236.9844,180.8906 236.3516,181.2188 Q235.7188,181.5469 235.2266,182.2969 Q234.7344,183.0469 234.7344,184.0781 L234.7344,185.1719 Q234.7344,186.4063 235.625,187.2266 Q236.5156,188.0469 238.1094,188.0469 Q239.0469,188.0469 239.7031,187.7969 Q240.0938,187.6406 240.5156,187.2031 Q240.7813,186.9375 240.9297,186.8594 Q241.0781,186.7813 241.2813,186.7813 Q241.6094,186.7813 241.8672,187.0391 Q242.125,187.2969 242.125,187.6406 Q242.125,187.9844 241.7813,188.3906 Q241.2813,188.9688 240.4844,189.2969 Q239.4063,189.75 238.1094,189.75 Q236.5938,189.75 235.3906,189.125 Q234.4063,188.625 233.7188,187.5547 Q233.0313,186.4844 233.0313,185.2031 L233.0313,184.0469 Q233.0313,182.7188 233.6484,181.5703 Q234.2656,180.4219 235.3594,179.8047 Q236.4531,179.1875 237.6875,179.1875 Q238.4219,179.1875 239.0703,179.3516 Q239.7188,179.5156 240.2656,179.875 Z " fill="#000000"/><text fill="#000000" font-family="sans-serif" font-size="14" lengthAdjust="spacing" textLength="121" x="251.5" y="189.7285">TxnTableFormatter</text><line style="stroke:#181818;stroke-width:0.5;" x1="223.5" x2="374.5" y1="200" y2="200"/><rect fill="none" height="6" style="stroke:#C82930;stroke-width:1.0;" width="6" x="230.5" y="211.3047"/><text fill="#000000" font-family="sans-serif" font-size="14" lengthAdjust="spacing" textLength="53" x="242.5" y="218.5332">txn : Txn</text><line style="stroke:#181818;stroke-width:0.5;" x1="223.5" x2="374.5" y1="225.6094" y2="225.6094"/><ellipse cx="233.5" cy="239.9141" fill="#84BE84" rx="3" ry="3" style="stroke:#038048;stroke-width:1.0;"/><text fill="#000000" font-family="sans-serif" font-size="14" lengthAdjust="spacing" textLength="93" x="242.5" y="244.1426">header() : void</text><ellipse cx="233.5" cy="257.5234" fill="#84BE84" rx="3" ry="3" style="stroke:#038048;stroke-width:1.0;"/><text fill="#000000" font-family="sans-serif" font-size="14" lengthAdjust="spacing" textLength="80" x="242.5" y="261.752">entry() : void</text></g><!--class PositionTableFormatter--><g id="elem_PositionTableFormatter"><rect codeLine="15" fill="#F1F1F1" height="100.8281" id="PositionTableFormatter" rx="2.5" ry="2.5" style="stroke:#181818;stroke-width:0.5;" width="180" x="7" y="168"/><ellipse cx="22" cy="184" fill="#ADD1B2" rx="11" ry="11" style="stroke:#181818;stroke-width:1.0;"/><path d="M24.7656,179.875 Q24.9219,179.6563 25.1094,179.5469 Q25.2969,179.4375 25.5156,179.4375 Q25.8906,179.4375 26.125,179.6953 Q26.3594,179.9531 26.3594,180.5625 L26.3594,182.0156 Q26.3594,182.625 26.125,182.8906 Q25.8906,183.1563 25.5156,183.1563 Q25.1719,183.1563 24.9688,182.9531 Q24.7656,182.7656 24.6563,182.25 Q24.6094,181.8906 24.4219,181.7031 Q24.0938,181.3281 23.4844,181.1094 Q22.875,180.8906 22.25,180.8906 Q21.4844,180.8906 20.8516,181.2188 Q20.2188,181.5469 19.7266,182.2969 Q19.2344,183.0469 19.2344,184.0781 L19.2344,185.1719 Q19.2344,186.4063 20.125,187.2266 Q21.0156,188.0469 22.6094,188.0469 Q23.5469,188.0469 24.2031,187.7969 Q24.5938,187.6406 25.0156,187.2031 Q25.2813,186.9375 25.4297,186.8594 Q25.5781,186.7813 25.7813,186.7813 Q26.1094,186.7813 26.3672,187.0391 Q26.625,187.2969 26.625,187.6406 Q26.625,187.9844 26.2813,188.3906 Q25.7813,188.9688 24.9844,189.2969 Q23.9063,189.75 22.6094,189.75 Q21.0938,189.75 19.8906,189.125 Q18.9063,188.625 18.2188,187.5547 Q17.5313,186.4844 17.5313,185.2031 L17.5313,184.0469 Q17.5313,182.7188 18.1484,181.5703 Q18.7656,180.4219 19.8594,179.8047 Q20.9531,179.1875 22.1875,179.1875 Q22.9219,179.1875 23.5703,179.3516 Q24.2188,179.5156 24.7656,179.875 Z " fill="#000000"/><text fill="#000000" font-family="sans-serif" font-size="14" lengthAdjust="spacing" textLength="148" x="36" y="189.7285">PositionTableFormatter</text><line style="stroke:#181818;stroke-width:0.5;" x1="8" x2="186" y1="200" y2="200"/><rect fill="none" height="6" style="stroke:#C82930;stroke-width:1.0;" width="6" x="15" y="211.3047"/><text fill="#000000" font-family="sans-serif" font-size="14" lengthAdjust="spacing" textLength="111" x="27" y="218.5332">position : Position</text><line style="stroke:#181818;stroke-width:0.5;" x1="8" x2="186" y1="225.6094" y2="225.6094"/><ellipse cx="18" cy="239.9141" fill="#84BE84" rx="3" ry="3" style="stroke:#038048;stroke-width:1.0;"/><text fill="#000000" font-family="sans-serif" font-size="14" lengthAdjust="spacing" textLength="93" x="27" y="244.1426">header() : void</text><ellipse cx="18" cy="257.5234" fill="#84BE84" rx="3" ry="3" style="stroke:#038048;stroke-width:1.0;"/><text fill="#000000" font-family="sans-serif" font-size="14" lengthAdjust="spacing" textLength="80" x="27" y="261.752">entry() : void</text></g><!--class PortfolioTableFormatter--><g id="elem_PortfolioTableFormatter"><rect codeLine="21" fill="#F1F1F1" height="100.8281" id="PortfolioTableFormatter" rx="2.5" ry="2.5" style="stroke:#181818;stroke-width:0.5;" width="182" x="411" y="168"/><ellipse cx="426" cy="184" fill="#ADD1B2" rx="11" ry="11" style="stroke:#181818;stroke-width:1.0;"/><path d="M428.7656,179.875 Q428.9219,179.6563 429.1094,179.5469 Q429.2969,179.4375 429.5156,179.4375 Q429.8906,179.4375 430.125,179.6953 Q430.3594,179.9531 430.3594,180.5625 L430.3594,182.0156 Q430.3594,182.625 430.125,182.8906 Q429.8906,183.1563 429.5156,183.1563 Q429.1719,183.1563 428.9688,182.9531 Q428.7656,182.7656 428.6563,182.25 Q428.6094,181.8906 428.4219,181.7031 Q428.0938,181.3281 427.4844,181.1094 Q426.875,180.8906 426.25,180.8906 Q425.4844,180.8906 424.8516,181.2188 Q424.2188,181.5469 423.7266,182.2969 Q423.2344,183.0469 423.2344,184.0781 L423.2344,185.1719 Q423.2344,186.4063 424.125,187.2266 Q425.0156,188.0469 426.6094,188.0469 Q427.5469,188.0469 428.2031,187.7969 Q428.5938,187.6406 429.0156,187.2031 Q429.2813,186.9375 429.4297,186.8594 Q429.5781,186.7813 429.7813,186.7813 Q430.1094,186.7813 430.3672,187.0391 Q430.625,187.2969 430.625,187.6406 Q430.625,187.9844 430.2813,188.3906 Q429.7813,188.9688 428.9844,189.2969 Q427.9063,189.75 426.6094,189.75 Q425.0938,189.75 423.8906,189.125 Q422.9063,188.625 422.2188,187.5547 Q421.5313,186.4844 421.5313,185.2031 L421.5313,184.0469 Q421.5313,182.7188 422.1484,181.5703 Q422.7656,180.4219 423.8594,179.8047 Q424.9531,179.1875 426.1875,179.1875 Q426.9219,179.1875 427.5703,179.3516 Q428.2188,179.5156 428.7656,179.875 Z " fill="#000000"/><text fill="#000000" font-family="sans-serif" font-size="14" lengthAdjust="spacing" textLength="150" x="440" y="189.7285">PortfolioTableFormatter</text><line style="stroke:#181818;stroke-width:0.5;" x1="412" x2="592" y1="200" y2="200"/><rect fill="none" height="6" style="stroke:#C82930;stroke-width:1.0;" width="6" x="419" y="211.3047"/><text fill="#000000" font-family="sans-serif" font-size="14" lengthAdjust="spacing" textLength="115" x="431" y="218.5332">portfolio : Portfolio</text><line style="stroke:#181818;stroke-width:0.5;" x1="412" x2="592" y1="225.6094" y2="225.6094"/><ellipse cx="422" cy="239.9141" fill="#84BE84" rx="3" ry="3" style="stroke:#038048;stroke-width:1.0;"/><text fill="#000000" font-family="sans-serif" font-size="14" lengthAdjust="spacing" textLength="93" x="431" y="244.1426">header() : void</text><ellipse cx="422" cy="257.5234" fill="#84BE84" rx="3" ry="3" style="stroke:#038048;stroke-width:1.0;"/><text fill="#000000" font-family="sans-serif" font-size="14" lengthAdjust="spacing" textLength="80" x="431" y="261.752">entry() : void</text></g><!--class AssetTableFormatter--><g id="elem_AssetTableFormatter"><rect codeLine="27" fill="#F1F1F1" height="100.8281" id="AssetTableFormatter" rx="2.5" ry="2.5" style="stroke:#181818;stroke-width:0.5;" width="165" x="628.5" y="168"/><ellipse cx="643.5" cy="184" fill="#ADD1B2" rx="11" ry="11" style="stroke:#181818;stroke-width:1.0;"/><path d="M646.2656,179.875 Q646.4219,179.6563 646.6094,179.5469 Q646.7969,179.4375 647.0156,179.4375 Q647.3906,179.4375 647.625,179.6953 Q647.8594,179.9531 647.8594,180.5625 L647.8594,182.0156 Q647.8594,182.625 647.625,182.8906 Q647.3906,183.1563 647.0156,183.1563 Q646.6719,183.1563 646.4688,182.9531 Q646.2656,182.7656 646.1563,182.25 Q646.1094,181.8906 645.9219,181.7031 Q645.5938,181.3281 644.9844,181.1094 Q644.375,180.8906 643.75,180.8906 Q642.9844,180.8906 642.3516,181.2188 Q641.7188,181.5469 641.2266,182.2969 Q640.7344,183.0469 640.7344,184.0781 L640.7344,185.1719 Q640.7344,186.4063 641.625,187.2266 Q642.5156,188.0469 644.1094,188.0469 Q645.0469,188.0469 645.7031,187.7969 Q646.0938,187.6406 646.5156,187.2031 Q646.7813,186.9375 646.9297,186.8594 Q647.0781,186.7813 647.2813,186.7813 Q647.6094,186.7813 647.8672,187.0391 Q648.125,187.2969 648.125,187.6406 Q648.125,187.9844 647.7813,188.3906 Q647.2813,188.9688 646.4844,189.2969 Q645.4063,189.75 644.1094,189.75 Q642.5938,189.75 641.3906,189.125 Q640.4063,188.625 639.7188,187.5547 Q639.0313,186.4844 639.0313,185.2031 L639.0313,184.0469 Q639.0313,182.7188 639.6484,181.5703 Q640.2656,180.4219 641.3594,179.8047 Q642.4531,179.1875 643.6875,179.1875 Q644.4219,179.1875 645.0703,179.3516 Q645.7188,179.5156 646.2656,179.875 Z " fill="#000000"/><text fill="#000000" font-family="sans-serif" font-size="14" lengthAdjust="spacing" textLength="133" x="657.5" y="189.7285">AssetTableFormatter</text><line style="stroke:#181818;stroke-width:0.5;" x1="629.5" x2="792.5" y1="200" y2="200"/><rect fill="none" height="6" style="stroke:#C82930;stroke-width:1.0;" width="6" x="636.5" y="211.3047"/><text fill="#000000" font-family="sans-serif" font-size="14" lengthAdjust="spacing" textLength="81" x="648.5" y="218.5332">asset : Asset</text><line style="stroke:#181818;stroke-width:0.5;" x1="629.5" x2="792.5" y1="225.6094" y2="225.6094"/><ellipse cx="639.5" cy="239.9141" fill="#84BE84" rx="3" ry="3" style="stroke:#038048;stroke-width:1.0;"/><text fill="#000000" font-family="sans-serif" font-size="14" lengthAdjust="spacing" textLength="93" x="648.5" y="244.1426">header() : void</text><ellipse cx="639.5" cy="257.5234" fill="#84BE84" rx="3" ry="3" style="stroke:#038048;stroke-width:1.0;"/><text fill="#000000" font-family="sans-serif" font-size="14" lengthAdjust="spacing" textLength="80" x="648.5" y="261.752">entry() : void</text></g><!--class ImportDataTableFormatter--><g id="elem_ImportDataTableFormatter"><rect codeLine="33" fill="#F1F1F1" height="100.8281" id="ImportDataTableFormatter" rx="2.5" ry="2.5" style="stroke:#181818;stroke-width:0.5;" width="199" x="828.5" y="168"/><ellipse cx="843.5" cy="184" fill="#ADD1B2" rx="11" ry="11" style="stroke:#181818;stroke-width:1.0;"/><path d="M846.2656,179.875 Q846.4219,179.6563 846.6094,179.5469 Q846.7969,179.4375 847.0156,179.4375 Q847.3906,179.4375 847.625,179.6953 Q847.8594,179.9531 847.8594,180.5625 L847.8594,182.0156 Q847.8594,182.625 847.625,182.8906 Q847.3906,183.1563 847.0156,183.1563 Q846.6719,183.1563 846.4688,182.9531 Q846.2656,182.7656 846.1563,182.25 Q846.1094,181.8906 845.9219,181.7031 Q845.5938,181.3281 844.9844,181.1094 Q844.375,180.8906 843.75,180.8906 Q842.9844,180.8906 842.3516,181.2188 Q841.7188,181.5469 841.2266,182.2969 Q840.7344,183.0469 840.7344,184.0781 L840.7344,185.1719 Q840.7344,186.4063 841.625,187.2266 Q842.5156,188.0469 844.1094,188.0469 Q845.0469,188.0469 845.7031,187.7969 Q846.0938,187.6406 846.5156,187.2031 Q846.7813,186.9375 846.9297,186.8594 Q847.0781,186.7813 847.2813,186.7813 Q847.6094,186.7813 847.8672,187.0391 Q848.125,187.2969 848.125,187.6406 Q848.125,187.9844 847.7813,188.3906 Q847.2813,188.9688 846.4844,189.2969 Q845.4063,189.75 844.1094,189.75 Q842.5938,189.75 841.3906,189.125 Q840.4063,188.625 839.7188,187.5547 Q839.0313,186.4844 839.0313,185.2031 L839.0313,184.0469 Q839.0313,182.7188 839.6484,181.5703 Q840.2656,180.4219 841.3594,179.8047 Q842.4531,179.1875 843.6875,179.1875 Q844.4219,179.1875 845.0703,179.3516 Q845.7188,179.5156 846.2656,179.875 Z " fill="#000000"/><text fill="#000000" font-family="sans-serif" font-size="14" lengthAdjust="spacing" textLength="167" x="857.5" y="189.7285">ImportDataTableFormatter</text><line style="stroke:#181818;stroke-width:0.5;" x1="829.5" x2="1026.5" y1="200" y2="200"/><rect fill="none" height="6" style="stroke:#C82930;stroke-width:1.0;" width="6" x="836.5" y="211.3047"/><text fill="#000000" font-family="sans-serif" font-size="14" lengthAdjust="spacing" textLength="150" x="848.5" y="218.5332">importData : ImportData</text><line style="stroke:#181818;stroke-width:0.5;" x1="829.5" x2="1026.5" y1="225.6094" y2="225.6094"/><ellipse cx="839.5" cy="239.9141" fill="#84BE84" rx="3" ry="3" style="stroke:#038048;stroke-width:1.0;"/><text fill="#000000" font-family="sans-serif" font-size="14" lengthAdjust="spacing" textLength="93" x="848.5" y="244.1426">header() : void</text><ellipse cx="839.5" cy="257.5234" fill="#84BE84" rx="3" ry="3" style="stroke:#038048;stroke-width:1.0;"/><text fill="#000000" font-family="sans-serif" font-size="14" lengthAdjust="spacing" textLength="80" x="848.5" y="261.752">entry() : void</text></g><!--class PortfolioImportDataTableFormatter--><g id="elem_PortfolioImportDataTableFormatter"><rect codeLine="39" fill="#F1F1F1" height="100.8281" id="PortfolioImportDataTableFormatter" rx="2.5" ry="2.5" style="stroke:#181818;stroke-width:0.5;" width="251" x="1062.5" y="168"/><ellipse cx="1077.5" cy="184" fill="#ADD1B2" rx="11" ry="11" style="stroke:#181818;stroke-width:1.0;"/><path d="M1080.2656,179.875 Q1080.4219,179.6563 1080.6094,179.5469 Q1080.7969,179.4375 1081.0156,179.4375 Q1081.3906,179.4375 1081.625,179.6953 Q1081.8594,179.9531 1081.8594,180.5625 L1081.8594,182.0156 Q1081.8594,182.625 1081.625,182.8906 Q1081.3906,183.1563 1081.0156,183.1563 Q1080.6719,183.1563 1080.4688,182.9531 Q1080.2656,182.7656 1080.1563,182.25 Q1080.1094,181.8906 1079.9219,181.7031 Q1079.5938,181.3281 1078.9844,181.1094 Q1078.375,180.8906 1077.75,180.8906 Q1076.9844,180.8906 1076.3516,181.2188 Q1075.7188,181.5469 1075.2266,182.2969 Q1074.7344,183.0469 1074.7344,184.0781 L1074.7344,185.1719 Q1074.7344,186.4063 1075.625,187.2266 Q1076.5156,188.0469 1078.1094,188.0469 Q1079.0469,188.0469 1079.7031,187.7969 Q1080.0938,187.6406 1080.5156,187.2031 Q1080.7813,186.9375 1080.9297,186.8594 Q1081.0781,186.7813 1081.2813,186.7813 Q1081.6094,186.7813 1081.8672,187.0391 Q1082.125,187.2969 1082.125,187.6406 Q1082.125,187.9844 1081.7813,188.3906 Q1081.2813,188.9688 1080.4844,189.2969 Q1079.4063,189.75 1078.1094,189.75 Q1076.5938,189.75 1075.3906,189.125 Q1074.4063,188.625 1073.7188,187.5547 Q1073.0313,186.4844 1073.0313,185.2031 L1073.0313,184.0469 Q1073.0313,182.7188 1073.6484,181.5703 Q1074.2656,180.4219 1075.3594,179.8047 Q1076.4531,179.1875 1077.6875,179.1875 Q1078.4219,179.1875 1079.0703,179.3516 Q1079.7188,179.5156 1080.2656,179.875 Z " fill="#000000"/><text fill="#000000" font-family="sans-serif" font-size="14" lengthAdjust="spacing" textLength="219" x="1091.5" y="189.7285">PortfolioImportDataTableFormatter</text><line style="stroke:#181818;stroke-width:0.5;" x1="1063.5" x2="1312.5" y1="200" y2="200"/><rect fill="none" height="6" style="stroke:#C82930;stroke-width:1.0;" width="6" x="1070.5" y="211.3047"/><text fill="#000000" font-family="sans-serif" font-size="14" lengthAdjust="spacing" textLength="163" x="1082.5" y="218.5332">pImp : PortfolioImportData</text><line style="stroke:#181818;stroke-width:0.5;" x1="1063.5" x2="1312.5" y1="225.6094" y2="225.6094"/><ellipse cx="1073.5" cy="239.9141" fill="#84BE84" rx="3" ry="3" style="stroke:#038048;stroke-width:1.0;"/><text fill="#000000" font-family="sans-serif" font-size="14" lengthAdjust="spacing" textLength="93" x="1082.5" y="244.1426">header() : void</text><ellipse cx="1073.5" cy="257.5234" fill="#84BE84" rx="3" ry="3" style="stroke:#038048;stroke-width:1.0;"/><text fill="#000000" font-family="sans-serif" font-size="14" lengthAdjust="spacing" textLength="80" x="1082.5" y="261.752">entry() : void</text></g><!--class Txn--><g id="elem_Txn"><rect fill="#F1F1F1" height="48" id="Txn" rx="2.5" ry="2.5" style="stroke:#181818;stroke-width:0.5;" width="55" x="271.5" y="347"/><ellipse cx="286.5" cy="363" fill="#ADD1B2" rx="11" ry="11" style="stroke:#181818;stroke-width:1.0;"/><path d="M289.2656,358.875 Q289.4219,358.6563 289.6094,358.5469 Q289.7969,358.4375 290.0156,358.4375 Q290.3906,358.4375 290.625,358.6953 Q290.8594,358.9531 290.8594,359.5625 L290.8594,361.0156 Q290.8594,361.625 290.625,361.8906 Q290.3906,362.1563 290.0156,362.1563 Q289.6719,362.1563 289.4688,361.9531 Q289.2656,361.7656 289.1563,361.25 Q289.1094,360.8906 288.9219,360.7031 Q288.5938,360.3281 287.9844,360.1094 Q287.375,359.8906 286.75,359.8906 Q285.9844,359.8906 285.3516,360.2188 Q284.7188,360.5469 284.2266,361.2969 Q283.7344,362.0469 283.7344,363.0781 L283.7344,364.1719 Q283.7344,365.4063 284.625,366.2266 Q285.5156,367.0469 287.1094,367.0469 Q288.0469,367.0469 288.7031,366.7969 Q289.0938,366.6406 289.5156,366.2031 Q289.7813,365.9375 289.9297,365.8594 Q290.0781,365.7813 290.2813,365.7813 Q290.6094,365.7813 290.8672,366.0391 Q291.125,366.2969 291.125,366.6406 Q291.125,366.9844 290.7813,367.3906 Q290.2813,367.9688 289.4844,368.2969 Q288.4063,368.75 287.1094,368.75 Q285.5938,368.75 284.3906,368.125 Q283.4063,367.625 282.7188,366.5547 Q282.0313,365.4844 282.0313,364.2031 L282.0313,363.0469 Q282.0313,361.7188 282.6484,360.5703 Q283.2656,359.4219 284.3594,358.8047 Q285.4531,358.1875 286.6875,358.1875 Q287.4219,358.1875 288.0703,358.3516 Q288.7188,358.5156 289.2656,358.875 Z " fill="#000000"/><text fill="#000000" font-family="sans-serif" font-size="14" lengthAdjust="spacing" textLength="23" x="300.5" y="368.7285">Txn</text><line style="stroke:#181818;stroke-width:0.5;" x1="272.5" x2="325.5" y1="379" y2="379"/><line style="stroke:#181818;stroke-width:0.5;" x1="272.5" x2="325.5" y1="387" y2="387"/></g><!--class Position--><g id="elem_Position"><rect fill="#F1F1F1" height="48" id="Position" rx="2.5" ry="2.5" style="stroke:#181818;stroke-width:0.5;" width="82" x="56" y="347"/><ellipse cx="71" cy="363" fill="#ADD1B2" rx="11" ry="11" style="stroke:#181818;stroke-width:1.0;"/><path d="M73.7656,358.875 Q73.9219,358.6563 74.1094,358.5469 Q74.2969,358.4375 74.5156,358.4375 Q74.8906,358.4375 75.125,358.6953 Q75.3594,358.9531 75.3594,359.5625 L75.3594,361.0156 Q75.3594,361.625 75.125,361.8906 Q74.8906,362.1563 74.5156,362.1563 Q74.1719,362.1563 73.9688,361.9531 Q73.7656,361.7656 73.6563,361.25 Q73.6094,360.8906 73.4219,360.7031 Q73.0938,360.3281 72.4844,360.1094 Q71.875,359.8906 71.25,359.8906 Q70.4844,359.8906 69.8516,360.2188 Q69.2188,360.5469 68.7266,361.2969 Q68.2344,362.0469 68.2344,363.0781 L68.2344,364.1719 Q68.2344,365.4063 69.125,366.2266 Q70.0156,367.0469 71.6094,367.0469 Q72.5469,367.0469 73.2031,366.7969 Q73.5938,366.6406 74.0156,366.2031 Q74.2813,365.9375 74.4297,365.8594 Q74.5781,365.7813 74.7813,365.7813 Q75.1094,365.7813 75.3672,366.0391 Q75.625,366.2969 75.625,366.6406 Q75.625,366.9844 75.2813,367.3906 Q74.7813,367.9688 73.9844,368.2969 Q72.9063,368.75 71.6094,368.75 Q70.0938,368.75 68.8906,368.125 Q67.9063,367.625 67.2188,366.5547 Q66.5313,365.4844 66.5313,364.2031 L66.5313,363.0469 Q66.5313,361.7188 67.1484,360.5703 Q67.7656,359.4219 68.8594,358.8047 Q69.9531,358.1875 71.1875,358.1875 Q71.9219,358.1875 72.5703,358.3516 Q73.2188,358.5156 73.7656,358.875 Z " fill="#000000"/><text fill="#000000" font-family="sans-serif" font-size="14" lengthAdjust="spacing" textLength="50" x="85" y="368.7285">Position</text><line style="stroke:#181818;stroke-width:0.5;" x1="57" x2="137" y1="379" y2="379"/><line style="stroke:#181818;stroke-width:0.5;" x1="57" x2="137" y1="387" y2="387"/></g><!--class Portfolio--><g id="elem_Portfolio"><rect fill="#F1F1F1" height="48" id="Portfolio" rx="2.5" ry="2.5" style="stroke:#181818;stroke-width:0.5;" width="84" x="460" y="347"/><ellipse cx="475" cy="363" fill="#ADD1B2" rx="11" ry="11" style="stroke:#181818;stroke-width:1.0;"/><path d="M477.7656,358.875 Q477.9219,358.6563 478.1094,358.5469 Q478.2969,358.4375 478.5156,358.4375 Q478.8906,358.4375 479.125,358.6953 Q479.3594,358.9531 479.3594,359.5625 L479.3594,361.0156 Q479.3594,361.625 479.125,361.8906 Q478.8906,362.1563 478.5156,362.1563 Q478.1719,362.1563 477.9688,361.9531 Q477.7656,361.7656 477.6563,361.25 Q477.6094,360.8906 477.4219,360.7031 Q477.0938,360.3281 476.4844,360.1094 Q475.875,359.8906 475.25,359.8906 Q474.4844,359.8906 473.8516,360.2188 Q473.2188,360.5469 472.7266,361.2969 Q472.2344,362.0469 472.2344,363.0781 L472.2344,364.1719 Q472.2344,365.4063 473.125,366.2266 Q474.0156,367.0469 475.6094,367.0469 Q476.5469,367.0469 477.2031,366.7969 Q477.5938,366.6406 478.0156,366.2031 Q478.2813,365.9375 478.4297,365.8594 Q478.5781,365.7813 478.7813,365.7813 Q479.1094,365.7813 479.3672,366.0391 Q479.625,366.2969 479.625,366.6406 Q479.625,366.9844 479.2813,367.3906 Q478.7813,367.9688 477.9844,368.2969 Q476.9063,368.75 475.6094,368.75 Q474.0938,368.75 472.8906,368.125 Q471.9063,367.625 471.2188,366.5547 Q470.5313,365.4844 470.5313,364.2031 L470.5313,363.0469 Q470.5313,361.7188 471.1484,360.5703 Q471.7656,359.4219 472.8594,358.8047 Q473.9531,358.1875 475.1875,358.1875 Q475.9219,358.1875 476.5703,358.3516 Q477.2188,358.5156 477.7656,358.875 Z " fill="#000000"/><text fill="#000000" font-family="sans-serif" font-size="14" lengthAdjust="spacing" textLength="52" x="489" y="368.7285">Portfolio</text><line style="stroke:#181818;stroke-width:0.5;" x1="461" x2="543" y1="379" y2="379"/><line style="stroke:#181818;stroke-width:0.5;" x1="461" x2="543" y1="387" y2="387"/></g><!--class Asset--><g id="elem_Asset"><rect fill="#F1F1F1" height="48" id="Asset" rx="2.5" ry="2.5" style="stroke:#181818;stroke-width:0.5;" width="67" x="677.5" y="347"/><ellipse cx="692.5" cy="363" fill="#ADD1B2" rx="11" ry="11" style="stroke:#181818;stroke-width:1.0;"/><path d="M695.2656,358.875 Q695.4219,358.6563 695.6094,358.5469 Q695.7969,358.4375 696.0156,358.4375 Q696.3906,358.4375 696.625,358.6953 Q696.8594,358.9531 696.8594,359.5625 L696.8594,361.0156 Q696.8594,361.625 696.625,361.8906 Q696.3906,362.1563 696.0156,362.1563 Q695.6719,362.1563 695.4688,361.9531 Q695.2656,361.7656 695.1563,361.25 Q695.1094,360.8906 694.9219,360.7031 Q694.5938,360.3281 693.9844,360.1094 Q693.375,359.8906 692.75,359.8906 Q691.9844,359.8906 691.3516,360.2188 Q690.7188,360.5469 690.2266,361.2969 Q689.7344,362.0469 689.7344,363.0781 L689.7344,364.1719 Q689.7344,365.4063 690.625,366.2266 Q691.5156,367.0469 693.1094,367.0469 Q694.0469,367.0469 694.7031,366.7969 Q695.0938,366.6406 695.5156,366.2031 Q695.7813,365.9375 695.9297,365.8594 Q696.0781,365.7813 696.2813,365.7813 Q696.6094,365.7813 696.8672,366.0391 Q697.125,366.2969 697.125,366.6406 Q697.125,366.9844 696.7813,367.3906 Q696.2813,367.9688 695.4844,368.2969 Q694.4063,368.75 693.1094,368.75 Q691.5938,368.75 690.3906,368.125 Q689.4063,367.625 688.7188,366.5547 Q688.0313,365.4844 688.0313,364.2031 L688.0313,363.0469 Q688.0313,361.7188 688.6484,360.5703 Q689.2656,359.4219 690.3594,358.8047 Q691.4531,358.1875 692.6875,358.1875 Q693.4219,358.1875 694.0703,358.3516 Q694.7188,358.5156 695.2656,358.875 Z " fill="#000000"/><text fill="#000000" font-family="sans-serif" font-size="14" lengthAdjust="spacing" textLength="35" x="706.5" y="368.7285">Asset</text><line style="stroke:#181818;stroke-width:0.5;" x1="678.5" x2="743.5" y1="379" y2="379"/><line style="stroke:#181818;stroke-width:0.5;" x1="678.5" x2="743.5" y1="387" y2="387"/></g><!--class ImportData--><g id="elem_ImportData"><rect fill="#F1F1F1" height="48" id="ImportData" rx="2.5" ry="2.5" style="stroke:#181818;stroke-width:0.5;" width="101" x="877.5" y="347"/><ellipse cx="892.5" cy="363" fill="#ADD1B2" rx="11" ry="11" style="stroke:#181818;stroke-width:1.0;"/><path d="M895.2656,358.875 Q895.4219,358.6563 895.6094,358.5469 Q895.7969,358.4375 896.0156,358.4375 Q896.3906,358.4375 896.625,358.6953 Q896.8594,358.9531 896.8594,359.5625 L896.8594,361.0156 Q896.8594,361.625 896.625,361.8906 Q896.3906,362.1563 896.0156,362.1563 Q895.6719,362.1563 895.4688,361.9531 Q895.2656,361.7656 895.1563,361.25 Q895.1094,360.8906 894.9219,360.7031 Q894.5938,360.3281 893.9844,360.1094 Q893.375,359.8906 892.75,359.8906 Q891.9844,359.8906 891.3516,360.2188 Q890.7188,360.5469 890.2266,361.2969 Q889.7344,362.0469 889.7344,363.0781 L889.7344,364.1719 Q889.7344,365.4063 890.625,366.2266 Q891.5156,367.0469 893.1094,367.0469 Q894.0469,367.0469 894.7031,366.7969 Q895.0938,366.6406 895.5156,366.2031 Q895.7813,365.9375 895.9297,365.8594 Q896.0781,365.7813 896.2813,365.7813 Q896.6094,365.7813 896.8672,366.0391 Q897.125,366.2969 897.125,366.6406 Q897.125,366.9844 896.7813,367.3906 Q896.2813,367.9688 895.4844,368.2969 Q894.4063,368.75 893.1094,368.75 Q891.5938,368.75 890.3906,368.125 Q889.4063,367.625 888.7188,366.5547 Q888.0313,365.4844 888.0313,364.2031 L888.0313,363.0469 Q888.0313,361.7188 888.6484,360.5703 Q889.2656,359.4219 890.3594,358.8047 Q891.4531,358.1875 892.6875,358.1875 Q893.4219,358.1875 894.0703,358.3516 Q894.7188,358.5156 895.2656,358.875 Z " fill="#000000"/><text fill="#000000" font-family="sans-serif" font-size="14" lengthAdjust="spacing" textLength="69" x="906.5" y="368.7285">ImportData</text><line style="stroke:#181818;stroke-width:0.5;" x1="878.5" x2="977.5" y1="379" y2="379"/><line style="stroke:#181818;stroke-width:0.5;" x1="878.5" x2="977.5" y1="387" y2="387"/></g><!--class PortfolioImportData--><g id="elem_PortfolioImportData"><rect fill="#F1F1F1" height="48" id="PortfolioImportData" rx="2.5" ry="2.5" style="stroke:#181818;stroke-width:0.5;" width="153" x="1111.5" y="347"/><ellipse cx="1126.5" cy="363" fill="#ADD1B2" rx="11" ry="11" style="stroke:#181818;stroke-width:1.0;"/><path d="M1129.2656,358.875 Q1129.4219,358.6563 1129.6094,358.5469 Q1129.7969,358.4375 1130.0156,358.4375 Q1130.3906,358.4375 1130.625,358.6953 Q1130.8594,358.9531 1130.8594,359.5625 L1130.8594,361.0156 Q1130.8594,361.625 1130.625,361.8906 Q1130.3906,362.1563 1130.0156,362.1563 Q1129.6719,362.1563 1129.4688,361.9531 Q1129.2656,361.7656 1129.1563,361.25 Q1129.1094,360.8906 1128.9219,360.7031 Q1128.5938,360.3281 1127.9844,360.1094 Q1127.375,359.8906 1126.75,359.8906 Q1125.9844,359.8906 1125.3516,360.2188 Q1124.7188,360.5469 1124.2266,361.2969 Q1123.7344,362.0469 1123.7344,363.0781 L1123.7344,364.1719 Q1123.7344,365.4063 1124.625,366.2266 Q1125.5156,367.0469 1127.1094,367.0469 Q1128.0469,367.0469 1128.7031,366.7969 Q1129.0938,366.6406 1129.5156,366.2031 Q1129.7813,365.9375 1129.9297,365.8594 Q1130.0781,365.7813 1130.2813,365.7813 Q1130.6094,365.7813 1130.8672,366.0391 Q1131.125,366.2969 1131.125,366.6406 Q1131.125,366.9844 1130.7813,367.3906 Q1130.2813,367.9688 1129.4844,368.2969 Q1128.4063,368.75 1127.1094,368.75 Q1125.5938,368.75 1124.3906,368.125 Q1123.4063,367.625 1122.7188,366.5547 Q1122.0313,365.4844 1122.0313,364.2031 L1122.0313,363.0469 Q1122.0313,361.7188 1122.6484,360.5703 Q1123.2656,359.4219 1124.3594,358.8047 Q1125.4531,358.1875 1126.6875,358.1875 Q1127.4219,358.1875 1128.0703,358.3516 Q1128.7188,358.5156 1129.2656,358.875 Z " fill="#000000"/><text fill="#000000" font-family="sans-serif" font-size="14" lengthAdjust="spacing" textLength="121" x="1140.5" y="368.7285">PortfolioImportData</text><line style="stroke:#181818;stroke-width:0.5;" x1="1112.5" x2="1263.5" y1="379" y2="379"/><line style="stroke:#181818;stroke-width:0.5;" x1="1112.5" x2="1263.5" y1="387" y2="387"/></g><!--class DashboardView--><g id="elem_DashboardView"><rect fill="#F1F1F1" height="48" id="DashboardView" rx="2.5" ry="2.5" style="stroke:#181818;stroke-width:0.5;" width="131" x="253.5" y="24.5"/><ellipse cx="268.5" cy="40.5" fill="#ADD1B2" rx="11" ry="11" style="stroke:#181818;stroke-width:1.0;"/><path d="M271.2656,36.375 Q271.4219,36.1563 271.6094,36.0469 Q271.7969,35.9375 272.0156,35.9375 Q272.3906,35.9375 272.625,36.1953 Q272.8594,36.4531 272.8594,37.0625 L272.8594,38.5156 Q272.8594,39.125 272.625,39.3906 Q272.3906,39.6563 272.0156,39.6563 Q271.6719,39.6563 271.4688,39.4531 Q271.2656,39.2656 271.1563,38.75 Q271.1094,38.3906 270.9219,38.2031 Q270.5938,37.8281 269.9844,37.6094 Q269.375,37.3906 268.75,37.3906 Q267.9844,37.3906 267.3516,37.7188 Q266.7188,38.0469 266.2266,38.7969 Q265.7344,39.5469 265.7344,40.5781 L265.7344,41.6719 Q265.7344,42.9063 266.625,43.7266 Q267.5156,44.5469 269.1094,44.5469 Q270.0469,44.5469 270.7031,44.2969 Q271.0938,44.1406 271.5156,43.7031 Q271.7813,43.4375 271.9297,43.3594 Q272.0781,43.2813 272.2813,43.2813 Q272.6094,43.2813 272.8672,43.5391 Q273.125,43.7969 273.125,44.1406 Q273.125,44.4844 272.7813,44.8906 Q272.2813,45.4688 271.4844,45.7969 Q270.4063,46.25 269.1094,46.25 Q267.5938,46.25 266.3906,45.625 Q265.4063,45.125 264.7188,44.0547 Q264.0313,42.9844 264.0313,41.7031 L264.0313,40.5469 Q264.0313,39.2188 264.6484,38.0703 Q265.2656,36.9219 266.3594,36.3047 Q267.4531,35.6875 268.6875,35.6875 Q269.4219,35.6875 270.0703,35.8516 Q270.7188,36.0156 271.2656,36.375 Z " fill="#000000"/><text fill="#000000" font-family="sans-serif" font-size="14" lengthAdjust="spacing" textLength="99" x="282.5" y="46.2285">DashboardView</text><line style="stroke:#181818;stroke-width:0.5;" x1="254.5" x2="383.5" y1="56.5" y2="56.5"/><line style="stroke:#181818;stroke-width:0.5;" x1="254.5" x2="383.5" y1="64.5" y2="64.5"/></g><!--class PortfolioView--><g id="elem_PortfolioView"><rect fill="#F1F1F1" height="48" id="PortfolioView" rx="2.5" ry="2.5" style="stroke:#181818;stroke-width:0.5;" width="113" x="73.5" y="24.5"/><ellipse cx="88.5" cy="40.5" fill="#ADD1B2" rx="11" ry="11" style="stroke:#181818;stroke-width:1.0;"/><path d="M91.2656,36.375 Q91.4219,36.1563 91.6094,36.0469 Q91.7969,35.9375 92.0156,35.9375 Q92.3906,35.9375 92.625,36.1953 Q92.8594,36.4531 92.8594,37.0625 L92.8594,38.5156 Q92.8594,39.125 92.625,39.3906 Q92.3906,39.6563 92.0156,39.6563 Q91.6719,39.6563 91.4688,39.4531 Q91.2656,39.2656 91.1563,38.75 Q91.1094,38.3906 90.9219,38.2031 Q90.5938,37.8281 89.9844,37.6094 Q89.375,37.3906 88.75,37.3906 Q87.9844,37.3906 87.3516,37.7188 Q86.7188,38.0469 86.2266,38.7969 Q85.7344,39.5469 85.7344,40.5781 L85.7344,41.6719 Q85.7344,42.9063 86.625,43.7266 Q87.5156,44.5469 89.1094,44.5469 Q90.0469,44.5469 90.7031,44.2969 Q91.0938,44.1406 91.5156,43.7031 Q91.7813,43.4375 91.9297,43.3594 Q92.0781,43.2813 92.2813,43.2813 Q92.6094,43.2813 92.8672,43.5391 Q93.125,43.7969 93.125,44.1406 Q93.125,44.4844 92.7813,44.8906 Q92.2813,45.4688 91.4844,45.7969 Q90.4063,46.25 89.1094,46.25 Q87.5938,46.25 86.3906,45.625 Q85.4063,45.125 84.7188,44.0547 Q84.0313,42.9844 84.0313,41.7031 L84.0313,40.5469 Q84.0313,39.2188 84.6484,38.0703 Q85.2656,36.9219 86.3594,36.3047 Q87.4531,35.6875 88.6875,35.6875 Q89.4219,35.6875 90.0703,35.8516 Q90.7188,36.0156 91.2656,36.375 Z " fill="#000000"/><text fill="#000000" font-family="sans-serif" font-size="14" lengthAdjust="spacing" textLength="81" x="102.5" y="46.2285">PortfolioView</text><line style="stroke:#181818;stroke-width:0.5;" x1="74.5" x2="185.5" y1="56.5" y2="56.5"/><line style="stroke:#181818;stroke-width:0.5;" x1="74.5" x2="185.5" y1="64.5" y2="64.5"/></g><!--class TxnImporter--><g id="elem_TxnImporter"><rect fill="#F1F1F1" height="48" id="TxnImporter" rx="2.5" ry="2.5" style="stroke:#181818;stroke-width:0.5;" width="107" x="1003.5" y="24.5"/><ellipse cx="1018.5" cy="40.5" fill="#ADD1B2" rx="11" ry="11" style="stroke:#181818;stroke-width:1.0;"/><path d="M1021.2656,36.375 Q1021.4219,36.1563 1021.6094,36.0469 Q1021.7969,35.9375 1022.0156,35.9375 Q1022.3906,35.9375 1022.625,36.1953 Q1022.8594,36.4531 1022.8594,37.0625 L1022.8594,38.5156 Q1022.8594,39.125 1022.625,39.3906 Q1022.3906,39.6563 1022.0156,39.6563 Q1021.6719,39.6563 1021.4688,39.4531 Q1021.2656,39.2656 1021.1563,38.75 Q1021.1094,38.3906 1020.9219,38.2031 Q1020.5938,37.8281 1019.9844,37.6094 Q1019.375,37.3906 1018.75,37.3906 Q1017.9844,37.3906 1017.3516,37.7188 Q1016.7188,38.0469 1016.2266,38.7969 Q1015.7344,39.5469 1015.7344,40.5781 L1015.7344,41.6719 Q1015.7344,42.9063 1016.625,43.7266 Q1017.5156,44.5469 1019.1094,44.5469 Q1020.0469,44.5469 1020.7031,44.2969 Q1021.0938,44.1406 1021.5156,43.7031 Q1021.7813,43.4375 1021.9297,43.3594 Q1022.0781,43.2813 1022.2813,43.2813 Q1022.6094,43.2813 1022.8672,43.5391 Q1023.125,43.7969 1023.125,44.1406 Q1023.125,44.4844 1022.7813,44.8906 Q1022.2813,45.4688 1021.4844,45.7969 Q1020.4063,46.25 1019.1094,46.25 Q1017.5938,46.25 1016.3906,45.625 Q1015.4063,45.125 1014.7188,44.0547 Q1014.0313,42.9844 1014.0313,41.7031 L1014.0313,40.5469 Q1014.0313,39.2188 1014.6484,38.0703 Q1015.2656,36.9219 1016.3594,36.3047 Q1017.4531,35.6875 1018.6875,35.6875 Q1019.4219,35.6875 1020.0703,35.8516 Q1020.7188,36.0156 1021.2656,36.375 Z " fill="#000000"/><text fill="#000000" font-family="sans-serif" font-size="14" lengthAdjust="spacing" textLength="75" x="1032.5" y="46.2285">TxnImporter</text><line style="stroke:#181818;stroke-width:0.5;" x1="1004.5" x2="1109.5" y1="56.5" y2="56.5"/><line style="stroke:#181818;stroke-width:0.5;" x1="1004.5" x2="1109.5" y1="64.5" y2="64.5"/></g><!--reverse link TableFormatter to TxnTableFormatter--><g id="link_TableFormatter_TxnTableFormatter"><path codeLine="46" d="M528.5534,85.4404 C501.6334,97.7204 486.67,105.17 459,120 C431.33,134.83 401.79,152.33 375.72,168.39 " fill="none" id="TableFormatter-backto-TxnTableFormatter" style="stroke:#181818;stroke-width:1.0;"/><polygon fill="none" points="544.93,77.97,526.0633,79.9816,531.0436,90.8993,544.93,77.97" style="stroke:#181818;stroke-width:1.0;"/></g><!--reverse link TableFormatter to PositionTableFormatter--><g id="link_TableFormatter_PositionTableFormatter"><path codeLine="47" d="M528.1136,80.8368 C476.6036,100.0368 419.36,119.93 353,138 C288.24,155.63 268.82,147.21 205,168 C199.12,169.92 193.13,172.06 187.14,174.36 " fill="none" id="TableFormatter-backto-PositionTableFormatter" style="stroke:#181818;stroke-width:1.0;"/><polygon fill="none" points="544.98,74.55,526.018,75.2147,530.2092,86.459,544.98,74.55" style="stroke:#181818;stroke-width:1.0;"/></g><!--reverse link TableFormatter to PortfolioTableFormatter--><g id="link_TableFormatter_PortfolioTableFormatter"><path codeLine="48" d="M574.1231,105.3091 C559.0731,128.7091 549.79,143.15 533.88,167.91 " fill="none" id="TableFormatter-backto-PortfolioTableFormatter" style="stroke:#181818;stroke-width:1.0;"/><polygon fill="none" points="583.86,90.17,569.0767,102.0635,579.1695,108.5547,583.86,90.17" style="stroke:#181818;stroke-width:1.0;"/></g><!--reverse link TableFormatter to AssetTableFormatter--><g id="link_TableFormatter_AssetTableFormatter"><path codeLine="49" d="M643.7255,105.5961 C657.7955,128.9961 666.3,143.15 681.19,167.91 " fill="none" id="TableFormatter-backto-AssetTableFormatter" style="stroke:#181818;stroke-width:1.0;"/><polygon fill="none" points="634.45,90.17,638.5834,108.688,648.8675,102.5043,634.45,90.17" style="stroke:#181818;stroke-width:1.0;"/></g><!--reverse link TableFormatter to ImportDataTableFormatter--><g id="link_TableFormatter_ImportDataTableFormatter"><path codeLine="50" d="M691.0356,92.3079 C736.8256,116.4979 782.89,140.84 834.02,167.85 " fill="none" id="TableFormatter-backto-ImportDataTableFormatter" style="stroke:#181818;stroke-width:1.0;"/><polygon fill="none" points="675.12,83.9,688.233,97.6131,693.8383,87.0027,675.12,83.9" style="stroke:#181818;stroke-width:1.0;"/></g><!--reverse link TableFormatter to PortfolioImportDataTableFormatter--><g id="link_TableFormatter_PortfolioImportDataTableFormatter"><path codeLine="51" d="M693.1942,52.5329 C779.8042,57.1729 918.27,71.26 1042,120 C1071.78,131.73 1101.69,150.24 1126.61,168 " fill="none" id="TableFormatter-backto-PortfolioImportDataTableFormatter" style="stroke:#181818;stroke-width:1.0;"/><polygon fill="none" points="675.22,51.57,692.8732,58.5244,693.5152,46.5415,675.22,51.57" style="stroke:#181818;stroke-width:1.0;"/></g><!--link TxnTableFormatter to Txn--><g id="link_TxnTableFormatter_Txn"><path codeLine="54" d="M299,269.2 C299,295.4 299,320.29 299,340.9 " fill="none" id="TxnTableFormatter-to-Txn" style="stroke:#181818;stroke-width:1.0;"/><polygon fill="#181818" points="299,346.9,303,337.9,299,341.9,295,337.9,299,346.9" style="stroke:#181818;stroke-width:1.0;"/><text fill="#000000" font-family="sans-serif" font-size="13" lengthAdjust="spacing" textLength="43" x="300" y="313.4951">formats</text></g><!--link PositionTableFormatter to Position--><g id="link_PositionTableFormatter_Position"><path codeLine="55" d="M97,269.2 C97,295.4 97,320.29 97,340.9 " fill="none" id="PositionTableFormatter-to-Position" style="stroke:#181818;stroke-width:1.0;"/><polygon fill="#181818" points="97,346.9,101,337.9,97,341.9,93,337.9,97,346.9" style="stroke:#181818;stroke-width:1.0;"/><text fill="#000000" font-family="sans-serif" font-size="13" lengthAdjust="spacing" textLength="43" x="98" y="313.4951">formats</text></g><!--link PortfolioTableFormatter to Portfolio--><g id="link_PortfolioTableFormatter_Portfolio"><path codeLine="56" d="M502,269.2 C502,295.4 502,320.29 502,340.9 " fill="none" id="PortfolioTableFormatter-to-Portfolio" style="stroke:#181818;stroke-width:1.0;"/><polygon fill="#181818" points="502,346.9,506,337.9,502,341.9,498,337.9,502,346.9" style="stroke:#181818;stroke-width:1.0;"/><text fill="#000000" font-family="sans-serif" font-size="13" lengthAdjust="spacing" textLength="43" x="503" y="313.4951">formats</text></g><!--link AssetTableFormatter to Asset--><g id="link_AssetTableFormatter_Asset"><path codeLine="57" d="M711,269.2 C711,295.4 711,320.29 711,340.9 " fill="none" id="AssetTableFormatter-to-Asset" style="stroke:#181818;stroke-width:1.0;"/><polygon fill="#181818" points="711,346.9,715,337.9,711,341.9,707,337.9,711,346.9" style="stroke:#181818;stroke-width:1.0;"/><text fill="#000000" font-family="sans-serif" font-size="13" lengthAdjust="spacing" textLength="43" x="712" y="313.4951">formats</text></g><!--link ImportDataTableFormatter to ImportData--><g id="link_ImportDataTableFormatter_ImportData"><path codeLine="58" d="M928,269.2 C928,295.4 928,320.29 928,340.9 " fill="none" id="ImportDataTableFormatter-to-ImportData" style="stroke:#181818;stroke-width:1.0;"/><polygon fill="#181818" points="928,346.9,932,337.9,928,341.9,924,337.9,928,346.9" style="stroke:#181818;stroke-width:1.0;"/><text fill="#000000" font-family="sans-serif" font-size="13" lengthAdjust="spacing" textLength="43" x="929" y="313.4951">formats</text></g><!--link PortfolioImportDataTableFormatter to PortfolioImportData--><g id="link_PortfolioImportDataTableFormatter_PortfolioImportData"><path codeLine="59" d="M1188,269.2 C1188,295.4 1188,320.29 1188,340.9 " fill="none" id="PortfolioImportDataTableFormatter-to-PortfolioImportData" style="stroke:#181818;stroke-width:1.0;"/><polygon fill="#181818" points="1188,346.9,1192,337.9,1188,341.9,1184,337.9,1188,346.9" style="stroke:#181818;stroke-width:1.0;"/><text fill="#000000" font-family="sans-serif" font-size="13" lengthAdjust="spacing" textLength="43" x="1189" y="313.4951">formats</text></g><!--link DashboardView to TxnTableFormatter--><g id="link_DashboardView_TxnTableFormatter"><path codeLine="62" d="M316.26,72.51 C313.35,96.95 309.3698,130.3821 305.6098,161.9421 " fill="none" id="DashboardView-to-TxnTableFormatter" style="stroke:#181818;stroke-width:1.0;stroke-dasharray:7.0,7.0;"/><polygon fill="#181818" points="304.9,167.9,309.9366,159.4364,305.4915,162.9351,301.9928,158.49,304.9,167.9" style="stroke:#181818;stroke-width:1.0;"/><text fill="#000000" font-family="sans-serif" font-size="13" lengthAdjust="spacing" textLength="32" x="312" y="134.4951">prints</text></g><!--link DashboardView to PositionTableFormatter--><g id="link_DashboardView_PositionTableFormatter"><path codeLine="63" d="M253.44,70.22 C223.97,81.71 190.05,98.16 164,120 C148.18,133.26 137.7103,146.0966 126.8703,162.9166 " fill="none" id="DashboardView-to-PositionTableFormatter" style="stroke:#181818;stroke-width:1.0;stroke-dasharray:7.0,7.0;"/><polygon fill="#181818" points="123.62,167.96,131.8577,162.5618,126.3286,163.7572,125.1332,158.2281,123.62,167.96" style="stroke:#181818;stroke-width:1.0;"/><text fill="#000000" font-family="sans-serif" font-size="13" lengthAdjust="spacing" textLength="32" x="165" y="134.4951">prints</text></g><!--link DashboardView to PortfolioTableFormatter--><g id="link_DashboardView_PortfolioTableFormatter"><path codeLine="64" d="M344.06,72.51 C370.69,96.95 409.18,132.2825 443.56,163.8425 " fill="none" id="DashboardView-to-PortfolioTableFormatter" style="stroke:#181818;stroke-width:1.0;stroke-dasharray:7.0,7.0;"/><polygon fill="#181818" points="447.98,167.9,444.0549,158.8671,444.2966,164.5188,438.6449,164.7605,447.98,167.9" style="stroke:#181818;stroke-width:1.0;"/><text fill="#000000" font-family="sans-serif" font-size="13" lengthAdjust="spacing" textLength="32" x="412" y="134.4951">prints</text></g><!--link PortfolioView to TxnTableFormatter--><g id="link_PortfolioView_TxnTableFormatter"><path codeLine="66" d="M155.7,72.62 C170.6,86.2 189.6,103.82 206,120 C221.49,135.28 233.8667,147.9708 248.6067,163.4808 " fill="none" id="PortfolioView-to-TxnTableFormatter" style="stroke:#181818;stroke-width:1.0;stroke-dasharray:7.0,7.0;"/><polygon fill="#181818" points="252.74,167.83,249.4395,158.5506,249.2956,164.2056,243.6406,164.0617,252.74,167.83" style="stroke:#181818;stroke-width:1.0;"/><text fill="#000000" font-family="sans-serif" font-size="13" lengthAdjust="spacing" textLength="32" x="223" y="134.4951">prints</text></g><!--link PortfolioView to PositionTableFormatter--><g id="link_PortfolioView_PositionTableFormatter"><path codeLine="67" d="M114.71,72.55 C106.83,85.82 98.05,103.16 94,120 C90.32,135.31 89.4356,146.3763 90.1456,161.8863 " fill="none" id="PortfolioView-to-PositionTableFormatter" style="stroke:#181818;stroke-width:1.0;stroke-dasharray:7.0,7.0;"/><polygon fill="#181818" points="90.42,167.88,94.0043,158.7065,90.1914,162.8852,86.0126,159.0723,90.42,167.88" style="stroke:#181818;stroke-width:1.0;"/><text fill="#000000" font-family="sans-serif" font-size="13" lengthAdjust="spacing" textLength="32" x="95" y="134.4951">prints</text></g><!--link TxnImporter to ImportDataTableFormatter--><g id="link_TxnImporter_ImportDataTableFormatter"><path codeLine="69" d="M1039.33,72.51 C1020.56,96.95 993.9748,131.5816 969.7348,163.1416 " fill="none" id="TxnImporter-to-ImportDataTableFormatter" style="stroke:#181818;stroke-width:1.0;stroke-dasharray:7.0,7.0;"/><polygon fill="#181818" points="966.08,167.9,974.7344,163.1989,969.1256,163.9346,968.3899,158.3258,966.08,167.9" style="stroke:#181818;stroke-width:1.0;"/><text fill="#000000" font-family="sans-serif" font-size="13" lengthAdjust="spacing" textLength="32" x="1001" y="134.4951">prints</text></g><!--link TxnImporter to PortfolioImportDataTableFormatter--><g id="link_TxnImporter_PortfolioImportDataTableFormatter"><path codeLine="70" d="M1074.94,72.51 C1094,96.95 1121.0304,131.6085 1145.6404,163.1685 " fill="none" id="TxnImporter-to-PortfolioImportDataTableFormatter" style="stroke:#181818;stroke-width:1.0;stroke-dasharray:7.0,7.0;"/><polygon fill="#181818" points="1149.33,167.9,1146.95,158.343,1146.2554,163.9571,1140.6413,163.2624,1149.33,167.9" style="stroke:#181818;stroke-width:1.0;"/><text fill="#000000" font-family="sans-serif" font-size="13" lengthAdjust="spacing" textLength="32" x="1123" y="134.4951">prints</text></g><!--SRC=[dPJ1QiCm38RlVWhTkZ7I1oYZK2Y37WOzZDsLnAK6nowss5gslVli98t38hThRyRwVadvBMK6RrXg2I_MOOD4qdan0u23aruQGbBMWCQJT49WwSbXHL1fzBuJ1bqdWoy1y0HxYRLq3u-mW0-hwlOkv76dTFKZH9_WQ9WS1T3H13P4RywujLx5ZjcqXpuOL6VkZWAETbOhcwdGHziI_Vdc6Yll9R7vCKO2tn8tvzqqiRyr4hB9rH0EoiJURz6LUeSG7_jqLyaPRCnUEaLeAWaxPnieqKjeR2sr-5Ft-RiefaF7KlmWPL1s95YMULgMorbtkO6iAjYKDBlsv65j6rG6NZkd9gjO5CleLV2w5uZCSaLmcrOhqVocT7ZQapFFJNraL_tCdxdiL4LuCvxXIISNfGmroX4SV5VoqqE5Me_C91l-bCgGMAFVbnPT7J6OpvVCtstHiPw1CzvULF3-3fBqtVzfQGfVQodEJETLk8s2hBs3vA_Y-iiCqby0]--></g></svg>